<svg width="28" height="20" viewBox="0 0 28 20" fill="none" xmlns="http://www.w3.org/2000/svg">
<g clip-path="url(#clip0_5_30)">
<rect width="28" height="20" rx="2" fill="white"/>
<rect width="28" height="20" fill="#0EA6FB"/>
<rect x="13.3334" width="14.6667" height="20" fill="#F63030"/>
<path fill-rule="evenodd" clip-rule="evenodd" d="M9.33337 20H18.6667V0H9.33337V20Z" fill="#FFDA27"/>
<path fill-rule="evenodd" clip-rule="evenodd" d="M12.6666 8.66659H14V9.33325H12.6666V8.66659Z" fill="#FFDA27"/>
<path d="M12.3923 8.69435C12.3761 8.50001 12.5295 8.33333 12.7245 8.33333H15.2754C15.4704 8.33333 15.6238 8.50001 15.6076 8.69435L15.4363 10.7497C15.3931 11.268 14.9599 11.6667 14.4398 11.6667H13.5601C13.04 11.6667 12.6068 11.268 12.5636 10.7497L12.3923 8.69435Z" stroke="#F63030" stroke-width="0.666667"/>
<path fill-rule="evenodd" clip-rule="evenodd" d="M12.6666 9.33333H15.3333V10H14.6666H13.3333H12.6666V9.33333Z" fill="#F63030"/>
</g>
<defs>
<clipPath id="clip0_5_30">
<rect width="28" height="20" fill="white"/>
</clipPath>
</defs>
</svg>
