<svg width="28" height="20" viewBox="0 0 28 20" fill="none" xmlns="http://www.w3.org/2000/svg">
<g clip-path="url(#clip0_5_9)">
<rect width="28" height="20" rx="2" fill="white"/>
<rect x="13.3334" width="14.6667" height="20" fill="#50B500"/>
<path fill-rule="evenodd" clip-rule="evenodd" d="M0 20H9.33333V0H0V20Z" fill="#4C4C4C"/>
<path fill-rule="evenodd" clip-rule="evenodd" d="M9.33337 20H18.6667V0H9.33337V20Z" fill="#F63030"/>
<path opacity="0.75" d="M12 9.33325C12 8.96506 11.7016 8.66659 11.3334 8.66659C10.9652 8.66659 10.6667 8.96506 10.6667 9.33325H12ZM12.3291 12.218C12.6475 12.4028 13.0555 12.2944 13.2403 11.976C13.4251 11.6575 13.3167 11.2496 12.9982 11.0648L12.3291 12.218ZM15.0757 11.0198C14.7655 11.2181 14.6749 11.6304 14.8733 11.9406C15.0716 12.2508 15.4839 12.3414 15.7941 12.143L15.0757 11.0198ZM17.3334 9.33325C17.3334 8.96506 17.0349 8.66659 16.6667 8.66659C16.2985 8.66659 16 8.96506 16 9.33325H17.3334ZM10.6667 9.33325C10.6667 10.5663 11.3366 11.6421 12.3291 12.218L12.9982 11.0648C12.4 10.7176 12 10.0718 12 9.33325H10.6667ZM15.7941 12.143C16.7183 11.5519 17.3334 10.5146 17.3334 9.33325H16C16 10.0409 15.633 10.6633 15.0757 11.0198L15.7941 12.143Z" fill="white"/>
<path fill-rule="evenodd" clip-rule="evenodd" d="M14 10.6667C14.7363 10.6667 15.3333 9.77132 15.3333 8.66675C15.3333 7.56218 14.7363 6.66675 14 6.66675C13.2636 6.66675 12.6666 7.56218 12.6666 8.66675C12.6666 9.77132 13.2636 10.6667 14 10.6667Z" fill="#4C4C4C"/>
</g>
<defs>
<clipPath id="clip0_5_9">
<rect width="28" height="20" fill="white"/>
</clipPath>
</defs>
</svg>
