<svg width="28" height="20" viewBox="0 0 28 20" fill="none" xmlns="http://www.w3.org/2000/svg">
<g clip-path="url(#clip0_5_182)">
<rect width="28" height="20" rx="2" fill="white"/>
<path fill-rule="evenodd" clip-rule="evenodd" d="M0 17.3334H28V2.66675H0V17.3334Z" fill="#0EA6FB"/>
<path fill-rule="evenodd" clip-rule="evenodd" d="M0 2.66667H28V0H0V2.66667Z" fill="#F63030"/>
<path fill-rule="evenodd" clip-rule="evenodd" d="M0 19.9999H28V17.3333H0V19.9999Z" fill="#F63030"/>
<path fill-rule="evenodd" clip-rule="evenodd" d="M14 16C17.3137 16 20 13.3137 20 10C20 6.68629 17.3137 4 14 4C10.6863 4 8 6.68629 8 10C8 13.3137 10.6863 16 14 16Z" fill="white"/>
<path fill-rule="evenodd" clip-rule="evenodd" d="M14 14C16.2091 14 18 12.2091 18 10C18 7.79086 16.2091 6 14 6C11.7909 6 10 7.79086 10 10C10 12.2091 11.7909 14 14 14Z" stroke="#50B500" stroke-width="1.33333" stroke-linecap="round" stroke-dasharray="0.67 2"/>
</g>
<defs>
<clipPath id="clip0_5_182">
<rect width="28" height="20" fill="white"/>
</clipPath>
</defs>
</svg>
