<svg width="28" height="20" viewBox="0 0 28 20" fill="none" xmlns="http://www.w3.org/2000/svg">
<g clip-path="url(#clip0_26_294)">
<rect width="28" height="20" fill="white"/>
<rect width="28" height="20" fill="white"/>
<rect x="0.00317383" width="3.49921" height="3.49921" fill="#4C4C4C"/>
<rect x="3.50244" width="3.49921" height="3.49921" fill="white"/>
<rect x="7.00159" width="3.49921" height="3.49921" fill="#4C4C4C"/>
<rect x="10.5009" width="3.49921" height="3.49921" fill="white"/>
<rect x="14" width="3.49921" height="3.49921" fill="#4C4C4C"/>
<rect x="17.4993" width="3.49921" height="3.49921" fill="white"/>
<rect x="20.9984" width="3.49921" height="3.49921" fill="#4C4C4C"/>
<rect x="24.4977" width="3.49921" height="3.49921" fill="white"/>
<rect width="3.49921" height="3.49921" transform="matrix(-1 0 0 1 27.9968 3.30017)" fill="#4C4C4C"/>
<rect width="3.49921" height="3.49921" transform="matrix(-1 0 0 1 24.4976 3.30017)" fill="white"/>
<rect width="3.49921" height="3.49921" transform="matrix(-1 0 0 1 20.9984 3.30017)" fill="#4C4C4C"/>
<rect width="3.49921" height="3.49921" transform="matrix(-1 0 0 1 17.4991 3.30017)" fill="white"/>
<rect width="3.49921" height="3.49921" transform="matrix(-1 0 0 1 14 3.30017)" fill="#4C4C4C"/>
<rect width="3.49921" height="3.49921" transform="matrix(-1 0 0 1 10.5007 3.30017)" fill="white"/>
<rect width="3.49921" height="3.49921" transform="matrix(-1 0 0 1 7.00159 3.30017)" fill="#4C4C4C"/>
<rect width="3.49921" height="3.49921" transform="matrix(-1 0 0 1 3.50232 3.30017)" fill="white"/>
<rect x="0.00317383" y="6.60034" width="3.49921" height="3.49921" fill="#4C4C4C"/>
<rect x="3.50244" y="6.60034" width="3.49921" height="3.49921" fill="white"/>
<rect x="7.00159" y="6.60034" width="3.49921" height="3.49921" fill="#4C4C4C"/>
<rect x="10.5009" y="6.60034" width="3.49921" height="3.49921" fill="white"/>
<rect x="14" y="6.60034" width="3.49921" height="3.49921" fill="#4C4C4C"/>
<rect x="17.4993" y="6.60034" width="3.49921" height="3.49921" fill="white"/>
<rect x="20.9984" y="6.60034" width="3.49921" height="3.49921" fill="#4C4C4C"/>
<rect x="24.4977" y="6.60034" width="3.49921" height="3.49921" fill="white"/>
<rect width="3.49921" height="3.49921" transform="matrix(-1 0 0 1 27.9968 9.90051)" fill="#4C4C4C"/>
<rect width="3.49921" height="3.49921" transform="matrix(-1 0 0 1 24.4976 9.90051)" fill="white"/>
<rect width="3.49921" height="3.49921" transform="matrix(-1 0 0 1 20.9984 9.90051)" fill="#4C4C4C"/>
<rect width="3.49921" height="3.49921" transform="matrix(-1 0 0 1 17.4991 9.90051)" fill="white"/>
<rect width="3.49921" height="3.49921" transform="matrix(-1 0 0 1 14 9.90051)" fill="#4C4C4C"/>
<rect width="3.49921" height="3.49921" transform="matrix(-1 0 0 1 10.5007 9.90051)" fill="white"/>
<rect width="3.49921" height="3.49921" transform="matrix(-1 0 0 1 7.00159 9.90051)" fill="#4C4C4C"/>
<rect width="3.49921" height="3.49921" transform="matrix(-1 0 0 1 3.50232 9.90051)" fill="white"/>
<rect x="0.00317383" y="13.2007" width="3.49921" height="3.49921" fill="#4C4C4C"/>
<rect x="3.50244" y="13.2007" width="3.49921" height="3.49921" fill="white"/>
<rect x="7.00159" y="13.2007" width="3.49921" height="3.49921" fill="#4C4C4C"/>
<rect x="10.5009" y="13.2007" width="3.49921" height="3.49921" fill="white"/>
<rect x="14" y="13.2007" width="3.49921" height="3.49921" fill="#4C4C4C"/>
<rect x="17.4993" y="13.2007" width="3.49921" height="3.49921" fill="white"/>
<rect x="20.9984" y="13.2007" width="3.49921" height="3.49921" fill="#4C4C4C"/>
<rect x="24.4977" y="13.2007" width="3.49921" height="3.49921" fill="white"/>
<rect width="3.49921" height="3.49921" transform="matrix(-1 0 0 1 27.9968 16.5007)" fill="#4C4C4C"/>
<rect width="3.49921" height="3.49921" transform="matrix(-1 0 0 1 24.4976 16.5007)" fill="white"/>
<rect width="3.49921" height="3.49921" transform="matrix(-1 0 0 1 20.9984 16.5007)" fill="#4C4C4C"/>
<rect width="3.49921" height="3.49921" transform="matrix(-1 0 0 1 17.4991 16.5007)" fill="white"/>
<rect width="3.49921" height="3.49921" transform="matrix(-1 0 0 1 14 16.5007)" fill="#4C4C4C"/>
<rect width="3.49921" height="3.49921" transform="matrix(-1 0 0 1 10.5007 16.5007)" fill="white"/>
<rect width="3.49921" height="3.49921" transform="matrix(-1 0 0 1 7.00159 16.5007)" fill="#4C4C4C"/>
<rect width="3.49921" height="3.49921" transform="matrix(-1 0 0 1 3.50232 16.5007)" fill="white"/>
</g>
<defs>
<clipPath id="clip0_26_294">
<rect width="28" height="20" fill="white"/>
</clipPath>
</defs>
</svg>
