<svg width="28" height="20" viewBox="0 0 28 20" fill="none" xmlns="http://www.w3.org/2000/svg">
<g clip-path="url(#clip0_5_306)">
<rect width="28" height="20" fill="#F63030"/>
<path d="M9.68738 4.07151L9.15847 4.15275C8.99239 4.17826 8.83707 4.0643 8.81156 3.89822C8.80141 3.83209 8.81333 3.76445 8.8455 3.70578L9.10274 3.23655C9.12722 3.19189 9.12816 3.13806 9.10525 3.09258L8.86454 2.61465C8.78896 2.46458 8.84934 2.28166 8.99941 2.20607C9.05917 2.17597 9.12718 2.16642 9.19292 2.17888L9.71868 2.27853C9.76871 2.28801 9.82021 2.27227 9.85638 2.23643L10.2365 1.85981C10.3559 1.74155 10.5485 1.74245 10.6668 1.86182C10.7139 1.90936 10.744 1.97109 10.7525 2.03746L10.8202 2.56828C10.8266 2.61879 10.8575 2.6629 10.9027 2.68623L11.3784 2.9314C11.5278 3.00838 11.5864 3.19186 11.5094 3.34122C11.4788 3.40069 11.4294 3.4484 11.3689 3.47696L10.885 3.70538C10.8389 3.72711 10.8065 3.77012 10.7983 3.82037L10.7121 4.34851C10.6851 4.51434 10.5287 4.62684 10.3628 4.59978C10.2968 4.58901 10.2362 4.55676 10.1903 4.50804L9.82353 4.11839C9.78863 4.08131 9.73772 4.06378 9.68738 4.07151Z" fill="#FFDA27"/>
<path d="M13.4417 6.84225L13.0749 7.2319C12.9598 7.35425 12.7672 7.36008 12.6449 7.24491C12.5961 7.19905 12.5639 7.13841 12.5531 7.07237L12.4669 6.54424C12.4587 6.49398 12.4263 6.45097 12.3803 6.42924L11.8964 6.20082C11.7444 6.1291 11.6794 5.94778 11.7511 5.79582C11.7797 5.73532 11.8274 5.68591 11.8868 5.65526L12.3625 5.41009C12.4078 5.38676 12.4386 5.34265 12.4451 5.29214L12.5128 4.76132C12.534 4.59464 12.6864 4.47675 12.8531 4.49801C12.9194 4.50647 12.9812 4.53658 13.0287 4.58367L13.4088 4.96029C13.445 4.99613 13.4965 5.01187 13.5466 5.00239L14.0723 4.90274C14.2374 4.87145 14.3966 4.97991 14.4279 5.145C14.4403 5.21074 14.4308 5.27875 14.4007 5.33851L14.16 5.81644C14.1371 5.86192 14.138 5.91576 14.1625 5.96041L14.4197 6.42964C14.5005 6.57698 14.4465 6.7619 14.2992 6.84268C14.2405 6.87484 14.1729 6.88677 14.1068 6.87661L13.5778 6.79537C13.5275 6.78764 13.4766 6.80517 13.4417 6.84225Z" fill="#FFDA27"/>
<path d="M9.68738 13.428L9.15847 13.5092C8.99239 13.5347 8.83707 13.4207 8.81156 13.2547C8.80141 13.1885 8.81333 13.1209 8.8455 13.0622L9.10274 12.593C9.12722 12.5483 9.12816 12.4945 9.10525 12.449L8.86454 11.9711C8.78896 11.821 8.84934 11.6381 8.99941 11.5625C9.05917 11.5324 9.12718 11.5229 9.19292 11.5353L9.71868 11.635C9.76871 11.6445 9.82021 11.6287 9.85638 11.5929L10.2365 11.2163C10.3559 11.098 10.5485 11.0989 10.6668 11.2183C10.7139 11.2658 10.744 11.3275 10.7525 11.3939L10.8202 11.9247C10.8266 11.9752 10.8575 12.0193 10.9027 12.0427L11.3784 12.2878C11.5278 12.3648 11.5864 12.5483 11.5094 12.6977C11.4788 12.7571 11.4294 12.8048 11.3689 12.8334L10.885 13.0618C10.8389 13.0836 10.8065 13.1266 10.7983 13.1768L10.7121 13.705C10.6851 13.8708 10.5287 13.9833 10.3628 13.9562C10.2968 13.9455 10.2362 13.9132 10.1903 13.8645L9.82353 13.4748C9.78863 13.4378 9.73772 13.4202 9.68738 13.428Z" fill="#FFDA27"/>
<path d="M13.0876 10.8378L12.614 11.0869C12.4652 11.165 12.2813 11.1079 12.2031 10.9591C12.1719 10.8999 12.1612 10.8321 12.1725 10.7661L12.263 10.2387C12.2716 10.1885 12.2549 10.1373 12.2185 10.1018L11.8353 9.72825C11.715 9.61096 11.7125 9.41834 11.8298 9.29802C11.8765 9.25011 11.9377 9.21893 12.0039 9.2093L12.5335 9.13235C12.5839 9.12503 12.6274 9.09338 12.65 9.04772L12.8868 8.56786C12.9611 8.41718 13.1436 8.35532 13.2942 8.42968C13.3542 8.45929 13.4028 8.50786 13.4324 8.56786L13.6693 9.04772C13.6918 9.09338 13.7354 9.12503 13.7857 9.13235L14.3153 9.2093C14.4816 9.23347 14.5968 9.38785 14.5726 9.55413C14.563 9.62035 14.5318 9.68154 14.4839 9.72825L14.1007 10.1018C14.0643 10.1373 14.0476 10.1885 14.0562 10.2387L14.1467 10.7661C14.1751 10.9317 14.0639 11.089 13.8983 11.1174C13.8323 11.1287 13.7645 11.118 13.7053 11.0869L13.2316 10.8378C13.1865 10.8141 13.1327 10.8141 13.0876 10.8378Z" fill="#FFDA27"/>
<path d="M5.57329 9.94219L4.52073 10.4956C4.19022 10.6693 3.78144 10.5422 3.60768 10.2117C3.53849 10.0801 3.51462 9.92938 3.53975 9.78284L3.74077 8.61079C3.7599 8.49926 3.72292 8.38546 3.64189 8.30647L2.79035 7.47642C2.52297 7.21579 2.5175 6.78775 2.77813 6.52036C2.88192 6.41389 3.01791 6.3446 3.16505 6.32322L4.34185 6.15222C4.45383 6.13595 4.55064 6.06561 4.60072 5.96414L5.127 4.89778C5.29225 4.56294 5.69766 4.42547 6.03249 4.59072C6.16583 4.65652 6.27375 4.76445 6.33955 4.89778L6.86583 5.96414C6.91592 6.06561 7.01272 6.13595 7.12471 6.15222L8.3015 6.32322C8.67102 6.37691 8.92704 6.71999 8.87335 7.08951C8.85197 7.23665 8.78268 7.37264 8.6762 7.47642L7.82467 8.30647C7.74363 8.38546 7.70666 8.49926 7.72578 8.61079L7.92681 9.78284C7.98993 10.1509 7.74276 10.5004 7.37473 10.5635C7.22819 10.5886 7.07744 10.5647 6.94583 10.4956L5.89327 9.94219C5.79311 9.88953 5.67345 9.88953 5.57329 9.94219Z" fill="#FFDA27"/>
</g>
<defs>
<clipPath id="clip0_5_306">
<rect width="28" height="20" fill="white"/>
</clipPath>
</defs>
</svg>
