<svg width="28" height="20" viewBox="0 0 28 20" fill="none" xmlns="http://www.w3.org/2000/svg">
<g clip-path="url(#clip0_8_1044)">
<rect width="28" height="20" fill="white"/>
<path fill-rule="evenodd" clip-rule="evenodd" d="M27.092 21.2887L-0.797363 1.28507L0.951132 -1.15271L28.8405 18.851L27.092 21.2887Z" fill="#F63030"/>
<path fill-rule="evenodd" clip-rule="evenodd" d="M0.951172 21.2886L28.8406 1.28495L27.0921 -1.15283L-0.797325 18.8508L0.951172 21.2886Z" fill="#F63030"/>
<path d="M10.0192 4.50652L11.3558 5.44837V9.5758L10.0192 8.63395V4.50652Z" fill="#F63030"/>
<path d="M7.65576 2.92009L8.99236 3.86194V7.98938L7.65576 7.04753V2.92009Z" fill="#F63030"/>
<path d="M5.64355 1.40581L6.98015 2.34766V6.47509L5.64355 5.53324V1.40581Z" fill="#F63030"/>
<path d="M10.0206 15.6159L11.3572 14.6741V10.5466L10.0206 11.4885V15.6159Z" fill="#F63030"/>
<path d="M7.65723 17.2023L8.99383 16.2605V12.1331L7.65723 13.0749V17.2023Z" fill="#F63030"/>
<path d="M5.64502 18.7166L6.98162 17.7748V13.6473L5.64502 14.5892V18.7166Z" fill="#F63030"/>
<path d="M20.3041 8.2897L18.9847 9.25543L15.0735 7.93703L16.3929 6.9713L20.3041 8.2897Z" fill="#F63030"/>
<path d="M22.5623 6.55679L21.2429 7.52252L17.3317 6.20412L18.6511 5.23839L22.5623 6.55679Z" fill="#F63030"/>
<path d="M24.6401 5.13369L23.3206 6.09942L19.4094 4.78103L20.7289 3.8153L24.6401 5.13369Z" fill="#F63030"/>
<path d="M19.4094 15.2891L20.7288 16.2548L24.64 14.9364L23.3206 13.9707L19.4094 15.2891Z" fill="#F63030"/>
<path d="M17.1512 13.5562L18.4706 14.5219L22.3818 13.2035L21.0624 12.2378L17.1512 13.5562Z" fill="#F63030"/>
<path d="M15.0734 12.1331L16.3929 13.0988L20.3041 11.7804L18.9846 10.8147L15.0734 12.1331Z" fill="#F63030"/>
<path d="M7.8781 8.2897L9.19755 9.25543L13.1088 7.93703L11.7893 6.9713L7.8781 8.2897Z" fill="#F63030"/>
<path d="M5.61992 6.55679L6.93937 7.52252L10.8506 6.20412L9.53113 5.23839L5.61992 6.55679Z" fill="#F63030"/>
<path d="M3.54217 5.13369L4.86161 6.09942L8.77282 4.78103L7.45337 3.8153L3.54217 5.13369Z" fill="#F63030"/>
<path d="M8.7729 15.2891L7.45345 16.2548L3.54224 14.9364L4.86169 13.9707L8.7729 15.2891Z" fill="#F63030"/>
<path d="M11.0311 13.5562L9.71163 14.5219L5.80042 13.2035L7.11987 12.2378L11.0311 13.5562Z" fill="#F63030"/>
<path d="M13.1088 12.1331L11.7894 13.0988L7.87818 11.7804L9.19763 10.8147L13.1088 12.1331Z" fill="#F63030"/>
<path d="M21.0244 6.47517L22.361 5.53332V1.40589L21.0244 2.34774V6.47517Z" fill="#F63030"/>
<path d="M18.661 8.0616L19.9976 7.11975V2.99231L18.661 3.93416V8.0616Z" fill="#F63030"/>
<path d="M16.6488 9.57588L17.9854 8.63403V4.5066L16.6488 5.44844V9.57588Z" fill="#F63030"/>
<path d="M17.9854 15.6159L16.6488 14.6741V10.5466L17.9854 11.4885V15.6159Z" fill="#F63030"/>
<path d="M20.3488 17.2023L19.0122 16.2605V12.1331L20.3488 13.0749V17.2023Z" fill="#F63030"/>
<path d="M22.361 18.7166L21.0244 17.7748V13.6473L22.361 14.5892V18.7166Z" fill="#F63030"/>
</g>
<defs>
<clipPath id="clip0_8_1044">
<rect width="28" height="20" fill="white"/>
</clipPath>
</defs>
</svg>
