<svg width="28" height="20" viewBox="0 0 28 20" fill="none" xmlns="http://www.w3.org/2000/svg">
<g clip-path="url(#clip0_27_379)">
<rect width="28" height="20" fill="white"/>
<rect x="14" width="14" height="10" fill="#F63030"/>
<rect x="26.4451" width="1.555" height="10" fill="#FFDA27"/>
<rect x="14" width="1.555" height="10" fill="#FFDA27"/>
<rect x="17.1113" width="1.555" height="10" fill="#FFDA27"/>
<rect x="20.2227" width="1.555" height="10" fill="#FFDA27"/>
<rect x="23.334" width="1.555" height="10" fill="#FFDA27"/>
<rect y="10" width="14" height="10" fill="#F63030"/>
<rect x="12.4451" y="10" width="1.555" height="10" fill="#FFDA27"/>
<rect y="10" width="1.555" height="10" fill="#FFDA27"/>
<rect x="3.11133" y="10" width="1.555" height="10" fill="#FFDA27"/>
<rect x="6.22266" y="10" width="1.555" height="10" fill="#FFDA27"/>
<rect x="9.33398" y="10" width="1.555" height="10" fill="#FFDA27"/>
<rect x="6.22266" width="1.555" height="10" fill="#F63030"/>
<rect x="0.000244141" y="5.77747" width="1.555" height="14" transform="rotate(-90 0.000244141 5.77747)" fill="#F63030"/>
<rect x="20.2227" y="10" width="1.555" height="10" fill="#F63030"/>
<rect x="14" y="15.7775" width="1.555" height="14" transform="rotate(-90 14 15.7775)" fill="#F63030"/>
</g>
<defs>
<clipPath id="clip0_27_379">
<rect width="28" height="20" fill="white"/>
</clipPath>
</defs>
</svg>
