<svg width="28" height="20" viewBox="0 0 28 20" fill="none" xmlns="http://www.w3.org/2000/svg">
<g clip-path="url(#clip0_8_410)">
<rect width="28" height="20" fill="#FFDA27"/>
<path fill-rule="evenodd" clip-rule="evenodd" d="M15.5263 -3.4679L15.5263 23.468L18.4893 23.468L18.4893 -3.4679L15.5263 -3.4679Z" fill="#F63030"/>
<path fill-rule="evenodd" clip-rule="evenodd" d="M9.51081 -3.4679L9.51081 23.468L12.4738 23.468L12.4738 -3.4679L9.51081 -3.4679Z" fill="#F63030"/>
<path fill-rule="evenodd" clip-rule="evenodd" d="M3.49494 -3.4679L3.49494 23.468L6.45788 23.468L6.45789 -3.4679L3.49494 -3.4679Z" fill="#F63030"/>
<path fill-rule="evenodd" clip-rule="evenodd" d="M21.5421 -3.4679L21.5421 23.468L24.505 23.468L24.505 -3.4679L21.5421 -3.4679Z" fill="#F63030"/>
<rect x="14" y="2.54517" width="9.87422" height="9.87422" transform="rotate(45 14 2.54517)" fill="white" stroke="#4C4C4C" stroke-width="0.884076"/>
<mask id="mask0_8_410" style="mask-type:alpha" maskUnits="userSpaceOnUse" x="7" y="2" width="14" height="15">
<rect x="14" y="6.03623" width="4.93711" height="4.93711" transform="rotate(45 14 6.03623)" fill="white" stroke="black" stroke-width="4.93711"/>
</mask>
<g mask="url(#mask0_8_410)">
<rect x="14" y="2.54517" width="9.87422" height="9.87422" transform="rotate(45 14 2.54517)" fill="white"/>
<path d="M11.6508 8.2945C11.6508 7.84917 12.0118 7.48816 12.4571 7.48816C12.9024 7.48816 13.2634 7.84917 13.2634 8.2945V10.7231H11.6508V8.2945Z" fill="#F63030"/>
<path d="M11.6508 9.92072C11.6508 9.47539 12.0118 9.11438 12.4571 9.11438C12.9024 9.11438 13.2634 9.47539 13.2634 9.92072V12.3493H11.6508V9.92072Z" fill="white"/>
<path d="M14.8762 10.7306C14.8762 11.176 14.5152 11.537 14.0699 11.537C13.6246 11.537 13.2635 11.176 13.2635 10.7306V8.32334H14.8762V10.7306Z" fill="#F63030"/>
<path d="M13.2698 8.85174C13.2698 9.29707 13.6308 9.65808 14.0761 9.65808C14.5214 9.65808 14.8825 9.29707 14.8825 8.85174V6.71276H13.2698V8.85174Z" fill="white"/>
<path d="M8.41919 8.2945C8.41919 7.84917 8.7802 7.48816 9.22553 7.48816C9.67086 7.48816 10.0319 7.84917 10.0319 8.2945V10.7231H8.41919V8.2945Z" fill="#F63030"/>
<path d="M8.41919 9.92072C8.41919 9.47539 8.7802 9.11438 9.22553 9.11438C9.67086 9.11438 10.0319 9.47539 10.0319 9.92072V12.3493H8.41919V9.92072Z" fill="white"/>
<path d="M11.6444 10.7306C11.6444 11.176 11.2834 11.537 10.8381 11.537C10.3927 11.537 10.0317 11.176 10.0317 10.7306V8.32334H11.6444V10.7306Z" fill="#F63030"/>
<path d="M10.0381 8.85174C10.0381 9.29707 10.3991 9.65808 10.8444 9.65808C11.2898 9.65808 11.6508 9.29707 11.6508 8.85174V6.71276H10.0381V8.85174Z" fill="white"/>
<path d="M14.8762 8.2945C14.8762 7.84917 15.2372 7.48816 15.6826 7.48816C16.1279 7.48816 16.4889 7.84917 16.4889 8.2945V10.7231H14.8762V8.2945Z" fill="#F63030"/>
<path d="M14.8762 9.92072C14.8762 9.47539 15.2372 9.11438 15.6826 9.11438C16.1279 9.11438 16.4889 9.47539 16.4889 9.92072V12.3493H14.8762V9.92072Z" fill="white"/>
<path d="M18.1014 10.7306C18.1014 11.176 17.7404 11.537 17.2951 11.537C16.8498 11.537 16.4888 11.176 16.4888 10.7306V8.32334H18.1014V10.7306Z" fill="#F63030"/>
<path d="M16.4951 8.85174C16.4951 9.29707 16.8561 9.65808 17.3015 9.65808C17.7468 9.65808 18.1078 9.29707 18.1078 8.85174V6.71276H16.4951V8.85174Z" fill="white"/>
<path d="M18.1078 8.2945C18.1078 7.84917 18.4688 7.48816 18.9141 7.48816C19.3595 7.48816 19.7205 7.84917 19.7205 8.2945V10.7231H18.1078V8.2945Z" fill="#F63030"/>
<path d="M18.1078 9.92072C18.1078 9.47539 18.4688 9.11438 18.9141 9.11438C19.3595 9.11438 19.7205 9.47539 19.7205 9.92072V12.3493H18.1078V9.92072Z" fill="white"/>
<path d="M21.3333 10.7306C21.3333 11.176 20.9722 11.537 20.5269 11.537C20.0816 11.537 19.7206 11.176 19.7206 10.7306V8.32334H21.3333V10.7306Z" fill="#F63030"/>
<path d="M19.7267 8.85174C19.7267 9.29707 20.0877 9.65808 20.533 9.65808C20.9784 9.65808 21.3394 9.29707 21.3394 8.85174V6.71276H19.7267V8.85174Z" fill="white"/>
<path d="M8.41919 10.7306C8.41919 11.176 8.05818 11.537 7.61285 11.537C7.16752 11.537 6.80651 11.176 6.80651 10.7306V8.32334H8.41919V10.7306Z" fill="#F63030"/>
<path d="M6.81274 8.85174C6.81274 9.29707 7.17375 9.65808 7.61908 9.65808C8.06441 9.65808 8.42542 9.29707 8.42542 8.85174V6.71276H6.81274V8.85174Z" fill="white"/>
<path d="M14.8188 12.1182C14.8188 11.6729 15.1799 11.3119 15.6252 11.3119C16.0705 11.3119 16.4315 11.6729 16.4315 12.1182V14.5468H14.8188V12.1182Z" fill="#F63030"/>
<path d="M14.8188 13.7443C14.8188 13.299 15.1799 12.938 15.6252 12.938C16.0705 12.938 16.4315 13.299 16.4315 13.7443V16.1729H14.8188V13.7443Z" fill="white"/>
<path d="M18.0444 14.5543C18.0444 14.9996 17.6834 15.3606 17.2381 15.3606C16.7928 15.3606 16.4318 14.9996 16.4318 14.5543V12.147H18.0444V14.5543Z" fill="#F63030"/>
<path d="M16.4379 12.6754C16.4379 13.1207 16.7989 13.4817 17.2442 13.4817C17.6895 13.4817 18.0505 13.1207 18.0505 12.6754V12.0382H16.4379V12.6754Z" fill="white"/>
<path d="M11.5873 12.1182C11.5873 11.6729 11.9483 11.3119 12.3936 11.3119C12.8389 11.3119 13.2 11.6729 13.2 12.1182V14.5468H11.5873V12.1182Z" fill="#F63030"/>
<path d="M11.5873 13.7443C11.5873 13.299 11.9483 12.938 12.3936 12.938C12.8389 12.938 13.2 13.299 13.2 13.7443V16.1729H11.5873V13.7443Z" fill="white"/>
<path d="M14.8126 14.5543C14.8126 14.9996 14.4516 15.3606 14.0063 15.3606C13.561 15.3606 13.1999 14.9996 13.1999 14.5543V12.147H14.8126V14.5543Z" fill="#F63030"/>
<path d="M13.2063 12.6754C13.2063 13.1207 13.5673 13.4817 14.0126 13.4817C14.458 13.4817 14.819 13.1207 14.819 12.6754V12.0168H13.2063V12.6754Z" fill="white"/>
<path d="M18.0443 12.1182C18.0443 11.6729 18.4053 11.3119 18.8507 11.3119C19.296 11.3119 19.657 11.6729 19.657 12.1182V14.5468H18.0443V12.1182Z" fill="#F63030"/>
<path d="M18.0442 13.7445C18.0442 13.2991 18.4052 12.9381 18.8505 12.9381C19.2959 12.9381 19.6569 13.2991 19.6569 13.7444V16.173H18.0442V13.7445Z" fill="white"/>
<path d="M21.2695 14.5543C21.2695 14.9996 20.9085 15.3606 20.4632 15.3606C20.0179 15.3606 19.6569 14.9996 19.6569 14.5543V12.147H21.2695V14.5543Z" fill="#F63030"/>
<path d="M19.6633 12.6754C19.6633 13.1207 20.0243 13.4817 20.4697 13.4817C20.915 13.4817 21.276 13.1207 21.276 12.6754V11.6999H19.6633V12.6754Z" fill="white"/>
<path d="M8.36194 12.1182C8.36194 11.6729 8.72295 11.3119 9.16828 11.3119C9.61361 11.3119 9.97462 11.6729 9.97462 12.1182V14.5468H8.36194V12.1182Z" fill="#F63030"/>
<path d="M8.36194 13.7445C8.36194 13.2991 8.72295 12.9381 9.16828 12.9381C9.61361 12.9381 9.97462 13.2991 9.97462 13.7444V16.173H8.36194V13.7445Z" fill="white"/>
<path d="M11.5874 14.5543C11.5874 14.9996 11.2264 15.3606 10.7811 15.3606C10.3357 15.3606 9.97472 14.9996 9.97472 14.5543V12.147H11.5874V14.5543Z" fill="#F63030"/>
<path d="M9.98083 12.6754C9.98083 13.1207 10.3418 13.4817 10.7872 13.4817C11.2325 13.4817 11.5935 13.1207 11.5935 12.6754V11.6999H9.98083V12.6754Z" fill="white"/>
<path d="M11.5729 4.01374C11.5729 3.56841 11.9339 3.2074 12.3792 3.2074C12.8245 3.2074 13.1856 3.56841 13.1856 4.01374V6.4423H11.5729V4.01374Z" fill="#F63030"/>
<path d="M11.5729 5.64008C11.5729 5.19475 11.9339 4.83374 12.3792 4.83374C12.8245 4.83374 13.1856 5.19475 13.1856 5.64008V6.87721H11.5729V5.64008Z" fill="white"/>
<path d="M14.7982 6.44989C14.7982 6.89522 14.4372 7.25623 13.9919 7.25623C13.5465 7.25623 13.1855 6.89522 13.1855 6.44989V4.04258H14.7982V6.44989Z" fill="#F63030"/>
<path d="M13.1919 4.57098C13.1919 5.01631 13.5529 5.37732 13.9982 5.37732C14.4436 5.37732 14.8046 5.01631 14.8046 4.57098V3.9338H13.1919V4.57098Z" fill="white"/>
<path d="M8.34119 4.01374C8.34119 3.56841 8.7022 3.2074 9.14753 3.2074C9.59285 3.2074 9.95387 3.56841 9.95387 4.01374V6.4423H8.34119V4.01374Z" fill="#F63030"/>
<path d="M8.34119 5.64008C8.34119 5.19475 8.7022 4.83374 9.14753 4.83374C9.59285 4.83374 9.95387 5.19475 9.95387 5.64008V6.87721H8.34119V5.64008Z" fill="white"/>
<path d="M11.5665 6.44989C11.5665 6.89522 11.2055 7.25623 10.7602 7.25623C10.3149 7.25623 9.95385 6.89522 9.95385 6.44989V4.04258H11.5665V6.44989Z" fill="#F63030"/>
<path d="M9.96008 4.57098C9.96008 5.01631 10.3211 5.37732 10.7664 5.37732C11.2118 5.37732 11.5728 5.01631 11.5728 4.57098V3.91248H9.96008V4.57098Z" fill="white"/>
<path d="M14.7982 4.01374C14.7982 3.56841 15.1592 3.2074 15.6046 3.2074C16.0499 3.2074 16.4109 3.56841 16.4109 4.01374V6.4423H14.7982V4.01374Z" fill="#F63030"/>
<path d="M14.7982 5.64008C14.7982 5.19475 15.1592 4.83374 15.6046 4.83374C16.0499 4.83374 16.4109 5.19475 16.4109 5.64008V6.87721H14.7982V5.64008Z" fill="white"/>
<path d="M18.0236 6.44989C18.0236 6.89522 17.6625 7.25623 17.2172 7.25623C16.7719 7.25623 16.4109 6.89522 16.4109 6.44989V4.04258H18.0236V6.44989Z" fill="#F63030"/>
<path d="M16.4171 4.57098C16.4171 5.01631 16.7781 5.37732 17.2235 5.37732C17.6688 5.37732 18.0298 5.01631 18.0298 4.57098V2.432H16.4171V4.57098Z" fill="white"/>
<path d="M18.0298 4.01374C18.0298 3.56841 18.3908 3.2074 18.8361 3.2074C19.2815 3.2074 19.6425 3.56841 19.6425 4.01374V6.4423H18.0298V4.01374Z" fill="#F63030"/>
<path d="M18.0298 5.64008C18.0298 5.19475 18.3908 4.83374 18.8361 4.83374C19.2815 4.83374 19.6425 5.19475 19.6425 5.64008V7.14932H18.0298V5.64008Z" fill="white"/>
<path d="M21.2554 6.44989C21.2554 6.89522 20.8944 7.25623 20.449 7.25623C20.0037 7.25623 19.6427 6.89522 19.6427 6.44989V4.04258H21.2554V6.44989Z" fill="#F63030"/>
<path d="M19.6487 4.57098C19.6487 5.01631 20.0097 5.37732 20.455 5.37732C20.9003 5.37732 21.2614 5.01631 21.2614 4.57098V2.432H19.6487V4.57098Z" fill="white"/>
<path d="M8.34119 6.44989C8.34119 6.89522 7.98018 7.25623 7.53485 7.25623C7.08952 7.25623 6.72851 6.89522 6.72851 6.44989V4.04258H8.34119V6.44989Z" fill="#F63030"/>
<path d="M6.73486 4.57098C6.73486 5.01631 7.09587 5.37732 7.5412 5.37732C7.98653 5.37732 8.34754 5.01631 8.34754 4.57098V2.432H6.73486V4.57098Z" fill="white"/>
</g>
</g>
<defs>
<clipPath id="clip0_8_410">
<rect width="28" height="20" fill="white"/>
</clipPath>
</defs>
</svg>
