<svg width="28" height="20" viewBox="0 0 28 20" fill="none" xmlns="http://www.w3.org/2000/svg">
<g clip-path="url(#clip0_8_281)">
<rect width="28" height="20" fill="white"/>
<path fill-rule="evenodd" clip-rule="evenodd" d="M14 20H28V10H14V20Z" fill="#F63030"/>
<path fill-rule="evenodd" clip-rule="evenodd" d="M0 10H14V0H0V10Z" fill="#F63030"/>
<path d="M5.17031 4.64168L5.17029 2.45366H6.08515V4.64168H6.54258V1.74414H7.45742V4.64168H7.91485V2.576H8.82969V4.64168V7.53523H5.17031V4.64168Z" fill="#FFDA27"/>
<path d="M19.1703 15.002L19.1703 12.814H20.0852V15.002H20.5426V12.1045H21.4574V15.002H21.9148V12.9364H22.8297V15.002V17.8956H19.1703V15.002Z" fill="#FFDA27"/>
<rect x="5.94189" y="12.1758" width="2.11609" height="5.64856" fill="#4C4C4C"/>
<rect x="19.9419" y="2.17578" width="2.11609" height="5.64856" fill="#4C4C4C"/>
</g>
<defs>
<clipPath id="clip0_8_281">
<rect width="28" height="20" fill="white"/>
</clipPath>
</defs>
</svg>
