<svg width="28" height="20" viewBox="0 0 28 20" fill="none" xmlns="http://www.w3.org/2000/svg">
<g clip-path="url(#clip0_31_484)">
<rect width="28" height="20" fill="white"/>
<path d="M11 5L14 4L17 5V6H11V5Z" fill="#FFDA27"/>
<path d="M11.5 7.5H16.5V12C16.5 13.3807 15.3807 14.5 14 14.5C12.6193 14.5 11.5 13.3807 11.5 12V7.5Z" fill="#F63030" stroke="#50B500"/>
<mask id="mask0_31_484" style="mask-type:alpha" maskUnits="userSpaceOnUse" x="14" y="7" width="3" height="8">
<rect x="14" y="7" width="3" height="8" fill="#D9D9D9"/>
</mask>
<g mask="url(#mask0_31_484)">
<path d="M11.5 7.5H16.5V12C16.5 13.3807 15.3807 14.5 14 14.5C12.6193 14.5 11.5 13.3807 11.5 12V7.5Z" fill="#F63030" stroke="#7700FF"/>
</g>
</g>
<rect x="1.5" y="1.5" width="25" height="17" stroke="#0EA6FB" stroke-width="3"/>
<defs>
<clipPath id="clip0_31_484">
<rect width="28" height="20" fill="white"/>
</clipPath>
</defs>
</svg>
