<svg width="28" height="20" viewBox="0 0 28 20" fill="none" xmlns="http://www.w3.org/2000/svg">
<g clip-path="url(#clip0_27_727)">
<rect width="28" height="20" fill="#F63030"/>
<path fill-rule="evenodd" clip-rule="evenodd" d="M16 20H12V12H0V8H12V0H16V8H28V12H16V20Z" fill="white"/>
<rect y="6" width="11" height="1" fill="white"/>
<rect x="17" y="6" width="11" height="1" fill="white"/>
<rect x="17" y="7" width="7" height="1" transform="rotate(-90 17 7)" fill="white"/>
<rect x="17" y="20" width="7" height="1" transform="rotate(-90 17 20)" fill="white"/>
<rect x="10" y="7" width="7" height="1" transform="rotate(-90 10 7)" fill="white"/>
<rect x="10" y="20" width="7" height="1" transform="rotate(-90 10 20)" fill="white"/>
<rect y="13" width="11" height="1" fill="white"/>
<rect x="17" y="13" width="11" height="1" fill="white"/>
</g>
<defs>
<clipPath id="clip0_27_727">
<rect width="28" height="20" fill="white"/>
</clipPath>
</defs>
</svg>
