<svg width="28" height="20" viewBox="0 0 28 20" fill="none" xmlns="http://www.w3.org/2000/svg">
<g clip-path="url(#clip0_8_1056)">
<rect width="28" height="20" rx="2" fill="white"/>
<path fill-rule="evenodd" clip-rule="evenodd" d="M0 5.33333H28V0H0V5.33333Z" fill="#F63030"/>
<path fill-rule="evenodd" clip-rule="evenodd" d="M0 20H28V14.6666H0V20Z" fill="#7700FF"/>
<path fill-rule="evenodd" clip-rule="evenodd" d="M0 14.6667H28V5.33337H0V14.6667Z" fill="#FFDA27"/>
<path fill-rule="evenodd" clip-rule="evenodd" d="M7.33325 9.33333H8.66659V10H7.33325V9.33333Z" fill="#FFDA27"/>
<path fill-rule="evenodd" clip-rule="evenodd" d="M17.746 8.07581C18.1598 8.07581 18.4953 8.41124 18.4953 8.82503V11.7852C18.4953 12.199 18.1598 12.5345 17.746 12.5345C17.3323 12.5345 16.9968 12.199 16.9968 11.7852V8.82503C16.9968 8.41124 17.3323 8.07581 17.746 8.07581Z" fill="white"/>
<path fill-rule="evenodd" clip-rule="evenodd" d="M10.2541 8.07581C10.6679 8.07581 11.0033 8.41124 11.0033 8.82503V11.7852C11.0033 12.199 10.6679 12.5345 10.2541 12.5345C9.84032 12.5345 9.50488 12.199 9.50488 11.7852V8.82503C9.50488 8.41124 9.84032 8.07581 10.2541 8.07581Z" fill="white"/>
<path fill-rule="evenodd" clip-rule="evenodd" d="M12.427 7.33337H15.5737C15.9461 7.33337 16.248 7.63527 16.248 8.00768V11.0306C16.248 12.2719 15.2417 13.2782 14.0004 13.2782C12.759 13.2782 11.7527 12.2719 11.7527 11.0306V8.00768C11.7527 7.63527 12.0546 7.33337 12.427 7.33337Z" fill="#F63030"/>
</g>
<defs>
<clipPath id="clip0_8_1056">
<rect width="28" height="20" fill="white"/>
</clipPath>
</defs>
</svg>
