<svg width="28" height="20" viewBox="0 0 28 20" fill="none" xmlns="http://www.w3.org/2000/svg">
<g clip-path="url(#clip0_31_432)">
<rect width="28" height="20" fill="#50B500"/>
<path d="M11 4L14 3L17 4V5H11V4Z" fill="#FFDA27"/>
<rect x="7.04" y="11.6067" width="9.84326" height="9.84326" transform="rotate(-45 7.04 11.6067)" fill="#50B500" stroke="black" stroke-width="0.5"/>
<mask id="mask0_31_432" style="mask-type:alpha" maskUnits="userSpaceOnUse" x="7" y="5" width="14" height="14">
<rect x="7.39355" y="11.6067" width="9.34326" height="9.34326" transform="rotate(-45 7.39355 11.6067)" fill="#D9D9D9"/>
</mask>
<g mask="url(#mask0_31_432)">
<rect x="7.39355" y="11.6067" width="9.34326" height="9.34326" transform="rotate(-45 7.39355 11.6067)" fill="#50B500"/>
<rect x="7.39355" y="11.6067" width="13.2134" height="9.43813" fill="#F63030"/>
<rect x="19.1394" y="11.6067" width="1.46763" height="9.43813" fill="#FFDA27"/>
<rect x="7.39355" y="11.6067" width="1.46763" height="9.43813" fill="#FFDA27"/>
<rect x="10.3301" y="11.6067" width="1.46763" height="9.43813" fill="#FFDA27"/>
<rect x="13.2666" y="11.6067" width="1.46763" height="9.43813" fill="#FFDA27"/>
<rect x="13" y="7.60669" width="2" height="3" fill="#FFDA27"/>
<rect x="16" y="8.60669" width="1" height="2" fill="#FFDA27"/>
<rect x="11" y="8.60669" width="1" height="2" fill="#FFDA27"/>
<rect x="16.2031" y="11.6067" width="1.46763" height="9.43813" fill="#FFDA27"/>
</g>
</g>
<defs>
<clipPath id="clip0_31_432">
<rect width="28" height="20" fill="white"/>
</clipPath>
</defs>
</svg>
