<svg width="28" height="20" viewBox="0 0 28 20" fill="none" xmlns="http://www.w3.org/2000/svg">
<g clip-path="url(#clip0_8_929)">
<rect width="28" height="20" fill="#FFDA27"/>
<path d="M2.70752 1.3234C2.70752 0.84229 3.09754 0.452271 3.57865 0.452271C4.05977 0.452271 4.44978 0.84229 4.44978 1.3234V3.94712H2.70752V1.3234Z" fill="#F63030"/>
<path d="M2.70752 3.08048C2.70752 2.59937 3.09754 2.20935 3.57865 2.20935C4.05977 2.20935 4.44978 2.59937 4.44978 3.08048V4.41702H2.70752V3.08048Z" fill="#FFDA27"/>
<path d="M6.19214 3.95528C6.19214 4.4364 5.80212 4.82642 5.32101 4.82642C4.83989 4.82642 4.44987 4.4364 4.44987 3.95528V1.35454H6.19214V3.95528Z" fill="#F63030"/>
<path d="M4.45667 1.92538C4.45667 2.40649 4.84668 2.79651 5.3278 2.79651C5.80891 2.79651 6.19893 2.40649 6.19893 1.92538V1.237H4.45667V1.92538Z" fill="#FFDA27"/>
<path d="M-0.783936 1.3234C-0.783936 0.84229 -0.393916 0.452271 0.087197 0.452271C0.56831 0.452271 0.95833 0.84229 0.95833 1.3234V3.94712H-0.783936V1.3234Z" fill="#F63030"/>
<path d="M-0.783936 3.08048C-0.783936 2.59937 -0.393916 2.20935 0.087197 2.20935C0.56831 2.20935 0.95833 2.59937 0.95833 3.08048V4.41702H-0.783936V3.08048Z" fill="#FFDA27"/>
<path d="M2.70056 3.95528C2.70056 4.4364 2.31054 4.82642 1.82943 4.82642C1.34832 4.82642 0.958296 4.4364 0.958296 3.95528V1.35454H2.70056V3.95528Z" fill="#F63030"/>
<path d="M0.965088 1.92538C0.965088 2.40649 1.35511 2.79651 1.83622 2.79651C2.31733 2.79651 2.70735 2.40649 2.70735 1.92538V1.21396H0.965088V1.92538Z" fill="#FFDA27"/>
<path d="M6.19189 1.3234C6.19189 0.84229 6.58191 0.452271 7.06303 0.452271C7.54414 0.452271 7.93416 0.84229 7.93416 1.3234V3.94712H6.19189V1.3234Z" fill="#F63030"/>
<path d="M6.19189 3.08048C6.19189 2.59937 6.58191 2.20935 7.06303 2.20935C7.54414 2.20935 7.93416 2.59937 7.93416 3.08048V4.41702H6.19189V3.08048Z" fill="#FFDA27"/>
<path d="M9.67651 3.95528C9.67651 4.4364 9.28649 4.82642 8.80538 4.82642C8.32427 4.82642 7.93425 4.4364 7.93425 3.95528V1.35454H9.67651V3.95528Z" fill="#F63030"/>
<path d="M7.94104 1.92538C7.94104 2.40649 8.33106 2.79651 8.81217 2.79651C9.29329 2.79651 9.68331 2.40649 9.68331 1.92538V1.21396H7.94104V1.92538Z" fill="#FFDA27"/>
<path d="M9.68335 1.3234C9.68335 0.84229 10.0734 0.452271 10.5545 0.452271C11.0356 0.452271 11.4256 0.84229 11.4256 1.3234V3.94712H9.68335V1.3234Z" fill="#F63030"/>
<path d="M9.68335 3.08048C9.68335 2.59937 10.0734 2.20935 10.5545 2.20935C11.0356 2.20935 11.4256 2.59937 11.4256 3.08048V4.71099H9.68335V3.08048Z" fill="#FFDA27"/>
<path d="M13.168 3.95528C13.168 4.4364 12.7779 4.82642 12.2968 4.82642C11.8157 4.82642 11.4257 4.4364 11.4257 3.95528V1.35454H13.168V3.95528Z" fill="#F63030"/>
<path d="M11.4323 1.92538C11.4323 2.40649 11.8223 2.79651 12.3034 2.79651C12.7845 2.79651 13.1745 2.40649 13.1745 1.92538V1.21396H11.4323V1.92538Z" fill="#FFDA27"/>
<path d="M20.1504 1.3234C20.1504 0.84229 20.5404 0.452271 21.0215 0.452271C21.5026 0.452271 21.8927 0.84229 21.8927 1.3234V3.94712H20.1504V1.3234Z" fill="#F63030"/>
<path d="M20.1504 3.08048C20.1504 2.59937 20.5404 2.20935 21.0215 2.20935C21.5026 2.20935 21.8927 2.59937 21.8927 3.08048V4.41702H20.1504V3.08048Z" fill="#FFDA27"/>
<path d="M23.635 3.95528C23.635 4.4364 23.245 4.82642 22.7639 4.82642C22.2828 4.82642 21.8927 4.4364 21.8927 3.95528V1.35454H23.635V3.95528Z" fill="#F63030"/>
<path d="M21.8995 1.92538C21.8995 2.40649 22.2896 2.79651 22.7707 2.79651C23.2518 2.79651 23.6418 2.40649 23.6418 1.92538V1.237H21.8995V1.92538Z" fill="#FFDA27"/>
<path d="M16.6589 1.3234C16.6589 0.84229 17.049 0.452271 17.5301 0.452271C18.0112 0.452271 18.4012 0.84229 18.4012 1.3234V3.94712H16.6589V1.3234Z" fill="#F63030"/>
<path d="M16.6589 3.08048C16.6589 2.59937 17.049 2.20935 17.5301 2.20935C18.0112 2.20935 18.4012 2.59937 18.4012 3.08048V4.41702H16.6589V3.08048Z" fill="#FFDA27"/>
<path d="M20.1434 3.95528C20.1434 4.4364 19.7534 4.82642 19.2723 4.82642C18.7912 4.82642 18.4012 4.4364 18.4012 3.95528V1.35454H20.1434V3.95528Z" fill="#F63030"/>
<path d="M18.408 1.92538C18.408 2.40649 18.798 2.79651 19.2791 2.79651C19.7602 2.79651 20.1502 2.40649 20.1502 1.92538V1.21396H18.408V1.92538Z" fill="#FFDA27"/>
<path d="M23.6348 1.3234C23.6348 0.84229 24.0248 0.452271 24.5059 0.452271C24.987 0.452271 25.377 0.84229 25.377 1.3234V3.94712H23.6348V1.3234Z" fill="#F63030"/>
<path d="M23.6348 3.08048C23.6348 2.59937 24.0248 2.20935 24.5059 2.20935C24.987 2.20935 25.377 2.59937 25.377 3.08048V4.41702H23.6348V3.08048Z" fill="#FFDA27"/>
<path d="M27.1194 3.95528C27.1194 4.4364 26.7294 4.82642 26.2483 4.82642C25.7671 4.82642 25.3771 4.4364 25.3771 3.95528V1.35454H27.1194V3.95528Z" fill="#F63030"/>
<path d="M25.3839 1.92538C25.3839 2.40649 25.7739 2.79651 26.255 2.79651C26.7362 2.79651 27.1262 2.40649 27.1262 1.92538V1.21396H25.3839V1.92538Z" fill="#FFDA27"/>
<path d="M27.1262 1.3234C27.1262 0.84229 27.5162 0.452271 27.9974 0.452271C28.4785 0.452271 28.8685 0.84229 28.8685 1.3234V3.94712H27.1262V1.3234Z" fill="#F63030"/>
<path d="M27.1262 3.08048C27.1262 2.59937 27.5162 2.20935 27.9974 2.20935C28.4785 2.20935 28.8685 2.59937 28.8685 3.08048V4.71099H27.1262V3.08048Z" fill="#FFDA27"/>
<path d="M13.1746 1.3234C13.1746 0.84229 13.5646 0.452271 14.0457 0.452271C14.5268 0.452271 14.9168 0.84229 14.9168 1.3234V3.94712H13.1746V1.3234Z" fill="#F63030"/>
<path d="M13.1746 3.08048C13.1746 2.59937 13.5646 2.20935 14.0457 2.20935C14.5268 2.20935 14.9168 2.59937 14.9168 3.08048V3.94712H13.1746V3.08048Z" fill="#FFDA27"/>
<path d="M16.6591 3.95528C16.6591 4.4364 16.269 4.82642 15.7879 4.82642C15.3068 4.82642 14.9168 4.4364 14.9168 3.95528V1.35454H16.6591V3.95528Z" fill="#F63030"/>
<path d="M14.9237 1.92538C14.9237 2.40649 15.3137 2.79651 15.7948 2.79651C16.276 2.79651 16.666 2.40649 16.666 1.92538V1.35454H14.9237V1.92538Z" fill="#FFDA27"/>
<path d="M2.70752 11.1778C2.70752 10.6967 3.09754 10.3066 3.57865 10.3066C4.05977 10.3066 4.44978 10.6967 4.44978 11.1778V13.8015H2.70752V11.1778Z" fill="#F63030"/>
<path d="M2.70752 12.9349C2.70752 12.4537 3.09754 12.0637 3.57865 12.0637C4.05977 12.0637 4.44978 12.4537 4.44978 12.9349V14.2714H2.70752V12.9349Z" fill="#FFDA27"/>
<path d="M6.19214 13.8098C6.19214 14.2909 5.80212 14.6809 5.32101 14.6809C4.83989 14.6809 4.44987 14.2909 4.44987 13.8098V11.209H6.19214V13.8098Z" fill="#F63030"/>
<path d="M4.45667 11.7799C4.45667 12.261 4.84668 12.651 5.3278 12.651C5.80891 12.651 6.19893 12.261 6.19893 11.7799V11.0915H4.45667V11.7799Z" fill="#FFDA27"/>
<path d="M-0.783936 11.1778C-0.783936 10.6967 -0.393916 10.3066 0.087197 10.3066C0.56831 10.3066 0.95833 10.6967 0.95833 11.1778V13.8015H-0.783936V11.1778Z" fill="#F63030"/>
<path d="M-0.783936 12.9349C-0.783936 12.4537 -0.393916 12.0637 0.087197 12.0637C0.56831 12.0637 0.95833 12.4537 0.95833 12.9349V14.2714H-0.783936V12.9349Z" fill="#FFDA27"/>
<path d="M2.70056 13.8098C2.70056 14.2909 2.31054 14.6809 1.82943 14.6809C1.34832 14.6809 0.958296 14.2909 0.958296 13.8098V11.209H2.70056V13.8098Z" fill="#F63030"/>
<path d="M0.965088 11.7799C0.965088 12.261 1.35511 12.651 1.83622 12.651C2.31733 12.651 2.70735 12.261 2.70735 11.7799V11.0685H0.965088V11.7799Z" fill="#FFDA27"/>
<path d="M6.19189 11.1778C6.19189 10.6967 6.58191 10.3066 7.06303 10.3066C7.54414 10.3066 7.93416 10.6967 7.93416 11.1778V13.8015H6.19189V11.1778Z" fill="#F63030"/>
<path d="M6.19189 12.9349C6.19189 12.4537 6.58191 12.0637 7.06303 12.0637C7.54414 12.0637 7.93416 12.4537 7.93416 12.9349V14.2714H6.19189V12.9349Z" fill="#FFDA27"/>
<path d="M9.67651 13.8098C9.67651 14.2909 9.28649 14.6809 8.80538 14.6809C8.32427 14.6809 7.93425 14.2909 7.93425 13.8098V11.209H9.67651V13.8098Z" fill="#F63030"/>
<path d="M7.94104 11.7799C7.94104 12.261 8.33106 12.651 8.81217 12.651C9.29329 12.651 9.68331 12.261 9.68331 11.7799V11.0685H7.94104V11.7799Z" fill="#FFDA27"/>
<path d="M9.68335 11.1778C9.68335 10.6967 10.0734 10.3066 10.5545 10.3066C11.0356 10.3066 11.4256 10.6967 11.4256 11.1778V13.8015H9.68335V11.1778Z" fill="#F63030"/>
<path d="M9.68335 12.9349C9.68335 12.4537 10.0734 12.0637 10.5545 12.0637C11.0356 12.0637 11.4256 12.4537 11.4256 12.9349V14.5654H9.68335V12.9349Z" fill="#FFDA27"/>
<path d="M13.168 13.8098C13.168 14.2909 12.7779 14.6809 12.2968 14.6809C11.8157 14.6809 11.4257 14.2909 11.4257 13.8098V11.209H13.168V13.8098Z" fill="#F63030"/>
<path d="M11.4323 11.7799C11.4323 12.261 11.8223 12.651 12.3034 12.651C12.7845 12.651 13.1745 12.261 13.1745 11.7799V11.0685H11.4323V11.7799Z" fill="#FFDA27"/>
<path d="M20.1504 11.1778C20.1504 10.6967 20.5404 10.3066 21.0215 10.3066C21.5026 10.3066 21.8927 10.6967 21.8927 11.1778V13.8015H20.1504V11.1778Z" fill="#F63030"/>
<path d="M20.1504 12.9349C20.1504 12.4537 20.5404 12.0637 21.0215 12.0637C21.5026 12.0637 21.8927 12.4537 21.8927 12.9349V14.2714H20.1504V12.9349Z" fill="#FFDA27"/>
<path d="M23.635 13.8098C23.635 14.2909 23.245 14.6809 22.7639 14.6809C22.2828 14.6809 21.8927 14.2909 21.8927 13.8098V11.209H23.635V13.8098Z" fill="#F63030"/>
<path d="M21.8995 11.7799C21.8995 12.261 22.2896 12.651 22.7707 12.651C23.2518 12.651 23.6418 12.261 23.6418 11.7799V11.0915H21.8995V11.7799Z" fill="#FFDA27"/>
<path d="M16.6589 11.1778C16.6589 10.6967 17.049 10.3066 17.5301 10.3066C18.0112 10.3066 18.4012 10.6967 18.4012 11.1778V13.8015H16.6589V11.1778Z" fill="#F63030"/>
<path d="M16.6589 12.9349C16.6589 12.4537 17.049 12.0637 17.5301 12.0637C18.0112 12.0637 18.4012 12.4537 18.4012 12.9349V14.2714H16.6589V12.9349Z" fill="#FFDA27"/>
<path d="M20.1434 13.8098C20.1434 14.2909 19.7534 14.6809 19.2723 14.6809C18.7912 14.6809 18.4012 14.2909 18.4012 13.8098V11.209H20.1434V13.8098Z" fill="#F63030"/>
<path d="M18.408 11.7799C18.408 12.261 18.798 12.651 19.2791 12.651C19.7602 12.651 20.1502 12.261 20.1502 11.7799V11.0685H18.408V11.7799Z" fill="#FFDA27"/>
<path d="M23.6348 11.1778C23.6348 10.6967 24.0248 10.3066 24.5059 10.3066C24.987 10.3066 25.377 10.6967 25.377 11.1778V13.8015H23.6348V11.1778Z" fill="#F63030"/>
<path d="M23.6348 12.9349C23.6348 12.4537 24.0248 12.0637 24.5059 12.0637C24.987 12.0637 25.377 12.4537 25.377 12.9349V14.2714H23.6348V12.9349Z" fill="#FFDA27"/>
<path d="M27.1194 13.8098C27.1194 14.2909 26.7294 14.6809 26.2483 14.6809C25.7671 14.6809 25.3771 14.2909 25.3771 13.8098V11.209H27.1194V13.8098Z" fill="#F63030"/>
<path d="M25.3839 11.7799C25.3839 12.261 25.7739 12.651 26.255 12.651C26.7362 12.651 27.1262 12.261 27.1262 11.7799V11.0685H25.3839V11.7799Z" fill="#FFDA27"/>
<path d="M27.1262 11.1778C27.1262 10.6967 27.5162 10.3066 27.9974 10.3066C28.4785 10.3066 28.8685 10.6967 28.8685 11.1778V13.8015H27.1262V11.1778Z" fill="#F63030"/>
<path d="M27.1262 12.9349C27.1262 12.4537 27.5162 12.0637 27.9974 12.0637C28.4785 12.0637 28.8685 12.4537 28.8685 12.9349V14.5654H27.1262V12.9349Z" fill="#FFDA27"/>
<path d="M13.1746 11.1778C13.1746 10.6967 13.5646 10.3066 14.0457 10.3066C14.5268 10.3066 14.9168 10.6967 14.9168 11.1778V13.8015H13.1746V11.1778Z" fill="#F63030"/>
<path d="M13.1746 12.9349C13.1746 12.4537 13.5646 12.0637 14.0457 12.0637C14.5268 12.0637 14.9168 12.4537 14.9168 12.9349V13.8015H13.1746V12.9349Z" fill="#FFDA27"/>
<path d="M16.6591 13.8098C16.6591 14.2909 16.269 14.6809 15.7879 14.6809C15.3068 14.6809 14.9168 14.2909 14.9168 13.8098V11.209H16.6591V13.8098Z" fill="#F63030"/>
<path d="M14.9237 11.7799C14.9237 12.261 15.3137 12.651 15.7948 12.651C16.276 12.651 16.666 12.261 16.666 11.7799V11.209H14.9237V11.7799Z" fill="#FFDA27"/>
<path d="M2.70752 6.25053C2.70752 5.76941 3.09754 5.37939 3.57865 5.37939C4.05977 5.37939 4.44978 5.76941 4.44978 6.25053V8.87424H2.70752V6.25053Z" fill="#F63030"/>
<path d="M2.70752 8.00761C2.70752 7.52649 3.09754 7.13647 3.57865 7.13647C4.05977 7.13647 4.44978 7.52649 4.44978 8.00761V9.34414H2.70752V8.00761Z" fill="#FFDA27"/>
<path d="M6.19214 8.88241C6.19214 9.36352 5.80212 9.75354 5.32101 9.75354C4.83989 9.75354 4.44987 9.36352 4.44987 8.88241V6.28166H6.19214V8.88241Z" fill="#F63030"/>
<path d="M4.45667 6.85262C4.45667 7.33374 4.84668 7.72375 5.3278 7.72375C5.80891 7.72375 6.19893 7.33374 6.19893 6.85262V6.16425H4.45667V6.85262Z" fill="#FFDA27"/>
<path d="M-0.783936 6.25053C-0.783936 5.76941 -0.393916 5.37939 0.087197 5.37939C0.56831 5.37939 0.95833 5.76941 0.95833 6.25053V8.87424H-0.783936V6.25053Z" fill="#F63030"/>
<path d="M-0.783936 8.00761C-0.783936 7.52649 -0.393916 7.13647 0.087197 7.13647C0.56831 7.13647 0.95833 7.52649 0.95833 8.00761V9.34414H-0.783936V8.00761Z" fill="#FFDA27"/>
<path d="M2.70056 8.88241C2.70056 9.36352 2.31054 9.75354 1.82943 9.75354C1.34832 9.75354 0.958296 9.36352 0.958296 8.88241V6.28166H2.70056V8.88241Z" fill="#F63030"/>
<path d="M0.965088 6.85262C0.965088 7.33374 1.35511 7.72375 1.83622 7.72375C2.31733 7.72375 2.70735 7.33374 2.70735 6.85262V6.14121H0.965088V6.85262Z" fill="#FFDA27"/>
<path d="M6.19189 6.25053C6.19189 5.76941 6.58191 5.37939 7.06303 5.37939C7.54414 5.37939 7.93416 5.76941 7.93416 6.25053V8.87424H6.19189V6.25053Z" fill="#F63030"/>
<path d="M6.19189 8.00761C6.19189 7.52649 6.58191 7.13647 7.06303 7.13647C7.54414 7.13647 7.93416 7.52649 7.93416 8.00761V9.34414H6.19189V8.00761Z" fill="#FFDA27"/>
<path d="M9.67651 8.88241C9.67651 9.36352 9.28649 9.75354 8.80538 9.75354C8.32427 9.75354 7.93425 9.36352 7.93425 8.88241V6.28166H9.67651V8.88241Z" fill="#F63030"/>
<path d="M7.94104 6.85262C7.94104 7.33374 8.33106 7.72375 8.81217 7.72375C9.29329 7.72375 9.68331 7.33374 9.68331 6.85262V6.1412H7.94104V6.85262Z" fill="#FFDA27"/>
<path d="M9.68335 6.25053C9.68335 5.76941 10.0734 5.37939 10.5545 5.37939C11.0356 5.37939 11.4256 5.76941 11.4256 6.25053V8.87424H9.68335V6.25053Z" fill="#F63030"/>
<path d="M9.68335 8.00761C9.68335 7.52649 10.0734 7.13647 10.5545 7.13647C11.0356 7.13647 11.4256 7.52649 11.4256 8.00761V9.63812H9.68335V8.00761Z" fill="#FFDA27"/>
<path d="M13.168 8.88241C13.168 9.36352 12.7779 9.75354 12.2968 9.75354C11.8157 9.75354 11.4257 9.36352 11.4257 8.88241V6.28166H13.168V8.88241Z" fill="#F63030"/>
<path d="M11.4323 6.85262C11.4323 7.33374 11.8223 7.72375 12.3034 7.72375C12.7845 7.72375 13.1745 7.33374 13.1745 6.85262V6.1412H11.4323V6.85262Z" fill="#FFDA27"/>
<path d="M20.1504 6.25053C20.1504 5.76941 20.5404 5.37939 21.0215 5.37939C21.5026 5.37939 21.8927 5.76941 21.8927 6.25053V8.87424H20.1504V6.25053Z" fill="#F63030"/>
<path d="M20.1504 8.00761C20.1504 7.52649 20.5404 7.13647 21.0215 7.13647C21.5026 7.13647 21.8927 7.52649 21.8927 8.00761V9.34414H20.1504V8.00761Z" fill="#FFDA27"/>
<path d="M23.635 8.88241C23.635 9.36352 23.245 9.75354 22.7639 9.75354C22.2828 9.75354 21.8927 9.36352 21.8927 8.88241V6.28166H23.635V8.88241Z" fill="#F63030"/>
<path d="M21.8995 6.85262C21.8995 7.33374 22.2896 7.72375 22.7707 7.72375C23.2518 7.72375 23.6418 7.33374 23.6418 6.85262V6.16425H21.8995V6.85262Z" fill="#FFDA27"/>
<path d="M16.6589 6.25053C16.6589 5.76941 17.049 5.37939 17.5301 5.37939C18.0112 5.37939 18.4012 5.76941 18.4012 6.25053V8.87424H16.6589V6.25053Z" fill="#F63030"/>
<path d="M16.6589 8.00761C16.6589 7.52649 17.049 7.13647 17.5301 7.13647C18.0112 7.13647 18.4012 7.52649 18.4012 8.00761V9.34414H16.6589V8.00761Z" fill="#FFDA27"/>
<path d="M20.1434 8.88241C20.1434 9.36352 19.7534 9.75354 19.2723 9.75354C18.7912 9.75354 18.4012 9.36352 18.4012 8.88241V6.28166H20.1434V8.88241Z" fill="#F63030"/>
<path d="M18.408 6.85262C18.408 7.33374 18.798 7.72375 19.2791 7.72375C19.7602 7.72375 20.1502 7.33374 20.1502 6.85262V6.14121H18.408V6.85262Z" fill="#FFDA27"/>
<path d="M23.6348 6.25053C23.6348 5.76941 24.0248 5.37939 24.5059 5.37939C24.987 5.37939 25.377 5.76941 25.377 6.25053V8.87424H23.6348V6.25053Z" fill="#F63030"/>
<path d="M23.6348 8.00761C23.6348 7.52649 24.0248 7.13647 24.5059 7.13647C24.987 7.13647 25.377 7.52649 25.377 8.00761V9.34414H23.6348V8.00761Z" fill="#FFDA27"/>
<path d="M27.1194 8.88241C27.1194 9.36352 26.7294 9.75354 26.2483 9.75354C25.7671 9.75354 25.3771 9.36352 25.3771 8.88241V6.28166H27.1194V8.88241Z" fill="#F63030"/>
<path d="M25.3839 6.85262C25.3839 7.33374 25.7739 7.72375 26.255 7.72375C26.7362 7.72375 27.1262 7.33374 27.1262 6.85262V6.1412H25.3839V6.85262Z" fill="#FFDA27"/>
<path d="M27.1262 6.25053C27.1262 5.76941 27.5162 5.37939 27.9974 5.37939C28.4785 5.37939 28.8685 5.76941 28.8685 6.25053V8.87424H27.1262V6.25053Z" fill="#F63030"/>
<path d="M27.1262 8.00761C27.1262 7.52649 27.5162 7.13647 27.9974 7.13647C28.4785 7.13647 28.8685 7.52649 28.8685 8.00761V9.63812H27.1262V8.00761Z" fill="#FFDA27"/>
<path d="M13.1746 6.25053C13.1746 5.76941 13.5646 5.37939 14.0457 5.37939C14.5268 5.37939 14.9168 5.76941 14.9168 6.25053V8.87424H13.1746V6.25053Z" fill="#F63030"/>
<path d="M13.1746 8.00761C13.1746 7.52649 13.5646 7.13647 14.0457 7.13647C14.5268 7.13647 14.9168 7.52649 14.9168 8.00761V8.87425H13.1746V8.00761Z" fill="#FFDA27"/>
<path d="M16.6591 8.88241C16.6591 9.36352 16.269 9.75354 15.7879 9.75354C15.3068 9.75354 14.9168 9.36352 14.9168 8.88241V6.28166H16.6591V8.88241Z" fill="#F63030"/>
<path d="M14.9237 6.85262C14.9237 7.33374 15.3137 7.72375 15.7948 7.72375C16.276 7.72375 16.666 7.33374 16.666 6.85262V6.28179H14.9237V6.85262Z" fill="#FFDA27"/>
<path d="M2.70752 16.1049C2.70752 15.6238 3.09754 15.2338 3.57865 15.2338C4.05977 15.2338 4.44978 15.6238 4.44978 16.1049V18.7286H2.70752V16.1049Z" fill="#F63030"/>
<path d="M2.70752 17.862C2.70752 17.3809 3.09754 16.9908 3.57865 16.9908C4.05977 16.9908 4.44978 17.3809 4.44978 17.862V19.1985H2.70752V17.862Z" fill="#FFDA27"/>
<path d="M6.19214 18.7369C6.19214 19.218 5.80212 19.608 5.32101 19.608C4.83989 19.608 4.44987 19.218 4.44987 18.7369V16.1362H6.19214V18.7369Z" fill="#F63030"/>
<path d="M4.45667 16.707C4.45667 17.1881 4.84668 17.5781 5.3278 17.5781C5.80891 17.5781 6.19893 17.1881 6.19893 16.707V16.0186H4.45667V16.707Z" fill="#FFDA27"/>
<path d="M-0.783936 16.1049C-0.783936 15.6238 -0.393916 15.2338 0.087197 15.2338C0.56831 15.2338 0.95833 15.6238 0.95833 16.1049V18.7286H-0.783936V16.1049Z" fill="#F63030"/>
<path d="M-0.783936 17.862C-0.783936 17.3809 -0.393916 16.9908 0.087197 16.9908C0.56831 16.9908 0.95833 17.3809 0.95833 17.862V19.1985H-0.783936V17.862Z" fill="#FFDA27"/>
<path d="M2.70056 18.7369C2.70056 19.218 2.31054 19.608 1.82943 19.608C1.34832 19.608 0.958296 19.218 0.958296 18.7369V16.1362H2.70056V18.7369Z" fill="#F63030"/>
<path d="M0.965088 16.707C0.965088 17.1881 1.35511 17.5781 1.83622 17.5781C2.31733 17.5781 2.70735 17.1881 2.70735 16.707V15.9956H0.965088V16.707Z" fill="#FFDA27"/>
<path d="M6.19189 16.1049C6.19189 15.6238 6.58191 15.2338 7.06303 15.2338C7.54414 15.2338 7.93416 15.6238 7.93416 16.1049V18.7286H6.19189V16.1049Z" fill="#F63030"/>
<path d="M6.19189 17.862C6.19189 17.3809 6.58191 16.9908 7.06303 16.9908C7.54414 16.9908 7.93416 17.3809 7.93416 17.862V19.1985H6.19189V17.862Z" fill="#FFDA27"/>
<path d="M9.67651 18.7369C9.67651 19.218 9.28649 19.608 8.80538 19.608C8.32427 19.608 7.93425 19.218 7.93425 18.7369V16.1362H9.67651V18.7369Z" fill="#F63030"/>
<path d="M7.94104 16.707C7.94104 17.1881 8.33106 17.5781 8.81217 17.5781C9.29329 17.5781 9.68331 17.1881 9.68331 16.707V15.9956H7.94104V16.707Z" fill="#FFDA27"/>
<path d="M9.68335 16.1049C9.68335 15.6238 10.0734 15.2338 10.5545 15.2338C11.0356 15.2338 11.4256 15.6238 11.4256 16.1049V18.7286H9.68335V16.1049Z" fill="#F63030"/>
<path d="M9.68335 17.862C9.68335 17.3809 10.0734 16.9908 10.5545 16.9908C11.0356 16.9908 11.4256 17.3809 11.4256 17.862V19.4925H9.68335V17.862Z" fill="#FFDA27"/>
<path d="M13.168 18.7369C13.168 19.218 12.7779 19.608 12.2968 19.608C11.8157 19.608 11.4257 19.218 11.4257 18.7369V16.1362H13.168V18.7369Z" fill="#F63030"/>
<path d="M11.4323 16.707C11.4323 17.1881 11.8223 17.5781 12.3034 17.5781C12.7845 17.5781 13.1745 17.1881 13.1745 16.707V15.9956H11.4323V16.707Z" fill="#FFDA27"/>
<path d="M20.1504 16.1049C20.1504 15.6238 20.5404 15.2338 21.0215 15.2338C21.5026 15.2338 21.8927 15.6238 21.8927 16.1049V18.7286H20.1504V16.1049Z" fill="#F63030"/>
<path d="M20.1504 17.862C20.1504 17.3809 20.5404 16.9908 21.0215 16.9908C21.5026 16.9908 21.8927 17.3809 21.8927 17.862V19.1985H20.1504V17.862Z" fill="#FFDA27"/>
<path d="M23.635 18.7369C23.635 19.218 23.245 19.608 22.7639 19.608C22.2828 19.608 21.8927 19.218 21.8927 18.7369V16.1362H23.635V18.7369Z" fill="#F63030"/>
<path d="M21.8995 16.707C21.8995 17.1881 22.2896 17.5781 22.7707 17.5781C23.2518 17.5781 23.6418 17.1881 23.6418 16.707V16.0186H21.8995V16.707Z" fill="#FFDA27"/>
<path d="M16.6589 16.1049C16.6589 15.6238 17.049 15.2338 17.5301 15.2338C18.0112 15.2338 18.4012 15.6238 18.4012 16.1049V18.7286H16.6589V16.1049Z" fill="#F63030"/>
<path d="M16.6589 17.862C16.6589 17.3809 17.049 16.9908 17.5301 16.9908C18.0112 16.9908 18.4012 17.3809 18.4012 17.862V19.1985H16.6589V17.862Z" fill="#FFDA27"/>
<path d="M20.1434 18.7369C20.1434 19.218 19.7534 19.608 19.2723 19.608C18.7912 19.608 18.4012 19.218 18.4012 18.7369V16.1362H20.1434V18.7369Z" fill="#F63030"/>
<path d="M18.408 16.707C18.408 17.1881 18.798 17.5781 19.2791 17.5781C19.7602 17.5781 20.1502 17.1881 20.1502 16.707V15.9956H18.408V16.707Z" fill="#FFDA27"/>
<path d="M23.6348 16.1049C23.6348 15.6238 24.0248 15.2338 24.5059 15.2338C24.987 15.2338 25.377 15.6238 25.377 16.1049V18.7286H23.6348V16.1049Z" fill="#F63030"/>
<path d="M23.6348 17.862C23.6348 17.3809 24.0248 16.9908 24.5059 16.9908C24.987 16.9908 25.377 17.3809 25.377 17.862V19.1985H23.6348V17.862Z" fill="#FFDA27"/>
<path d="M27.1194 18.7369C27.1194 19.218 26.7294 19.608 26.2483 19.608C25.7671 19.608 25.3771 19.218 25.3771 18.7369V16.1362H27.1194V18.7369Z" fill="#F63030"/>
<path d="M25.3839 16.707C25.3839 17.1881 25.7739 17.5781 26.255 17.5781C26.7362 17.5781 27.1262 17.1881 27.1262 16.707V15.9956H25.3839V16.707Z" fill="#FFDA27"/>
<path d="M27.1262 16.1049C27.1262 15.6238 27.5162 15.2338 27.9974 15.2338C28.4785 15.2338 28.8685 15.6238 28.8685 16.1049V18.7286H27.1262V16.1049Z" fill="#F63030"/>
<path d="M27.1262 17.862C27.1262 17.3809 27.5162 16.9908 27.9974 16.9908C28.4785 16.9908 28.8685 17.3809 28.8685 17.862V19.4925H27.1262V17.862Z" fill="#FFDA27"/>
<path d="M13.1746 16.1049C13.1746 15.6238 13.5646 15.2338 14.0457 15.2338C14.5268 15.2338 14.9168 15.6238 14.9168 16.1049V18.7286H13.1746V16.1049Z" fill="#F63030"/>
<path d="M13.1746 17.862C13.1746 17.3809 13.5646 16.9908 14.0457 16.9908C14.5268 16.9908 14.9168 17.3809 14.9168 17.862V18.7286H13.1746V17.862Z" fill="#FFDA27"/>
<path d="M16.6591 18.7369C16.6591 19.218 16.269 19.608 15.7879 19.608C15.3068 19.608 14.9168 19.218 14.9168 18.7369V16.1362H16.6591V18.7369Z" fill="#F63030"/>
<path d="M14.9237 16.707C14.9237 17.1881 15.3137 17.5781 15.7948 17.5781C16.276 17.5781 16.666 17.1881 16.666 16.707V16.1362H14.9237V16.707Z" fill="#FFDA27"/>
</g>
<defs>
<clipPath id="clip0_8_929">
<rect width="28" height="20" fill="white"/>
</clipPath>
</defs>
</svg>
