<svg width="28" height="20" viewBox="0 0 28 20" fill="none" xmlns="http://www.w3.org/2000/svg">
<g clip-path="url(#clip0_7_359)">
<rect width="28" height="20" fill="#FFDA27"/>
<path fill-rule="evenodd" clip-rule="evenodd" d="M0 8.86663H28V6.66663H0V8.86663Z" fill="#F63030"/>
<path fill-rule="evenodd" clip-rule="evenodd" d="M0 13.3333H28V11.1333H0V13.3333Z" fill="#F63030"/>
<path fill-rule="evenodd" clip-rule="evenodd" d="M0 17.8001H28V15.6001H0V17.8001Z" fill="#F63030"/>
<path fill-rule="evenodd" clip-rule="evenodd" d="M0 4.39995H28V2.19995H0V4.39995Z" fill="#F63030"/>
<path d="M-4.9543e-05 -1.66128L-1.10005 -1.66128L-1.10005 -0.56128L-1.10005 20.5614L-1.10005 21.6614L-5.05624e-05 21.6614L7.04614 21.6614L8.14614 21.6614L8.14614 20.5614L8.14614 -0.561279L8.14614 -1.66128L7.04614 -1.66128L-4.9543e-05 -1.66128Z" fill="#0EA6FB" stroke="#F63030" stroke-width="2.2"/>
<path d="M4.73657 10.9559L4.30064 11.1851C4.1678 11.2549 4.00349 11.2039 3.93365 11.071C3.90584 11.0181 3.89625 10.9575 3.90635 10.8986L3.98961 10.4132C3.99576 10.3773 3.98387 10.3407 3.95781 10.3153L3.60514 9.97158C3.49766 9.86682 3.49547 9.69477 3.60022 9.5873C3.64194 9.5445 3.6966 9.51665 3.75574 9.50806L4.24313 9.43723C4.27913 9.432 4.31026 9.40939 4.32637 9.37676L4.54433 8.93511C4.61075 8.80053 4.7737 8.74527 4.90829 8.81169C4.96188 8.83814 5.00526 8.88152 5.03171 8.93511L5.24967 9.37676C5.26577 9.40939 5.2969 9.432 5.33291 9.43723L5.82029 9.50806C5.96882 9.52964 6.07172 9.66753 6.05014 9.81606C6.04155 9.8752 6.0137 9.92986 5.9709 9.97158L5.61823 10.3153C5.59217 10.3407 5.58028 10.3773 5.58643 10.4132L5.66969 10.8986C5.69506 11.0465 5.59571 11.187 5.44779 11.2124C5.38888 11.2225 5.32829 11.2129 5.27539 11.1851L4.83946 10.9559C4.80726 10.939 4.76878 10.939 4.73657 10.9559Z" fill="#FFDA27"/>
<path d="M4.73657 7.5477L4.30064 7.77688C4.1678 7.84672 4.00349 7.79565 3.93365 7.66281C3.90584 7.60991 3.89625 7.54932 3.90635 7.49041L3.98961 7.005C3.99576 6.96914 3.98387 6.93254 3.95781 6.90714L3.60514 6.56337C3.49766 6.45861 3.49547 6.28656 3.60022 6.17909C3.64194 6.1363 3.6966 6.10845 3.75574 6.09985L4.24313 6.02903C4.27913 6.0238 4.31026 6.00118 4.32637 5.96855L4.54433 5.52691C4.61075 5.39232 4.7737 5.33707 4.90829 5.40349C4.96188 5.42994 5.00526 5.47332 5.03171 5.52691L5.24967 5.96855C5.26577 6.00118 5.2969 6.0238 5.33291 6.02903L5.82029 6.09985C5.96882 6.12143 6.07172 6.25933 6.05014 6.40785C6.04155 6.467 6.0137 6.52166 5.9709 6.56337L5.61823 6.90714C5.59217 6.93254 5.58028 6.96914 5.58643 7.005L5.66969 7.49041C5.69506 7.63834 5.59571 7.77882 5.44779 7.80419C5.38888 7.81429 5.32829 7.8047 5.27539 7.77688L4.83946 7.5477C4.80726 7.53077 4.76878 7.53077 4.73657 7.5477Z" fill="#FFDA27"/>
<path d="M4.73657 4.1395L4.30064 4.36868C4.1678 4.43852 4.00349 4.38745 3.93365 4.2546C3.90584 4.2017 3.89625 4.14111 3.90635 4.08221L3.98961 3.5968C3.99576 3.56093 3.98387 3.52434 3.95781 3.49894L3.60514 3.15517C3.49766 3.05041 3.49547 2.87836 3.60022 2.77089C3.64194 2.72809 3.6966 2.70024 3.75574 2.69165L4.24313 2.62083C4.27913 2.6156 4.31026 2.59298 4.32637 2.56035L4.54433 2.11871C4.61075 1.98412 4.7737 1.92886 4.90829 1.99529C4.96188 2.02173 5.00526 2.06511 5.03171 2.11871L5.24967 2.56035C5.26577 2.59298 5.2969 2.6156 5.33291 2.62083L5.82029 2.69165C5.96882 2.71323 6.07172 2.85113 6.05014 2.99965C6.04155 3.05879 6.0137 3.11345 5.9709 3.15517L5.61823 3.49894C5.59217 3.52434 5.58028 3.56093 5.58643 3.5968L5.66969 4.08221C5.69506 4.23013 5.59571 4.37062 5.44779 4.39599C5.38888 4.40609 5.32829 4.39649 5.27539 4.36868L4.83946 4.1395C4.80726 4.12257 4.76878 4.12257 4.73657 4.1395Z" fill="#FFDA27"/>
<path d="M4.73657 17.7724L4.30064 18.0016C4.1678 18.0715 4.00349 18.0204 3.93365 17.8875C3.90584 17.8346 3.89625 17.774 3.90635 17.7151L3.98961 17.2297C3.99576 17.1939 3.98387 17.1573 3.95781 17.1319L3.60514 16.7881C3.49766 16.6833 3.49547 16.5113 3.60022 16.4038C3.64194 16.361 3.6966 16.3332 3.75574 16.3246L4.24313 16.2538C4.27913 16.2485 4.31026 16.2259 4.32637 16.1933L4.54433 15.7516C4.61075 15.6171 4.7737 15.5618 4.90829 15.6282C4.96188 15.6547 5.00526 15.698 5.03171 15.7516L5.24967 16.1933C5.26577 16.2259 5.2969 16.2485 5.33291 16.2538L5.82029 16.3246C5.96882 16.3462 6.07172 16.4841 6.05014 16.6326C6.04155 16.6917 6.0137 16.7464 5.9709 16.7881L5.61823 17.1319C5.59217 17.1573 5.58028 17.1939 5.58643 17.2297L5.66969 17.7151C5.69506 17.8631 5.59571 18.0035 5.44779 18.0289C5.38888 18.039 5.32829 18.0294 5.27539 18.0016L4.83946 17.7724C4.80726 17.7555 4.76878 17.7555 4.73657 17.7724Z" fill="#FFDA27"/>
<path d="M4.73657 14.3641L4.30064 14.5933C4.1678 14.6631 4.00349 14.6121 3.93365 14.4792C3.90584 14.4263 3.89625 14.3657 3.90635 14.3068L3.98961 13.8214C3.99576 13.7855 3.98387 13.7489 3.95781 13.7235L3.60514 13.3798C3.49766 13.275 3.49547 13.103 3.60022 12.9955C3.64194 12.9527 3.6966 12.9249 3.75574 12.9163L4.24313 12.8454C4.27913 12.8402 4.31026 12.8176 4.32637 12.785L4.54433 12.3433C4.61075 12.2087 4.7737 12.1535 4.90829 12.2199C4.96188 12.2463 5.00526 12.2897 5.03171 12.3433L5.24967 12.785C5.26577 12.8176 5.2969 12.8402 5.33291 12.8454L5.82029 12.9163C5.96882 12.9378 6.07172 13.0757 6.05014 13.2243C6.04155 13.2834 6.0137 13.3381 5.9709 13.3798L5.61823 13.7235C5.59217 13.7489 5.58028 13.7855 5.58643 13.8214L5.66969 14.3068C5.69506 14.4547 5.59571 14.5952 5.44779 14.6206C5.38888 14.6307 5.32829 14.6211 5.27539 14.5933L4.83946 14.3641C4.80726 14.3472 4.76878 14.3472 4.73657 14.3641Z" fill="#FFDA27"/>
</g>
<defs>
<clipPath id="clip0_7_359">
<rect width="28" height="20" fill="white"/>
</clipPath>
</defs>
</svg>
