<svg width="28" height="20" viewBox="0 0 28 20" fill="none" xmlns="http://www.w3.org/2000/svg">
<g clip-path="url(#clip0_31_570)">
<rect width="28" height="20" fill="#0EA6FB"/>
<path fill-rule="evenodd" clip-rule="evenodd" d="M0 8.86663H28V6.66663H0V8.86663Z" fill="#F63030"/>
<path fill-rule="evenodd" clip-rule="evenodd" d="M0 13.3333H28V11.1333H0V13.3333Z" fill="#F63030"/>
<path fill-rule="evenodd" clip-rule="evenodd" d="M0 17.8001H28V15.6001H0V17.8001Z" fill="#F63030"/>
<path fill-rule="evenodd" clip-rule="evenodd" d="M0 4.39995H28V2.19995H0V4.39995Z" fill="#F63030"/>
<mask id="mask0_31_570" style="mask-type:alpha" maskUnits="userSpaceOnUse" x="9" y="4" width="10" height="12">
<path d="M9.37477 4.56519H10.1445C10.2474 4.56519 10.3496 4.58178 10.4472 4.61432L11.3547 4.91682C11.5696 4.98842 11.8028 4.98157 12.0131 4.89747L12.4882 4.70741C12.7165 4.61611 12.9711 4.61611 13.1993 4.70741L13.6445 4.88549C13.8728 4.97679 14.1274 4.97679 14.3557 4.88549L14.8009 4.70741C15.0291 4.61611 15.2838 4.61611 15.512 4.70741L15.9871 4.89747C16.1974 4.98157 16.4307 4.98843 16.6455 4.91682L17.553 4.61432C17.6506 4.58178 17.7528 4.56519 17.8557 4.56519H18.6254L18.2693 5.54446C17.9029 6.55211 17.9205 7.65942 18.3187 8.65494L18.6254 9.42179L18.9022 9.97531C19.0131 10.1972 18.9697 10.4652 18.7942 10.6406C18.6862 10.7487 18.6254 10.8953 18.6254 11.0481V11.8137C18.6254 13.0816 17.6647 14.1432 16.4031 14.2694C16.3434 14.2753 16.2852 14.2922 16.2315 14.319L14.4283 15.2206C14.1587 15.3554 13.8415 15.3554 13.5719 15.2206L11.7687 14.319C11.715 14.2922 11.6568 14.2753 11.5971 14.2694C10.3355 14.1432 9.37477 13.0816 9.37477 11.8138V11.0481C9.37477 10.8953 9.31404 10.7487 9.20596 10.6406C9.03055 10.4652 8.98706 10.1972 9.098 9.97531L9.37477 9.42179L9.68151 8.65494C10.0797 7.65942 10.0973 6.55211 9.73087 5.54446L9.37477 4.56519Z" fill="#FFDA27"/>
<path d="M9.37477 4.56519H10.1445C10.2474 4.56519 10.3496 4.58178 10.4472 4.61432L11.3547 4.91682C11.5696 4.98842 11.8028 4.98157 12.0131 4.89747L12.4882 4.70741C12.7165 4.61611 12.9711 4.61611 13.1993 4.70741L13.6445 4.88549C13.8728 4.97679 14.1274 4.97679 14.3557 4.88549L14.8009 4.70741C15.0291 4.61611 15.2838 4.61611 15.512 4.70741L15.9871 4.89747C16.1974 4.98157 16.4307 4.98843 16.6455 4.91682L17.553 4.61432C17.6506 4.58178 17.7528 4.56519 17.8557 4.56519H18.6254L18.2693 5.54446C17.9029 6.55211 17.9205 7.65942 18.3187 8.65494L18.6254 9.42179L18.9022 9.97531C19.0131 10.1972 18.9697 10.4652 18.7942 10.6406C18.6862 10.7487 18.6254 10.8953 18.6254 11.0481V11.8137C18.6254 13.0816 17.6647 14.1432 16.4031 14.2694C16.3434 14.2753 16.2852 14.2922 16.2315 14.319L14.4283 15.2206C14.1587 15.3554 13.8415 15.3554 13.5719 15.2206L11.7687 14.319C11.715 14.2922 11.6568 14.2753 11.5971 14.2694C10.3355 14.1432 9.37477 13.0816 9.37477 11.8138V11.0481C9.37477 10.8953 9.31404 10.7487 9.20596 10.6406C9.03055 10.4652 8.98706 10.1972 9.098 9.97531L9.37477 9.42179L9.68151 8.65494C10.0797 7.65942 10.0973 6.55211 9.73087 5.54446L9.37477 4.56519Z" stroke="#4C4C4C"/>
</mask>
<g mask="url(#mask0_31_570)">
<path d="M9.37787 4.56885H10.147C10.2499 4.56885 10.3521 4.58544 10.4497 4.61798L11.3563 4.92017C11.5711 4.99178 11.8044 4.98492 12.0146 4.90082L12.489 4.71108C12.7172 4.61977 12.9719 4.61977 13.2001 4.71108L13.6445 4.88884C13.8728 4.98014 14.1274 4.98014 14.3557 4.88884L14.8001 4.71108C15.0283 4.61977 15.283 4.61977 15.5112 4.71108L15.9856 4.90082C16.1958 4.98492 16.4291 4.99178 16.6439 4.92017L17.5505 4.61798C17.6481 4.58544 17.7503 4.56885 17.8532 4.56885H18.6223L18.2669 5.54641C17.9004 6.55406 17.918 7.66138 18.3162 8.65689L18.6223 9.42219L18.8989 9.97534C19.0098 10.1971 18.9663 10.4649 18.791 10.6402C18.683 10.7482 18.6223 10.8947 18.6223 11.0474V11.8125C18.6223 13.0796 17.6623 14.1404 16.4015 14.2665C16.3418 14.2725 16.2837 14.2893 16.23 14.3161L14.4283 15.217C14.1587 15.3518 13.8415 15.3518 13.5719 15.217L11.7702 14.3161C11.7165 14.2893 11.6584 14.2725 11.5987 14.2665C10.3379 14.1404 9.37787 13.0796 9.37787 11.8125V11.0474C9.37787 10.8947 9.31719 10.7482 9.20918 10.6402C9.03389 10.4649 8.99043 10.1971 9.1013 9.97534L9.37787 9.42219L9.68399 8.65689C10.0822 7.66138 10.0998 6.55406 9.73335 5.54641L9.37787 4.56885Z" fill="#FFDA27"/>
<path d="M9.37787 4.56885H10.147C10.2499 4.56885 10.3521 4.58544 10.4497 4.61798L11.3563 4.92017C11.5711 4.99178 11.8044 4.98492 12.0146 4.90082L12.489 4.71108C12.7172 4.61977 12.9719 4.61977 13.2001 4.71108L13.6445 4.88884C13.8728 4.98014 14.1274 4.98014 14.3557 4.88884L14.8001 4.71108C15.0283 4.61977 15.283 4.61977 15.5112 4.71108L15.9856 4.90082C16.1958 4.98492 16.4291 4.99178 16.6439 4.92017L17.5505 4.61798C17.6481 4.58544 17.7503 4.56885 17.8532 4.56885H18.6223L18.2669 5.54641C17.9004 6.55406 17.918 7.66138 18.3162 8.65689L18.6223 9.42219L18.8989 9.97534C19.0098 10.1971 18.9663 10.4649 18.791 10.6402C18.683 10.7482 18.6223 10.8947 18.6223 11.0474V11.8125C18.6223 13.0796 17.6623 14.1404 16.4015 14.2665C16.3418 14.2725 16.2837 14.2893 16.23 14.3161L14.4283 15.217C14.1587 15.3518 13.8415 15.3518 13.5719 15.217L11.7702 14.3161C11.7165 14.2893 11.6584 14.2725 11.5987 14.2665C10.3379 14.1404 9.37787 13.0796 9.37787 11.8125V11.0474C9.37787 10.8947 9.31719 10.7482 9.20918 10.6402C9.03389 10.4649 8.99043 10.1971 9.1013 9.97534L9.37787 9.42219L9.68399 8.65689C10.0822 7.66138 10.0998 6.55406 9.73335 5.54641L9.37787 4.56885Z" stroke="#4C4C4C"/>
<rect x="9" y="9.86353" width="1.43743" height="6.27295" fill="#0EA6FB"/>
<rect x="10.4374" y="9.86353" width="1.43743" height="6.27295" fill="#F63030"/>
<rect x="11.8749" y="9.86353" width="1.43743" height="6.27295" fill="#0EA6FB"/>
<rect x="13.3123" y="9.86353" width="1.43743" height="6.27295" fill="#F63030"/>
<rect x="14.7498" y="9.86353" width="1.43743" height="6.27295" fill="#0EA6FB"/>
<rect x="16.1871" y="9.86353" width="1.43743" height="6.27295" fill="#F63030"/>
<rect x="17.6246" y="9.86353" width="1.43743" height="6.27295" fill="#0EA6FB"/>
<rect x="9.03381" y="4.3999" width="4.96619" height="5.45947" fill="#D9D9D9" stroke="#4C4C4C" stroke-width="0.2"/>
<rect x="11.2415" y="4.875" width="1.43701" height="4.98828" fill="#F63030"/>
<rect x="14.5009" y="4.875" width="0.496415" height="4.21777" fill="#F63030"/>
<rect x="15.3453" y="4.875" width="0.496415" height="4.21777" fill="#F63030"/>
<rect x="16.1901" y="4.875" width="0.496415" height="4.21777" fill="#F63030"/>
<rect x="17.0347" y="4.875" width="0.496415" height="4.21777" fill="#F63030"/>
<rect x="13.8984" y="6.32959" width="1.43701" height="4.62842" transform="rotate(90 13.8984 6.32959)" fill="#F63030"/>
<rect x="18.83" y="9.18149" width="1.63701" height="9.72783" transform="rotate(90 18.83 9.18149)" fill="#FFDA27" stroke="#4C4C4C" stroke-width="0.2"/>
</g>
<path d="M9.4653 4.69454L9.34769 4.80731L9.40337 4.96044L9.70674 5.79471C10.0522 6.74461 10.0356 7.78845 9.66021 8.72691L9.41006 9.35228L9.07524 10.0219C8.96937 10.2337 9.01087 10.4894 9.17827 10.6568L9.28049 10.759L9.45726 10.5822L9.28049 10.759C9.34953 10.8281 9.38832 10.9217 9.38832 11.0193V11.6248C9.38832 12.9956 10.4258 14.1438 11.789 14.2828L12.5565 14.3918C12.6832 14.4098 12.8026 14.4619 12.902 14.5423L13.6556 15.1523C13.856 15.3145 14.1422 15.3157 14.344 15.1552L15.1197 14.5383C15.2177 14.4604 15.3346 14.4098 15.4585 14.3919L16.2114 14.2828C17.5744 14.1436 18.6117 12.9955 18.6117 11.6248V11.0193C18.6117 10.9217 18.6505 10.8281 18.7196 10.759L18.8218 10.6568C18.9892 10.4894 19.0307 10.2337 18.9248 10.0219L18.59 9.35229L18.3398 8.72691C17.9644 7.78845 17.9479 6.74461 18.2933 5.79471L18.5967 4.96044L18.6335 4.85904L18.5851 4.76266L18.4809 4.55563L18.3893 4.37354L18.1925 4.42658L17.4243 4.63361L17.4173 4.63552L17.4103 4.63783L16.4345 4.9631C16.2758 5.01601 16.1034 5.01094 15.9481 4.9488L15.5389 4.78511C15.251 4.66997 14.9299 4.66997 14.642 4.78511L14.2627 4.93682C14.0941 5.00428 13.906 5.00428 13.7373 4.93682L13.358 4.78511C13.0702 4.66997 12.749 4.66997 12.4612 4.78511L12.0519 4.9488C11.8966 5.01094 11.7242 5.01601 11.5655 4.9631L10.5897 4.63783L10.575 4.63292L10.5598 4.62987L9.83816 4.48534L9.71022 4.45971L9.61604 4.55001L9.4653 4.69454Z" stroke="#4C4C4C" stroke-width="0.5"/>
<path d="M12.1867 10.62V9.39037H13.0008V9.60472H12.4467V9.89771H12.9468V10.1121H12.4467V10.62H12.1867ZM14.565 9.82086H14.302C14.2972 9.78684 14.2874 9.75662 14.2726 9.7302C14.2578 9.70338 14.2388 9.68057 14.2155 9.66176C14.1923 9.64294 14.1655 9.62853 14.1351 9.61853C14.1051 9.60852 14.0724 9.60352 14.0372 9.60352C13.9736 9.60352 13.9181 9.61933 13.8709 9.65095C13.8237 9.68217 13.7871 9.7278 13.761 9.78784C13.735 9.84748 13.722 9.91993 13.722 10.0052C13.722 10.0928 13.735 10.1665 13.761 10.2261C13.7875 10.2858 13.8243 10.3308 13.8715 10.3612C13.9187 10.3916 13.9734 10.4069 14.0354 10.4069C14.0702 10.4069 14.1025 10.4022 14.1321 10.393C14.1621 10.3838 14.1887 10.3704 14.2119 10.3528C14.2352 10.3348 14.2544 10.313 14.2696 10.2874C14.2852 10.2618 14.296 10.2325 14.302 10.1997L14.565 10.2009C14.5582 10.2574 14.5412 10.3118 14.5139 10.3642C14.4871 10.4163 14.4509 10.4629 14.4053 10.5041C14.36 10.5449 14.306 10.5774 14.2432 10.6014C14.1807 10.625 14.1101 10.6368 14.0312 10.6368C13.9215 10.6368 13.8235 10.612 13.737 10.5624C13.651 10.5127 13.5829 10.4409 13.5329 10.3468C13.4832 10.2527 13.4584 10.1389 13.4584 10.0052C13.4584 9.8711 13.4836 9.75702 13.5341 9.66296C13.5845 9.56889 13.653 9.49725 13.7394 9.44801C13.8259 9.39838 13.9231 9.37356 14.0312 9.37356C14.1025 9.37356 14.1685 9.38357 14.2293 9.40358C14.2906 9.4236 14.3448 9.45282 14.3921 9.49124C14.4393 9.52927 14.4777 9.5759 14.5073 9.63113C14.5374 9.68637 14.5566 9.74961 14.565 9.82086ZM15.0557 10.62V9.39037H15.5481C15.6385 9.39037 15.714 9.40378 15.7744 9.4306C15.8348 9.45742 15.8803 9.49464 15.9107 9.54228C15.9411 9.58951 15.9563 9.64394 15.9563 9.70558C15.9563 9.75362 15.9467 9.79584 15.9275 9.83227C15.9083 9.86829 15.8819 9.89791 15.8483 9.92113C15.815 9.94394 15.777 9.96015 15.7342 9.96976V9.98177C15.781 9.98377 15.8248 9.99698 15.8657 10.0214C15.9069 10.0458 15.9403 10.08 15.9659 10.1241C15.9916 10.1677 16.0044 10.2197 16.0044 10.2802C16.0044 10.3454 15.9881 10.4037 15.9557 10.4549C15.9237 10.5057 15.8763 10.5459 15.8134 10.5756C15.7506 10.6052 15.6731 10.62 15.5811 10.62H15.0557ZM15.3157 10.4075H15.5276C15.6001 10.4075 15.6529 10.3936 15.6861 10.366C15.7194 10.338 15.736 10.3008 15.736 10.2544C15.736 10.2203 15.7278 10.1903 15.7114 10.1643C15.695 10.1383 15.6715 10.1179 15.6411 10.103C15.6111 10.0882 15.5753 10.0808 15.5336 10.0808H15.3157V10.4075ZM15.3157 9.90492H15.5084C15.5441 9.90492 15.5757 9.89871 15.6033 9.88631C15.6313 9.8735 15.6533 9.85548 15.6693 9.83227C15.6857 9.80905 15.694 9.78124 15.694 9.74881C15.694 9.70438 15.6781 9.66856 15.6465 9.64134C15.6153 9.61412 15.5709 9.60051 15.5132 9.60051H15.3157V9.90492Z" fill="#4C4C4C"/>
</g>
<defs>
<clipPath id="clip0_31_570">
<rect width="28" height="20" fill="white"/>
</clipPath>
</defs>
</svg>
