<svg width="28" height="20" viewBox="0 0 28 20" fill="none" xmlns="http://www.w3.org/2000/svg">
<g clip-path="url(#clip0_5_914)">
<rect x="0.25" y="0.25" width="27.5" height="19.5" fill="white" stroke="white" stroke-width="0.5"/>
<path fill-rule="evenodd" clip-rule="evenodd" d="M13.9999 14.6666C16.5772 14.6666 18.6666 12.5772 18.6666 9.99992C18.6666 7.42259 16.5772 5.33325 13.9999 5.33325C11.4226 5.33325 9.33325 7.42259 9.33325 9.99992C9.33325 12.5772 11.4226 14.6666 13.9999 14.6666Z" fill="#F63030"/>
<mask id="mask0_5_914" style="mask-type:luminance" maskUnits="userSpaceOnUse" x="9" y="5" width="10" height="10">
<path fill-rule="evenodd" clip-rule="evenodd" d="M13.9999 14.6666C16.5772 14.6666 18.6666 12.5772 18.6666 9.99992C18.6666 7.42259 16.5772 5.33325 13.9999 5.33325C11.4226 5.33325 9.33325 7.42259 9.33325 9.99992C9.33325 12.5772 11.4226 14.6666 13.9999 14.6666Z" fill="white"/>
</mask>
<g mask="url(#mask0_5_914)">
<path fill-rule="evenodd" clip-rule="evenodd" d="M9.33332 10.6665C10.6666 11.9165 12.6666 12.6665 14 10.6665C15.3333 8.6665 18 8.6665 18.6666 10.6665C19.3333 12.6665 18.6666 14.6665 18.6666 14.6665H9.33332C9.33332 14.6665 7.99998 9.4165 9.33332 10.6665Z" fill="#0EA6FB"/>
</g>
<path opacity="0.75" fill-rule="evenodd" clip-rule="evenodd" d="M21.083 3.60139C20.7641 3.78549 20.6549 4.19321 20.839 4.51207L22.1723 6.82148C22.3564 7.14034 22.7641 7.24959 23.083 7.06549C23.4019 6.8814 23.5111 6.47367 23.327 6.15481L21.9937 3.84541C21.8096 3.52655 21.4019 3.4173 21.083 3.60139ZM19.3509 4.60139C19.0321 4.78549 18.9228 5.19321 19.1069 5.51207L20.4403 7.82148C20.6244 8.14034 21.0321 8.24959 21.3509 8.06549C21.6698 7.8814 21.7791 7.47367 21.595 7.15481L20.2616 4.84541C20.0775 4.52655 19.6698 4.4173 19.3509 4.60139ZM4.67317 13.8454C4.48907 13.5265 4.59832 13.1188 4.91718 12.9347C5.23605 12.7506 5.64377 12.8599 5.82787 13.1787L7.1612 15.4881C7.3453 15.807 7.23605 16.2147 6.91719 16.3988C6.59832 16.5829 6.1906 16.4737 6.0065 16.1548L4.67317 13.8454ZM6.64924 11.9347C6.33037 12.1188 6.22112 12.5265 6.40522 12.8454L7.73855 15.1548C7.92265 15.4737 8.33037 15.5829 8.64924 15.3988C8.9681 15.2147 9.07735 14.807 8.89325 14.4881L7.55992 12.1787C7.37582 11.8599 6.9681 11.7506 6.64924 11.9347ZM20.4403 12.1787C20.6244 11.8599 21.0321 11.7506 21.3509 11.9347C21.6698 12.1188 21.7791 12.5265 21.595 12.8454L20.2616 15.1548C20.0775 15.4737 19.6698 15.5829 19.3509 15.3988C19.0321 15.2147 18.9228 14.807 19.1069 14.4881L20.4403 12.1787ZM23.083 12.9347C22.7641 12.7506 22.3564 12.8599 22.1723 13.1787L20.839 15.4881C20.6549 15.807 20.7641 16.2147 21.083 16.3988C21.4019 16.5829 21.8096 16.4737 21.9937 16.1548L23.327 13.8454C23.5111 13.5265 23.4019 13.1188 23.083 12.9347ZM6.0065 3.84541C6.1906 3.52655 6.59832 3.4173 6.91719 3.60139C7.23605 3.78549 7.3453 4.19321 7.1612 4.51207L5.82787 6.82148C5.64377 7.14034 5.23605 7.24959 4.91718 7.06549C4.59832 6.8814 4.48907 6.47367 4.67317 6.15481L6.0065 3.84541ZM8.64924 4.60139C8.33037 4.4173 7.92265 4.52655 7.73855 4.84541L6.40522 7.15481C6.22112 7.47367 6.33037 7.8814 6.64924 8.06549C6.9681 8.24959 7.37582 8.14034 7.55992 7.82148L8.89325 5.51207C9.07735 5.19321 8.9681 4.78549 8.64924 4.60139Z" fill="#4C4C4C"/>
</g>
<defs>
<clipPath id="clip0_5_914">
<rect width="28" height="20" fill="white"/>
</clipPath>
</defs>
</svg>
