<svg width="28" height="20" viewBox="0 0 28 20" fill="none" xmlns="http://www.w3.org/2000/svg">
<g clip-path="url(#clip0_5_914)">
<rect x="0.25" y="0.25" width="27.5" height="19.5" fill="white" stroke="white" stroke-width="0.5"/>
<path fill-rule="evenodd" clip-rule="evenodd" d="M14 14.6666C16.5774 14.6666 18.6667 12.5772 18.6667 9.99992C18.6667 7.42259 16.5774 5.33325 14 5.33325C11.4227 5.33325 9.33337 7.42259 9.33337 9.99992C9.33337 12.5772 11.4227 14.6666 14 14.6666Z" fill="#F63030"/>
<mask id="mask0_5_914" style="mask-type:luminance" maskUnits="userSpaceOnUse" x="9" y="5" width="10" height="10">
<path fill-rule="evenodd" clip-rule="evenodd" d="M14 14.6666C16.5774 14.6666 18.6667 12.5772 18.6667 9.99992C18.6667 7.42259 16.5774 5.33325 14 5.33325C11.4227 5.33325 9.33337 7.42259 9.33337 9.99992C9.33337 12.5772 11.4227 14.6666 14 14.6666Z" fill="white"/>
</mask>
<g mask="url(#mask0_5_914)">
<path fill-rule="evenodd" clip-rule="evenodd" d="M9.33332 10.6665C10.6666 11.9165 12.6666 12.6665 14 10.6665C15.3333 8.6665 18 8.6665 18.6666 10.6665C19.3333 12.6665 18.6666 14.6665 18.6666 14.6665H9.33332C9.33332 14.6665 7.99998 9.4165 9.33332 10.6665Z" fill="#0EA6FB"/>
</g>
<path opacity="0.75" fill-rule="evenodd" clip-rule="evenodd" d="M21.0829 3.60139C20.764 3.78549 20.6548 4.19321 20.8389 4.51207L22.1722 6.82148C22.3563 7.14034 22.764 7.24959 23.0829 7.06549C23.4017 6.8814 23.511 6.47367 23.3269 6.15481L21.9936 3.84541C21.8095 3.52655 21.4017 3.4173 21.0829 3.60139ZM19.3508 4.60139C19.032 4.78549 18.9227 5.19321 19.1068 5.51207L20.4401 7.82148C20.6242 8.14034 21.032 8.24959 21.3508 8.06549C21.6697 7.8814 21.7789 7.47367 21.5948 7.15481L20.2615 4.84541C20.0774 4.52655 19.6697 4.4173 19.3508 4.60139ZM4.67305 13.8454C4.48895 13.5265 4.5982 13.1188 4.91706 12.9347C5.23592 12.7506 5.64365 12.8599 5.82775 13.1787L7.16108 15.4881C7.34517 15.807 7.23592 16.2147 6.91706 16.3988C6.5982 16.5829 6.19047 16.4737 6.00638 16.1548L4.67305 13.8454ZM6.64911 11.9347C6.33025 12.1188 6.221 12.5265 6.4051 12.8454L7.73843 15.1548C7.92253 15.4737 8.33025 15.5829 8.64911 15.3988C8.96798 15.2147 9.07723 14.807 8.89313 14.4881L7.5598 12.1787C7.3757 11.8599 6.96798 11.7506 6.64911 11.9347ZM20.4401 12.1787C20.6242 11.8599 21.032 11.7506 21.3508 11.9347C21.6697 12.1188 21.7789 12.5265 21.5948 12.8454L20.2615 15.1548C20.0774 15.4737 19.6697 15.5829 19.3508 15.3988C19.032 15.2147 18.9227 14.807 19.1068 14.4881L20.4401 12.1787ZM23.0829 12.9347C22.764 12.7506 22.3563 12.8599 22.1722 13.1787L20.8389 15.4881C20.6548 15.807 20.764 16.2147 21.0829 16.3988C21.4017 16.5829 21.8095 16.4737 21.9936 16.1548L23.3269 13.8454C23.511 13.5265 23.4017 13.1188 23.0829 12.9347ZM6.00638 3.84541C6.19047 3.52655 6.5982 3.4173 6.91706 3.60139C7.23592 3.78549 7.34517 4.19321 7.16108 4.51207L5.82775 6.82148C5.64365 7.14034 5.23592 7.24959 4.91706 7.06549C4.5982 6.8814 4.48895 6.47367 4.67305 6.15481L6.00638 3.84541ZM8.64911 4.60139C8.33025 4.4173 7.92252 4.52655 7.73843 4.84541L6.4051 7.15481C6.221 7.47367 6.33025 7.8814 6.64911 8.06549C6.96798 8.24959 7.3757 8.14034 7.5598 7.82148L8.89313 5.51207C9.07723 5.19321 8.96798 4.78549 8.64911 4.60139Z" fill="#4C4C4C"/>
</g>
<defs>
<clipPath id="clip0_5_914">
<rect width="28" height="20" fill="white"/>
</clipPath>
</defs>
</svg>
