<svg width="28" height="20" viewBox="0 0 28 20" fill="none" xmlns="http://www.w3.org/2000/svg">
<g clip-path="url(#clip0_5_1278)">
<rect x="0.25" y="0.25" width="27.5" height="19.5" rx="1.75" fill="white" stroke="white" stroke-width="0.5"/>
<path fill-rule="evenodd" clip-rule="evenodd" d="M0 6.66667H28V0H0V6.66667Z" fill="#0EA6FB"/>
<path fill-rule="evenodd" clip-rule="evenodd" d="M0 19.9999H28V13.3333H0V19.9999Z" fill="#0EA6FB"/>
<path d="M14 12.5C15.3807 12.5 16.5 11.3807 16.5 10C16.5 8.61929 15.3807 7.5 14 7.5C12.6193 7.5 11.5 8.61929 11.5 10C11.5 11.3807 12.6193 12.5 14 12.5Z" stroke="#FFDA27"/>
<path fill-rule="evenodd" clip-rule="evenodd" d="M13.7315 8.84867C13.8421 8.62755 14.1576 8.62755 14.2682 8.84867L15.1161 10.5445C15.2158 10.744 15.0708 10.9787 14.8478 10.9787H13.1519C12.9289 10.9787 12.7839 10.744 12.8836 10.5445L13.7315 8.84867Z" fill="#0EA6FB"/>
</g>
<defs>
<clipPath id="clip0_5_1278">
<rect width="28" height="20" fill="white"/>
</clipPath>
</defs>
</svg>
