<svg width="28" height="20" viewBox="0 0 28 20" fill="none" xmlns="http://www.w3.org/2000/svg">
<g clip-path="url(#clip0_5_1379)">
<rect x="0.25" y="0.25" width="27.5" height="19.5" fill="white" stroke="white" stroke-width="0.5"/>
<path fill-rule="evenodd" clip-rule="evenodd" d="M28 0H8V20H28V0Z" fill="#50B500"/>
<path d="M17.0417 4.52307C16.7534 4.69434 16.5216 4.86757 16.3464 5.04275C14.605 6.78418 14.605 9.6076 16.3464 11.349C18.0879 13.0905 20.9113 13.0905 22.6527 11.349C22.8279 11.1738 23.0011 10.9421 23.1724 10.6538C23.2772 10.4773 23.5052 10.4192 23.6817 10.5241C23.8143 10.6028 23.8844 10.7553 23.858 10.9072C23.6701 11.9876 23.0932 13.0107 22.1272 13.9766C19.8053 16.2986 16.0407 16.2986 13.7188 13.9766C11.3969 11.6547 11.3969 7.89018 13.7188 5.56828C14.6848 4.60231 15.7079 4.02538 16.7883 3.83747C16.9905 3.8023 17.1829 3.9377 17.2181 4.1399C17.2445 4.29183 17.1743 4.44431 17.0417 4.52307Z" fill="white"/>
<path d="M20.4392 8.91971L19.563 9.38037C19.2959 9.52075 18.9657 9.41809 18.8253 9.15107C18.7694 9.04474 18.7501 8.92295 18.7704 8.80455L18.9378 7.82885C18.9501 7.75677 18.9262 7.68321 18.8738 7.63216L18.165 6.94116C17.9489 6.73059 17.9445 6.38477 18.1551 6.16875C18.2389 6.08272 18.3488 6.02674 18.4677 6.00947L19.4473 5.86712C19.5197 5.8566 19.5823 5.81114 19.6147 5.74555L20.0528 4.85783C20.1863 4.58731 20.5138 4.47624 20.7843 4.60975C20.8921 4.66291 20.9793 4.75011 21.0324 4.85783L21.4705 5.74555C21.5029 5.81114 21.5655 5.8566 21.6379 5.86712L22.6175 6.00947C22.916 6.05285 23.1229 6.33003 23.0795 6.62856C23.0622 6.74744 23.0063 6.85731 22.9202 6.94116L22.2113 7.63216C22.159 7.68321 22.1351 7.75677 22.1474 7.82885L22.3148 8.80455C22.3658 9.10188 22.1661 9.38426 21.8688 9.43526C21.7504 9.45556 21.6286 9.43627 21.5222 9.38037L20.646 8.91971C20.5813 8.88567 20.5039 8.88567 20.4392 8.91971Z" fill="white"/>
</g>
<defs>
<clipPath id="clip0_5_1379">
<rect width="28" height="20" fill="white"/>
</clipPath>
</defs>
</svg>
