<svg width="28" height="20" viewBox="0 0 28 20" fill="none" xmlns="http://www.w3.org/2000/svg">
<g clip-path="url(#clip0_5_1512)">
<rect x="0.25" y="0.25" width="27.5" height="19.5" fill="white" stroke="white" stroke-width="0.5"/>
<path fill-rule="evenodd" clip-rule="evenodd" d="M0 10.6667H28V0H0V10.6667Z" fill="#F63030"/>
<path fill-rule="evenodd" clip-rule="evenodd" d="M6.66663 9.33325C7.61174 9.33325 8.48029 9.00547 9.16481 8.4574C8.8022 8.59265 8.40971 8.66658 7.99996 8.66658C6.15901 8.66658 4.66663 7.1742 4.66663 5.33325C4.66663 3.4923 6.15901 1.99992 7.99996 1.99992C8.40971 1.99992 8.8022 2.07385 9.16481 2.20911C8.48029 1.66103 7.61173 1.33325 6.66663 1.33325C4.45749 1.33325 2.66663 3.12411 2.66663 5.33325C2.66663 7.54239 4.45749 9.33325 6.66663 9.33325ZM7.99996 4.66659C7.99996 5.03478 7.70148 5.33325 7.33329 5.33325C6.9651 5.33325 6.66663 5.03478 6.66663 4.66659C6.66663 4.2984 6.9651 3.99992 7.33329 3.99992C7.70148 3.99992 7.99996 4.2984 7.99996 4.66659ZM8.66663 7.99992C9.03482 7.99992 9.33329 7.70144 9.33329 7.33325C9.33329 6.96506 9.03482 6.66659 8.66663 6.66659C8.29844 6.66659 7.99996 6.96506 7.99996 7.33325C7.99996 7.70144 8.29844 7.99992 8.66663 7.99992ZM12 7.33325C12 7.70144 11.7015 7.99992 11.3333 7.99992C10.9651 7.99992 10.6666 7.70144 10.6666 7.33325C10.6666 6.96506 10.9651 6.66659 11.3333 6.66659C11.7015 6.66659 12 6.96506 12 7.33325ZM12.6666 5.33325C13.0348 5.33325 13.3333 5.03478 13.3333 4.66659C13.3333 4.2984 13.0348 3.99992 12.6666 3.99992C12.2984 3.99992 12 4.2984 12 4.66659C12 5.03478 12.2984 5.33325 12.6666 5.33325ZM10.6666 2.66659C10.6666 3.03478 10.3681 3.33325 9.99996 3.33325C9.63177 3.33325 9.33329 3.03478 9.33329 2.66659C9.33329 2.2984 9.63177 1.99992 9.99996 1.99992C10.3681 1.99992 10.6666 2.2984 10.6666 2.66659Z" fill="white"/>
</g>
<defs>
<clipPath id="clip0_5_1512">
<rect width="28" height="20" fill="white"/>
</clipPath>
</defs>
</svg>
