<svg width="28" height="20" viewBox="0 0 28 20" fill="none" xmlns="http://www.w3.org/2000/svg">
<g clip-path="url(#clip0_27_1033)">
<rect width="28" height="20" fill="white"/>
<rect width="28" height="20" fill="#F63030"/>
<path d="M2.86934 2.8598L2.58372 3.0113C2.48818 3.06198 2.36965 3.02561 2.31898 2.93008C2.29873 2.8919 2.29168 2.8481 2.29892 2.80551L2.3542 2.48032C2.3619 2.43501 2.34696 2.3888 2.3142 2.35658L2.08097 2.1272C2.00323 2.05075 2.00218 1.92575 2.07864 1.84801C2.10881 1.81733 2.14818 1.79735 2.19076 1.79111L2.51042 1.74425C2.55629 1.73752 2.5959 1.7086 2.61627 1.66696L2.75945 1.37424C2.80693 1.27719 2.9241 1.23699 3.02115 1.28447C3.06023 1.30358 3.09181 1.33517 3.11093 1.37424L3.25411 1.66696C3.27448 1.7086 3.31409 1.73752 3.35996 1.74425L3.67962 1.79111C3.7875 1.80693 3.86213 1.9072 3.84632 2.01508C3.84008 2.05766 3.82009 2.09703 3.78941 2.1272L3.55618 2.35658C3.52341 2.3888 3.50847 2.43501 3.51618 2.48032L3.57146 2.80551C3.58958 2.91212 3.51785 3.01324 3.41123 3.03136C3.36863 3.0386 3.32484 3.03155 3.28666 3.0113L3.00104 2.8598C2.95986 2.83796 2.91052 2.83796 2.86934 2.8598Z" fill="#FFDA27"/>
<rect x="2.53638" y="6.94495" width="1" height="2" transform="rotate(30 2.53638 6.94495)" fill="#FFDA27"/>
<path d="M2.7366 3.99571L3.80912 4.1976L3.37607 4.71235L7.34102 8.41399L6.69398 8.9936L2.83176 5.33547L2.50597 5.71476L1.74739 5.06319L2.7366 3.99571Z" fill="#FFDA27"/>
<path d="M4.99913 3.13768C5.33627 3.27834 5.63848 3.49117 5.8845 3.7612C6.13052 4.03123 6.31438 4.35189 6.42313 4.70063C6.53188 5.04936 6.56289 5.41769 6.51397 5.7797C6.46505 6.14171 6.3374 6.48859 6.13998 6.79596C5.94257 7.10332 5.68019 7.36368 5.37133 7.55872C5.06246 7.75377 4.7146 7.87876 4.35222 7.92489C3.98985 7.97103 3.62177 7.93719 3.27388 7.82575C2.92599 7.71432 2.60675 7.528 2.33862 7.27991L2.53638 6.94495C2.60721 6.80917 2.79314 6.77278 2.92692 6.8473C3.11814 6.95382 3.34779 7.04631 3.50719 7.09737C3.74865 7.17471 4.00412 7.1982 4.25563 7.16618C4.50714 7.13416 4.74858 7.04741 4.96295 6.91204C5.17733 6.77666 5.35944 6.59595 5.49645 6.38263C5.63347 6.1693 5.72208 5.92853 5.75603 5.67728C5.78998 5.42602 5.76846 5.17037 5.69298 4.92833C5.6175 4.68628 5.48989 4.46372 5.31913 4.2763L4.1381 2.76967L4.99913 3.13768Z" fill="#FFDA27"/>
</g>
<defs>
<clipPath id="clip0_27_1033">
<rect width="28" height="20" fill="white"/>
</clipPath>
</defs>
</svg>
