<svg width="28" height="20" viewBox="0 0 28 20" fill="none" xmlns="http://www.w3.org/2000/svg">
<g clip-path="url(#clip0_5_1669)">
<rect width="28" height="20" rx="2" fill="white"/>
<path fill-rule="evenodd" clip-rule="evenodd" d="M0 20H28V0H0V20Z" fill="#F63030"/>
<rect x="4" width="4" height="20" fill="#F63030"/>
<path fill-rule="evenodd" clip-rule="evenodd" d="M6 3.99992C7.10457 3.99992 8 3.40297 8 2.66659C8 1.93021 7.10457 1.33325 6 1.33325C4.89543 1.33325 4 1.93021 4 2.66659C4 3.40297 4.89543 3.99992 6 3.99992Z" fill="white"/>
<mask id="mask0_5_1669" style="mask-type:luminance" maskUnits="userSpaceOnUse" x="4" y="1" width="4" height="3">
<path fill-rule="evenodd" clip-rule="evenodd" d="M6 3.99992C7.10457 3.99992 8 3.40297 8 2.66659C8 1.93021 7.10457 1.33325 6 1.33325C4.89543 1.33325 4 1.93021 4 2.66659C4 3.40297 4.89543 3.99992 6 3.99992Z" fill="white"/>
</mask>
<g mask="url(#mask0_5_1669)">
<path fill-rule="evenodd" clip-rule="evenodd" d="M6.00004 3.33333C6.36823 3.33333 6.66671 3.03486 6.66671 2.66667C6.66671 2.29848 6.36823 2 6.00004 2C5.63185 2 5.33337 2.29848 5.33337 2.66667C5.33337 3.03486 5.63185 3.33333 6.00004 3.33333Z" fill="#F63030"/>
<rect x="4" y="1.33325" width="2" height="1.33333" fill="#FF9600"/>
<rect x="6" y="2.6665" width="2" height="1.33333" fill="#FF9600"/>
</g>
<path fill-rule="evenodd" clip-rule="evenodd" d="M6 18.6667C7.10457 18.6667 8 18.0697 8 17.3333C8 16.597 7.10457 16 6 16C4.89543 16 4 16.597 4 17.3333C4 18.0697 4.89543 18.6667 6 18.6667Z" fill="white"/>
<mask id="mask1_5_1669" style="mask-type:luminance" maskUnits="userSpaceOnUse" x="4" y="16" width="4" height="3">
<path fill-rule="evenodd" clip-rule="evenodd" d="M6 18.6667C7.10457 18.6667 8 18.0697 8 17.3333C8 16.597 7.10457 16 6 16C4.89543 16 4 16.597 4 17.3333C4 18.0697 4.89543 18.6667 6 18.6667Z" fill="white"/>
</mask>
<g mask="url(#mask1_5_1669)">
<path fill-rule="evenodd" clip-rule="evenodd" d="M6.00004 18.0001C6.36823 18.0001 6.66671 17.7016 6.66671 17.3334C6.66671 16.9652 6.36823 16.6667 6.00004 16.6667C5.63185 16.6667 5.33337 16.9652 5.33337 17.3334C5.33337 17.7016 5.63185 18.0001 6.00004 18.0001Z" fill="#F63030"/>
<rect x="4" y="16" width="2" height="1.33333" fill="#FF9600"/>
<rect x="6" y="17.3333" width="2" height="1.33333" fill="#FF9600"/>
</g>
<path fill-rule="evenodd" clip-rule="evenodd" d="M6 11.9999C7.10457 11.9999 8 11.403 8 10.6666C8 9.93021 7.10457 9.33325 6 9.33325C4.89543 9.33325 4 9.93021 4 10.6666C4 11.403 4.89543 11.9999 6 11.9999Z" fill="#18BDBD"/>
<mask id="mask2_5_1669" style="mask-type:luminance" maskUnits="userSpaceOnUse" x="4" y="9" width="4" height="3">
<path fill-rule="evenodd" clip-rule="evenodd" d="M6 11.9999C7.10457 11.9999 8 11.403 8 10.6666C8 9.93021 7.10457 9.33325 6 9.33325C4.89543 9.33325 4 9.93021 4 10.6666C4 11.403 4.89543 11.9999 6 11.9999Z" fill="white"/>
</mask>
<g mask="url(#mask2_5_1669)">
<path fill-rule="evenodd" clip-rule="evenodd" d="M5.99996 11.3333C6.73634 11.3333 7.33329 11.0349 7.33329 10.6667C7.33329 10.2985 6.73634 10 5.99996 10C5.26358 10 4.66663 10.2985 4.66663 10.6667C4.66663 11.0349 5.26358 11.3333 5.99996 11.3333Z" fill="#F63030"/>
</g>
<path fill-rule="evenodd" clip-rule="evenodd" d="M6 14.6666C7.10457 14.6666 8 14.3681 8 13.9999C8 13.6317 7.10457 13.3333 6 13.3333C4.89543 13.3333 4 13.6317 4 13.9999C4 14.3681 4.89543 14.6666 6 14.6666Z" fill="#18BDBD"/>
<mask id="mask3_5_1669" style="mask-type:luminance" maskUnits="userSpaceOnUse" x="4" y="13" width="4" height="2">
<path fill-rule="evenodd" clip-rule="evenodd" d="M6 14.6666C7.10457 14.6666 8 14.3681 8 13.9999C8 13.6317 7.10457 13.3333 6 13.3333C4.89543 13.3333 4 13.6317 4 13.9999C4 14.3681 4.89543 14.6666 6 14.6666Z" fill="white"/>
</mask>
<g mask="url(#mask3_5_1669)">
</g>
<path fill-rule="evenodd" clip-rule="evenodd" d="M6 7.99992C7.10457 7.99992 8 7.40297 8 6.66659C8 5.93021 7.10457 5.33325 6 5.33325C4.89543 5.33325 4 5.93021 4 6.66659C4 7.40297 4.89543 7.99992 6 7.99992Z" fill="#FF9600"/>
<mask id="mask4_5_1669" style="mask-type:luminance" maskUnits="userSpaceOnUse" x="4" y="5" width="4" height="3">
<path fill-rule="evenodd" clip-rule="evenodd" d="M6 7.99992C7.10457 7.99992 8 7.40297 8 6.66659C8 5.93021 7.10457 5.33325 6 5.33325C4.89543 5.33325 4 5.93021 4 6.66659C4 7.40297 4.89543 7.99992 6 7.99992Z" fill="white"/>
</mask>
<g mask="url(#mask4_5_1669)">
<path fill-rule="evenodd" clip-rule="evenodd" d="M6.00004 7.33333C6.36823 7.33333 6.66671 7.03486 6.66671 6.66667C6.66671 6.29848 6.36823 6 6.00004 6C5.63185 6 5.33337 6.29848 5.33337 6.66667C5.33337 7.03486 5.63185 7.33333 6.00004 7.33333Z" fill="#F63030"/>
<rect x="4" y="5.33325" width="1.33333" height="2.66667" fill="#18BDBD"/>
<rect x="6.66663" y="5.33325" width="1.33333" height="2.66667" fill="#18BDBD"/>
</g>
<path fill-rule="evenodd" clip-rule="evenodd" d="M14.8226 4.23824C14.5859 4.52029 14.6227 4.94079 14.9048 5.17746C15.1868 5.41413 15.6073 5.37734 15.844 5.09529C16.0807 4.81324 16.0439 4.39274 15.7618 4.15607C15.4798 3.9194 15.0593 3.95619 14.8226 4.23824ZM13.0952 6.82273C12.8131 6.58607 12.3926 6.62286 12.1559 6.90491C11.9193 7.18695 11.9561 7.60746 12.2381 7.84413C12.5202 8.08079 12.9407 8.044 13.1773 7.76196C13.414 7.47991 13.3772 7.0594 13.0952 6.82273ZM11.7618 5.4894C11.4798 5.25273 11.0593 5.28952 10.8226 5.57157C10.5859 5.85362 10.6227 6.27413 10.9048 6.51079C11.1868 6.74746 11.6073 6.71067 11.844 6.42862C12.0807 6.14657 12.0439 5.72607 11.7618 5.4894ZM14.4285 2.82273C14.1465 2.58607 13.7259 2.62286 13.4893 2.90491C13.2526 3.18695 13.2894 3.60746 13.5714 3.84413C13.8535 4.08079 14.274 4.04401 14.5107 3.76196C14.7473 3.47991 14.7105 3.0594 14.4285 2.82273ZM13.7618 4.82273C13.4798 4.58607 13.0593 4.62286 12.8226 4.90491C12.5859 5.18695 12.6227 5.60746 12.9048 5.84413C13.1868 6.08079 13.6073 6.04401 13.844 5.76196C14.0807 5.47991 14.0439 5.0594 13.7618 4.82273Z" fill="white"/>
<path fill-rule="evenodd" clip-rule="evenodd" d="M17.4761 9.45045C15.888 11.0385 13.3133 11.0385 11.7253 9.45045C11.5714 9.29658 11.4324 9.13343 11.3083 8.96282C12.8985 10.1191 15.1374 9.98009 16.5716 8.54592C18.0057 7.11175 18.1447 4.87284 16.9885 3.28271C17.1591 3.40677 17.3222 3.54574 17.4761 3.69962C19.0641 5.28767 19.0641 7.8624 17.4761 9.45045Z" fill="white"/>
</g>
<defs>
<clipPath id="clip0_5_1669">
<rect width="28" height="20" fill="white"/>
</clipPath>
</defs>
</svg>
