<svg width="28" height="20" viewBox="0 0 28 20" fill="none" xmlns="http://www.w3.org/2000/svg">
<g clip-path="url(#clip0_5_1625)">
<rect width="28" height="20" rx="2" fill="white"/>
<rect width="28" height="20" fill="#F63030"/>
<path d="M16.2288 5.57041C15.9224 5.49238 15.6525 5.45337 15.419 5.45337C13.0975 5.45337 11.2156 7.33528 11.2156 9.65674C11.2156 11.9782 13.0975 13.8601 15.419 13.8601C15.6525 13.8601 15.9224 13.8211 16.2287 13.7431C16.4162 13.6953 16.6069 13.8086 16.6547 13.9961C16.6905 14.1369 16.6357 14.2853 16.5168 14.369C15.6715 14.9638 14.605 15.2612 13.3173 15.2612C10.222 15.2612 7.71277 12.752 7.71277 9.65674C7.71277 6.56146 10.222 4.05225 13.3173 4.05225C14.605 4.05225 15.6715 4.34966 16.5168 4.94449C16.675 5.05582 16.713 5.27433 16.6017 5.43254C16.518 5.55143 16.3696 5.60629 16.2288 5.57041Z" fill="white"/>
<path d="M18.1393 11.372L17.5493 11.921C17.352 12.1047 17.0431 12.0936 16.8595 11.8962C16.7861 11.8174 16.7409 11.7165 16.7308 11.6092L16.6541 10.7906C16.6434 10.6766 16.5777 10.5749 16.478 10.5185L15.7684 10.1167C15.5319 9.98275 15.4488 9.68247 15.5827 9.44597C15.6356 9.35263 15.7175 9.27912 15.8159 9.23662L16.5554 8.91755C16.6615 8.87177 16.7382 8.77659 16.7604 8.66317L16.9163 7.86602C16.968 7.6017 17.2241 7.42933 17.4885 7.48103C17.5949 7.50184 17.6913 7.55752 17.7625 7.63926L18.2961 8.25167C18.372 8.3388 18.4861 8.38287 18.6008 8.36947L19.4007 8.27608C19.6707 8.24456 19.9151 8.43785 19.9466 8.7078C19.959 8.81434 19.9363 8.92202 19.8819 9.01447L19.4683 9.71721C19.4102 9.81594 19.4041 9.93684 19.4519 10.041L19.7948 10.7883C19.9072 11.0333 19.7997 11.323 19.5547 11.4354C19.4568 11.4804 19.3468 11.4916 19.2418 11.4675L18.4564 11.287C18.3431 11.261 18.2243 11.2928 18.1393 11.372Z" fill="white"/>
</g>
<defs>
<clipPath id="clip0_5_1625">
<rect width="28" height="20" fill="white"/>
</clipPath>
</defs>
</svg>
