<svg width="28" height="20" viewBox="0 0 28 20" fill="none" xmlns="http://www.w3.org/2000/svg">
<g clip-path="url(#clip0_5_1736)">
<rect x="0.25" y="0.25" width="27.5" height="19.5" fill="white" stroke="white" stroke-width="0.5"/>
<path fill-rule="evenodd" clip-rule="evenodd" d="M28 1.33325H13.3333V3.99992H28V1.33325ZM13.3333 6.66659V9.33325H28V6.66659H13.3333ZM13.3333 11.9999L0 11.9999V14.6666H28V11.9999H13.3333ZM0 18.6666V17.3333H28V18.6666H0Z" fill="#0EA6FB"/>
<path fill-rule="evenodd" clip-rule="evenodd" d="M6.66663 9.0769C7.95154 9.0769 8.99316 8.03528 8.99316 6.75037C8.99316 5.46545 7.95154 4.42383 6.66663 4.42383C5.38171 4.42383 4.34009 5.46545 4.34009 6.75037C4.34009 8.03528 5.38171 9.0769 6.66663 9.0769Z" fill="#FFDA27" stroke="#FF9600" stroke-width="1.16327"/>
</g>
<defs>
<clipPath id="clip0_5_1736">
<rect width="28" height="20" fill="white"/>
</clipPath>
</defs>
</svg>
