<svg xmlns="http://www.w3.org/2000/svg" fill="none" viewBox="0 0 28 20" aria-hidden="true">
  <g clip-path="url(#clip0_5_172)">
    <rect width="28" height="20" fill="white" rx="2"/>
    <rect width="28" height="20" fill="#0EA6FB"/>
    <g filter="url(#filter0_d_5_172)">
      <path fill="#FFDA27" fill-rule="evenodd" d="M22.6666 20V0H8.66663L22.6666 20Z" clip-rule="evenodd"/>
    </g>
    <path fill="white" d="M6.54399 2.97507L6.13706 3.19663C6.00095 3.27074 5.83088 3.21981 5.75719 3.08289C5.72775 3.02818 5.71713 2.96521 5.72697 2.9038L5.80214 2.43498C5.81261 2.36967 5.79067 2.30332 5.74338 2.25733L5.4068 1.92993C5.29462 1.82081 5.29161 1.64087 5.40008 1.52804C5.44289 1.4835 5.49899 1.45426 5.55985 1.44476L6.01676 1.37343C6.08233 1.3632 6.13865 1.32109 6.1673 1.26088L6.36866 0.837758C6.43543 0.69746 6.60263 0.638182 6.7421 0.705357C6.79825 0.7324 6.84385 0.777493 6.87167 0.833511L7.08015 1.25318C7.10981 1.31289 7.16684 1.35404 7.23257 1.36317L7.69063 1.42677C7.84521 1.44824 7.95324 1.59169 7.93192 1.74719C7.9235 1.80856 7.89538 1.86548 7.85184 1.90929L7.52084 2.24232C7.47434 2.28911 7.45352 2.35581 7.46509 2.42094L7.54816 2.88842C7.57539 3.04169 7.47396 3.18813 7.3216 3.21551C7.26072 3.22645 7.19795 3.21682 7.14308 3.18814L6.73246 2.97348C6.67326 2.94253 6.60266 2.94313 6.54399 2.97507Z"/>
    <path fill="white" d="M9.41179 6.97507L9.00486 7.19663C8.86875 7.27074 8.69868 7.21981 8.62499 7.08289C8.59555 7.02818 8.58493 6.96521 8.59477 6.9038L8.66993 6.43498C8.68041 6.36967 8.65846 6.30332 8.61118 6.25733L8.2746 5.92993C8.16242 5.82081 8.1594 5.64087 8.26787 5.52804C8.31068 5.4835 8.36679 5.45426 8.42764 5.44476L8.88456 5.37343C8.95013 5.3632 9.00645 5.32109 9.0351 5.26088L9.23646 4.83776C9.30323 4.69746 9.47042 4.63818 9.6099 4.70536C9.66605 4.7324 9.71164 4.77749 9.73947 4.83351L9.94795 5.25318C9.97761 5.31289 10.0346 5.35404 10.1004 5.36317L10.5584 5.42677C10.713 5.44824 10.821 5.59169 10.7997 5.74719C10.7913 5.80856 10.7632 5.86548 10.7196 5.90929L10.3886 6.24232C10.3421 6.28911 10.3213 6.35581 10.3329 6.42094L10.416 6.88842C10.4432 7.04169 10.3418 7.18813 10.1894 7.21551C10.1285 7.22645 10.0658 7.21682 10.0109 7.18814L9.60026 6.97348C9.54106 6.94253 9.47046 6.94313 9.41179 6.97507Z"/>
    <path fill="white" d="M12.0257 10.9751L11.6187 11.1966C11.4826 11.2707 11.3126 11.2198 11.2389 11.0829C11.2094 11.0282 11.1988 10.9652 11.2087 10.9038L11.2838 10.435C11.2943 10.3697 11.2724 10.3033 11.2251 10.2573L10.8885 9.92993C10.7763 9.82081 10.7733 9.64087 10.8818 9.52804C10.9246 9.4835 10.9807 9.45426 11.0415 9.44476L11.4985 9.37343C11.564 9.3632 11.6203 9.32109 11.649 9.26088L11.8504 8.83776C11.9171 8.69746 12.0843 8.63818 12.2238 8.70536C12.2799 8.7324 12.3255 8.77749 12.3534 8.83351L12.5618 9.25318C12.5915 9.31289 12.6485 9.35404 12.7143 9.36317L13.1723 9.42677C13.3269 9.44824 13.4349 9.59169 13.4136 9.74719C13.4052 9.80856 13.3771 9.86548 13.3335 9.90929L13.0025 10.2423C12.956 10.2891 12.9352 10.3558 12.9468 10.4209L13.0298 10.8884C13.0571 11.0417 12.9556 11.1881 12.8033 11.2155C12.7424 11.2264 12.6796 11.2168 12.6248 11.1881L12.2142 10.9735C12.155 10.9425 12.0843 10.9431 12.0257 10.9751Z"/>
    <path fill="white" d="M14.6396 14.9751L14.2326 15.1966C14.0965 15.2707 13.9265 15.2198 13.8528 15.0829C13.8233 15.0282 13.8127 14.9652 13.8226 14.9038L13.8977 14.435C13.9082 14.3697 13.8862 14.3033 13.839 14.2573L13.5024 13.9299C13.3902 13.8208 13.3872 13.6409 13.4957 13.528C13.5385 13.4835 13.5946 13.4543 13.6554 13.4448L14.1123 13.3734C14.1779 13.3632 14.2342 13.3211 14.2629 13.2609L14.4642 12.8378C14.531 12.6975 14.6982 12.6382 14.8377 12.7054C14.8938 12.7324 14.9394 12.7775 14.9673 12.8335L15.1757 13.2532C15.2054 13.3129 15.2624 13.354 15.3282 13.3632L15.7862 13.4268C15.9408 13.4482 16.0488 13.5917 16.0275 13.7472C16.0191 13.8086 15.991 13.8655 15.9474 13.9093L15.6164 14.2423C15.5699 14.2891 15.5491 14.3558 15.5607 14.4209L15.6437 14.8884C15.671 15.0417 15.5695 15.1881 15.4172 15.2155C15.3563 15.2264 15.2935 15.2168 15.2387 15.1881L14.828 14.9735C14.7688 14.9425 14.6982 14.9431 14.6396 14.9751Z"/>
    <path fill="white" d="M17.2535 18.5273L16.8465 18.7489C16.7104 18.823 16.5404 18.7721 16.4667 18.6351C16.4372 18.5804 16.4266 18.5175 16.4364 18.456L16.5116 17.9872C16.5221 17.9219 16.5001 17.8556 16.4529 17.8096L16.1163 17.4822C16.0041 17.3731 16.0011 17.1931 16.1095 17.0803C16.1524 17.0358 16.2085 17.0065 16.2693 16.997L16.7262 16.9257C16.7918 16.9154 16.8481 16.8733 16.8768 16.8131L17.0781 16.39C17.1449 16.2497 17.3121 16.1904 17.4516 16.2576C17.5077 16.2846 17.5533 16.3297 17.5811 16.3858L17.7896 16.8054C17.8193 16.8651 17.8763 16.9063 17.942 16.9154L18.4001 16.979C18.5547 17.0005 18.6627 17.1439 18.6414 17.2994C18.633 17.3608 18.6049 17.4177 18.5613 17.4615L18.2303 17.7946C18.1838 17.8414 18.163 17.9081 18.1746 17.9732L18.2576 18.4407C18.2849 18.5939 18.1834 18.7404 18.0311 18.7678C17.9702 18.7787 17.9074 18.7691 17.8525 18.7404L17.4419 18.5257C17.3827 18.4948 17.3121 18.4954 17.2535 18.5273Z"/>
  </g>
  <defs>
    <filter id="filter0_d_5_172" width="14" height="20" x="8.66663" y="0" color-interpolation-filters="sRGB" filterUnits="userSpaceOnUse">
      <feFlood flood-opacity="0" result="BackgroundImageFix"/>
      <feColorMatrix in="SourceAlpha" result="hardAlpha" type="matrix" values="0 0 0 0 0 0 0 0 0 0 0 0 0 0 0 0 0 0 127 0"/>
      <feOffset/>
      <feColorMatrix type="matrix" values="0 0 0 0 0 0 0 0 0 0 0 0 0 0 0 0 0 0 0.06 0"/>
      <feBlend in2="BackgroundImageFix" mode="normal" result="effect1_dropShadow_5_172"/>
      <feBlend in="SourceGraphic" in2="effect1_dropShadow_5_172" mode="normal" result="shape"/>
    </filter>
    <clipPath id="clip0_5_172">
      <rect width="28" height="20" fill="white"/>
    </clipPath>
  </defs>
</svg>
