<svg xmlns="http://www.w3.org/2000/svg" fill="none" viewBox="0 0 28 20" aria-hidden="true">
  <g clip-path="url(#clip0_5_141)">
    <rect width="28" height="20" fill="white" rx="2"/>
    <mask id="mask0_5_141" width="28" height="20" x="0" y="0" maskUnits="userSpaceOnUse" style="mask-type:luminance">
      <rect width="28" height="20" fill="white" rx="2"/>
    </mask>
    <g mask="url(#mask0_5_141)">
      <rect width="28" height="20" fill="#F63030"/>
      <path fill="#50B500" fill-rule="evenodd" d="M0 0L12 10L0 20V0Z" clip-rule="evenodd"/>
      <path fill="#50B500" fill-rule="evenodd" d="M28 0L16 10L28 20V0Z" clip-rule="evenodd"/>
      <path fill="white" fill-rule="evenodd" d="M16.9621 6.39369C16.1563 5.7311 15.1246 5.33328 14 5.33328C12.8753 5.33328 11.8436 5.7311 11.0379 6.39369L-1.2825 -1.9165L-2.77368 0.294263L9.54573 8.60381C9.4077 9.04464 9.3333 9.5136 9.3333 9.99994C9.3333 10.4863 9.4077 10.9552 9.54573 11.3961L-2.77368 19.7056L-1.2825 21.9164L11.0379 13.6062C11.8436 14.2688 12.8753 14.6666 14 14.6666C15.1246 14.6666 16.1563 14.2688 16.9621 13.6062L29.2824 21.9164L30.7736 19.7056L18.4542 11.3961C18.5922 10.9552 18.6666 10.4863 18.6666 9.99994C18.6666 9.5136 18.5922 9.04464 18.4542 8.60381L30.7736 0.294263L29.2824 -1.9165L16.9621 6.39369Z" clip-rule="evenodd"/>
      <path fill="#F63030" d="M13.9351 9.1827L13.5083 9.40708C13.3743 9.47753 13.2085 9.42601 13.1381 9.29199C13.11 9.23863 13.1003 9.1775 13.1105 9.11808L13.192 8.64283C13.1998 8.59761 13.1848 8.55146 13.152 8.51943L12.8067 8.18286C12.6982 8.07718 12.696 7.90361 12.8017 7.79519C12.8438 7.75202 12.8989 7.72392 12.9586 7.71525L13.4358 7.64591C13.4812 7.63932 13.5204 7.6108 13.5407 7.56965L13.7541 7.13725C13.8212 7.00148 13.9855 6.94574 14.1213 7.01275C14.1754 7.03943 14.2191 7.08319 14.2458 7.13725L14.4592 7.56965C14.4795 7.6108 14.5188 7.63932 14.5642 7.64591L15.0414 7.71525C15.1912 7.73702 15.295 7.87614 15.2732 8.02597C15.2646 8.08563 15.2365 8.14078 15.1933 8.18286L14.848 8.51943C14.8152 8.55146 14.8002 8.59761 14.8079 8.64283L14.8894 9.11808C14.915 9.26731 14.8148 9.40903 14.6656 9.43462C14.6061 9.44481 14.545 9.43513 14.4917 9.40708L14.0649 9.1827C14.0242 9.16134 13.9757 9.16134 13.9351 9.1827Z"/>
      <path fill="#F63030" d="M15.9935 12.3958L15.5667 12.6202C15.4326 12.6907 15.2669 12.6391 15.1964 12.5051C15.1684 12.4518 15.1587 12.3906 15.1689 12.3312L15.2504 11.856C15.2582 11.8107 15.2432 11.7646 15.2103 11.7326L14.865 11.396C14.7566 11.2903 14.7544 11.1167 14.8601 11.0083C14.9021 10.9652 14.9573 10.9371 15.017 10.9284L15.4941 10.859C15.5395 10.8525 15.5788 10.8239 15.5991 10.7828L15.8125 10.3504C15.8795 10.2146 16.0439 10.1589 16.1797 10.2259C16.2337 10.2526 16.2775 10.2963 16.3042 10.3504L16.5176 10.7828C16.5379 10.8239 16.5771 10.8525 16.6225 10.859L17.0997 10.9284C17.2495 10.9502 17.3534 11.0893 17.3316 11.2391C17.3229 11.2988 17.2948 11.3539 17.2516 11.396L16.9064 11.7326C16.8735 11.7646 16.8585 11.8107 16.8663 11.856L16.9478 12.3312C16.9734 12.4804 16.8731 12.6222 16.7239 12.6478C16.6645 12.6579 16.6034 12.6483 16.55 12.6202L16.1232 12.3958C16.0826 12.3745 16.0341 12.3745 15.9935 12.3958Z"/>
      <path fill="#F63030" d="M11.9729 12.3958L11.5462 12.6202C11.4121 12.6907 11.2464 12.6391 11.1759 12.5051C11.1479 12.4518 11.1382 12.3906 11.1484 12.3312L11.2299 11.856C11.2376 11.8107 11.2227 11.7646 11.1898 11.7326L10.8445 11.396C10.7361 11.2903 10.7339 11.1167 10.8396 11.0083C10.8816 10.9652 10.9368 10.9371 10.9964 10.9284L11.4736 10.859C11.519 10.8525 11.5583 10.8239 11.5786 10.7828L11.792 10.3504C11.859 10.2146 12.0234 10.1589 12.1592 10.2259C12.2132 10.2526 12.257 10.2963 12.2837 10.3504L12.4971 10.7828C12.5174 10.8239 12.5566 10.8525 12.602 10.859L13.0792 10.9284C13.229 10.9502 13.3329 11.0893 13.3111 11.2391C13.3024 11.2988 13.2743 11.3539 13.2311 11.396L12.8859 11.7326C12.853 11.7646 12.838 11.8107 12.8458 11.856L12.9273 12.3312C12.9529 12.4804 12.8526 12.6222 12.7034 12.6478C12.644 12.6579 12.5829 12.6483 12.5295 12.6202L12.1027 12.3958C12.0621 12.3745 12.0136 12.3745 11.9729 12.3958Z"/>
    </g>
  </g>
  <defs>
    <clipPath id="clip0_5_141">
      <rect width="28" height="20" fill="white"/>
    </clipPath>
  </defs>
</svg>
