<svg xmlns="http://www.w3.org/2000/svg" fill="none" viewBox="0 0 28 20" aria-hidden="true">
  <g clip-path="url(#clip0_27_270)">
    <rect width="28" height="20" fill="#F63030"/>
    <path fill="white" fill-rule="evenodd" d="M3.00838 6.00968H1.18952C1.0982 6.00968 1.02417 5.93565 1.02417 5.84433V4.19082C1.02417 4.0995 1.0982 4.02547 1.18952 4.02547H3.00838V2.20661C3.00838 2.11529 3.08241 2.04126 3.17373 2.04126H4.82724C4.91856 2.04126 4.99259 2.11529 4.99259 2.20661V4.02547H6.81146C6.90278 4.02547 6.97681 4.0995 6.97681 4.19082V5.84433C6.97681 5.93565 6.90278 6.00968 6.81146 6.00968H4.99259V7.82855C4.99259 7.91987 4.91856 7.9939 4.82724 7.9939H3.17373C3.08241 7.9939 3.00838 7.91987 3.00838 7.82855V6.00968Z" clip-rule="evenodd"/>
    <path fill="white" fill-rule="evenodd" d="M12.961 6.00968H11.1422C11.0508 6.00968 10.9768 5.93565 10.9768 5.84433V4.19082C10.9768 4.0995 11.0508 4.02547 11.1422 4.02547H12.961V2.20661C12.961 2.11529 13.035 2.04126 13.1264 2.04126H14.7799C14.8712 2.04126 14.9452 2.11529 14.9452 2.20661V4.02547H16.7641C16.8554 4.02547 16.9294 4.0995 16.9294 4.19082V5.84433C16.9294 5.93565 16.8554 6.00968 16.7641 6.00968H14.9452V7.82855C14.9452 7.91987 14.8712 7.9939 14.7799 7.9939H13.1264C13.035 7.9939 12.961 7.91987 12.961 7.82855V6.00968Z" clip-rule="evenodd"/>
    <path fill="white" fill-rule="evenodd" d="M22.9137 6.00968H21.0948C21.0035 6.00968 20.9294 5.93565 20.9294 5.84433V4.19082C20.9294 4.0995 21.0035 4.02547 21.0948 4.02547H22.9137V2.20661C22.9137 2.11529 22.9877 2.04126 23.079 2.04126H24.7325C24.8238 2.04126 24.8979 2.11529 24.8979 2.20661V4.02547H26.7167C26.8081 4.02547 26.8821 4.0995 26.8821 4.19082V5.84433C26.8821 5.93565 26.8081 6.00968 26.7167 6.00968H24.8979V7.82855C24.8979 7.91987 24.8238 7.9939 24.7325 7.9939H23.079C22.9877 7.9939 22.9137 7.91987 22.9137 7.82855V6.00968Z" clip-rule="evenodd"/>
    <path fill="white" fill-rule="evenodd" d="M8.03158 -0.0315754H6.21271C6.12139 -0.0315754 6.04736 -0.105606 6.04736 -0.196926V-1.85044C6.04736 -1.94176 6.12139 -2.01579 6.21271 -2.01579H8.03158V-3.83465C8.03158 -3.92597 8.10561 -4 8.19693 -4H9.85044C9.94176 -4 10.0158 -3.92597 10.0158 -3.83465V-2.01579H11.8346C11.926 -2.01579 12 -1.94176 12 -1.85044V-0.196927C12 -0.105606 11.926 -0.0315754 11.8346 -0.0315754H10.0158V1.78729C10.0158 1.87861 9.94176 1.95264 9.85044 1.95264H8.19693C8.10561 1.95264 8.03158 1.87861 8.03158 1.78729V-0.0315754Z" clip-rule="evenodd"/>
    <path fill="white" fill-rule="evenodd" d="M17.9842 -0.0315754H16.1654C16.074 -0.0315754 16 -0.105606 16 -0.196926V-1.85044C16 -1.94176 16.074 -2.01579 16.1654 -2.01579H17.9842V-3.83465C17.9842 -3.92597 18.0582 -4 18.1496 -4H19.8031C19.8944 -4 19.9684 -3.92597 19.9684 -3.83465V-2.01579H21.7873C21.8786 -2.01579 21.9526 -1.94176 21.9526 -1.85044V-0.196927C21.9526 -0.105606 21.8786 -0.0315754 21.7873 -0.0315754H19.9684V1.78729C19.9684 1.87861 19.8944 1.95264 19.8031 1.95264H18.1496C18.0582 1.95264 17.9842 1.87861 17.9842 1.78729V-0.0315754Z" clip-rule="evenodd"/>
    <path fill="white" fill-rule="evenodd" d="M8.03158 11.9623H6.21271C6.12139 11.9623 6.04736 11.8883 6.04736 11.797V10.1435C6.04736 10.0521 6.12139 9.97811 6.21271 9.97811H8.03158V8.15925C8.03158 8.06793 8.10561 7.9939 8.19693 7.9939H9.85044C9.94176 7.9939 10.0158 8.06793 10.0158 8.15925V9.97811H11.8346C11.926 9.97811 12 10.0521 12 10.1435V11.797C12 11.8883 11.926 11.9623 11.8346 11.9623H10.0158V13.7812C10.0158 13.8725 9.94176 13.9465 9.85044 13.9465H8.19693C8.10561 13.9465 8.03158 13.8725 8.03158 13.7812V11.9623Z" clip-rule="evenodd"/>
    <path fill="white" fill-rule="evenodd" d="M17.9842 11.9623H16.1654C16.074 11.9623 16 11.8883 16 11.797V10.1435C16 10.0521 16.074 9.97811 16.1654 9.97811H17.9842V8.15925C17.9842 8.06793 18.0582 7.9939 18.1496 7.9939H19.8031C19.8944 7.9939 19.9684 8.06793 19.9684 8.15925V9.97811H21.7873C21.8786 9.97811 21.9526 10.0521 21.9526 10.1435V11.797C21.9526 11.8883 21.8786 11.9623 21.7873 11.9623H19.9684V13.7812C19.9684 13.8725 19.8944 13.9465 19.8031 13.9465H18.1496C18.0582 13.9465 17.9842 13.8725 17.9842 13.7812V11.9623Z" clip-rule="evenodd"/>
    <path fill="#FFDA27" fill-rule="evenodd" d="M0 15H28V10H0V15Z" clip-rule="evenodd"/>
    <path fill="#4C4C4C" fill-rule="evenodd" d="M0 20H28V15H0V20Z" clip-rule="evenodd"/>
  </g>
  <defs>
    <clipPath id="clip0_27_270">
      <rect width="28" height="20" fill="white"/>
    </clipPath>
  </defs>
</svg>
