<svg xmlns="http://www.w3.org/2000/svg" fill="none" viewBox="0 0 28 20" aria-hidden="true">
  <g clip-path="url(#clip0_8_410)">
    <rect width="28" height="20" fill="#FFDA27"/>
    <path fill="#F63030" fill-rule="evenodd" d="M15.5266 -3.4679L15.5266 23.468L18.4895 23.468L18.4895 -3.4679L15.5266 -3.4679Z" clip-rule="evenodd"/>
    <path fill="#F63030" fill-rule="evenodd" d="M9.51093 -3.4679L9.51093 23.468L12.4739 23.468L12.4739 -3.4679L9.51093 -3.4679Z" clip-rule="evenodd"/>
    <path fill="#F63030" fill-rule="evenodd" d="M3.49506 -3.4679L3.49506 23.468L6.45801 23.468L6.45801 -3.4679L3.49506 -3.4679Z" clip-rule="evenodd"/>
    <path fill="#F63030" fill-rule="evenodd" d="M21.5422 -3.4679L21.5422 23.468L24.5051 23.468L24.5051 -3.4679L21.5422 -3.4679Z" clip-rule="evenodd"/>
    <rect width="9.87422" height="9.87422" x="14" y="2.54517" fill="white" stroke="#4C4C4C" stroke-width="0.884076" transform="rotate(45 14 2.54517)"/>
    <mask id="mask0_8_410" width="14" height="15" x="7" y="2" maskUnits="userSpaceOnUse" style="mask-type:alpha">
      <rect width="4.93711" height="4.93711" x="14" y="6.03623" fill="white" stroke="black" stroke-width="4.93711" transform="rotate(45 14 6.03623)"/>
    </mask>
    <g mask="url(#mask0_8_410)">
      <rect width="9.87422" height="9.87422" x="14" y="2.54517" fill="white" transform="rotate(45 14 2.54517)"/>
      <path fill="#F63030" d="M11.6506 8.2945C11.6506 7.84917 12.0116 7.48816 12.457 7.48816C12.9023 7.48816 13.2633 7.84917 13.2633 8.2945V10.7231H11.6506V8.2945Z"/>
      <path fill="white" d="M11.6506 9.92072C11.6506 9.47539 12.0116 9.11438 12.457 9.11438C12.9023 9.11438 13.2633 9.47539 13.2633 9.92072V12.3493H11.6506V9.92072Z"/>
      <path fill="#F63030" d="M14.876 10.7306C14.876 11.176 14.515 11.537 14.0696 11.537C13.6243 11.537 13.2633 11.176 13.2633 10.7306V8.32334H14.876V10.7306Z"/>
      <path fill="white" d="M13.2698 8.85174C13.2698 9.29707 13.6308 9.65808 14.0761 9.65808C14.5214 9.65808 14.8825 9.29707 14.8825 8.85174V6.71276H13.2698V8.85174Z"/>
      <path fill="#F63030" d="M8.41919 8.2945C8.41919 7.84917 8.7802 7.48816 9.22553 7.48816C9.67086 7.48816 10.0319 7.84917 10.0319 8.2945V10.7231H8.41919V8.2945Z"/>
      <path fill="white" d="M8.41919 9.92072C8.41919 9.47539 8.7802 9.11438 9.22553 9.11438C9.67086 9.11438 10.0319 9.47539 10.0319 9.92072V12.3493H8.41919V9.92072Z"/>
      <path fill="#F63030" d="M11.6445 10.7306C11.6445 11.176 11.2835 11.537 10.8382 11.537C10.3929 11.537 10.0319 11.176 10.0319 10.7306V8.32334H11.6445V10.7306Z"/>
      <path fill="white" d="M10.0381 8.85174C10.0381 9.29707 10.3991 9.65808 10.8444 9.65808C11.2898 9.65808 11.6508 9.29707 11.6508 8.85174V6.71276H10.0381V8.85174Z"/>
      <path fill="#F63030" d="M14.8762 8.2945C14.8762 7.84917 15.2372 7.48816 15.6826 7.48816C16.1279 7.48816 16.4889 7.84917 16.4889 8.2945V10.7231H14.8762V8.2945Z"/>
      <path fill="white" d="M14.8762 9.92072C14.8762 9.47539 15.2372 9.11438 15.6826 9.11438C16.1279 9.11438 16.4889 9.47539 16.4889 9.92072V12.3493H14.8762V9.92072Z"/>
      <path fill="#F63030" d="M18.1016 10.7306C18.1016 11.176 17.7406 11.537 17.2952 11.537C16.8499 11.537 16.4889 11.176 16.4889 10.7306V8.32334H18.1016V10.7306Z"/>
      <path fill="white" d="M16.4951 8.85174C16.4951 9.29707 16.8561 9.65808 17.3015 9.65808C17.7468 9.65808 18.1078 9.29707 18.1078 8.85174V6.71276H16.4951V8.85174Z"/>
      <path fill="#F63030" d="M18.1079 8.2945C18.1079 7.84917 18.4689 7.48816 18.9142 7.48816C19.3596 7.48816 19.7206 7.84917 19.7206 8.2945V10.7231H18.1079V8.2945Z"/>
      <path fill="white" d="M18.1079 9.92072C18.1079 9.47539 18.4689 9.11438 18.9142 9.11438C19.3596 9.11438 19.7206 9.47539 19.7206 9.92072V12.3493H18.1079V9.92072Z"/>
      <path fill="#F63030" d="M21.3333 10.7306C21.3333 11.176 20.9722 11.537 20.5269 11.537C20.0816 11.537 19.7206 11.176 19.7206 10.7306V8.32334H21.3333V10.7306Z"/>
      <path fill="white" d="M19.7268 8.85174C19.7268 9.29707 20.0878 9.65808 20.5331 9.65808C20.9785 9.65808 21.3395 9.29707 21.3395 8.85174V6.71276H19.7268V8.85174Z"/>
      <path fill="#F63030" d="M8.41919 10.7306C8.41919 11.176 8.05818 11.537 7.61285 11.537C7.16752 11.537 6.80651 11.176 6.80651 10.7306V8.32334H8.41919V10.7306Z"/>
      <path fill="white" d="M6.81274 8.85174C6.81274 9.29707 7.17375 9.65808 7.61908 9.65808C8.06441 9.65808 8.42542 9.29707 8.42542 8.85174V6.71276H6.81274V8.85174Z"/>
      <path fill="#F63030" d="M14.8191 12.1182C14.8191 11.6729 15.1801 11.3119 15.6254 11.3119C16.0708 11.3119 16.4318 11.6729 16.4318 12.1182V14.5468H14.8191V12.1182Z"/>
      <path fill="white" d="M14.8191 13.7443C14.8191 13.299 15.1801 12.938 15.6254 12.938C16.0708 12.938 16.4318 13.299 16.4318 13.7443V16.1729H14.8191V13.7443Z"/>
      <path fill="#F63030" d="M18.0447 14.5543C18.0447 14.9996 17.6837 15.3606 17.2383 15.3606C16.793 15.3606 16.432 14.9996 16.432 14.5543V12.147H18.0447V14.5543Z"/>
      <path fill="white" d="M16.4382 12.6754C16.4382 13.1207 16.7992 13.4817 17.2446 13.4817C17.6899 13.4817 18.0509 13.1207 18.0509 12.6754V12.0382H16.4382V12.6754Z"/>
      <path fill="#F63030" d="M11.5874 12.1182C11.5874 11.6729 11.9484 11.3119 12.3937 11.3119C12.8391 11.3119 13.2001 11.6729 13.2001 12.1182V14.5468H11.5874V12.1182Z"/>
      <path fill="white" d="M11.5874 13.7443C11.5874 13.299 11.9484 12.938 12.3937 12.938C12.8391 12.938 13.2001 13.299 13.2001 13.7443V16.1729H11.5874V13.7443Z"/>
      <path fill="#F63030" d="M14.8127 14.5543C14.8127 14.9996 14.4517 15.3606 14.0064 15.3606C13.5611 15.3606 13.2001 14.9996 13.2001 14.5543V12.147H14.8127V14.5543Z"/>
      <path fill="white" d="M13.2063 12.6754C13.2063 13.1207 13.5673 13.4817 14.0126 13.4817C14.458 13.4817 14.819 13.1207 14.819 12.6754V12.0168H13.2063V12.6754Z"/>
      <path fill="#F63030" d="M18.0444 12.1182C18.0444 11.6729 18.4054 11.3119 18.8508 11.3119C19.2961 11.3119 19.6571 11.6729 19.6571 12.1182V14.5468H18.0444V12.1182Z"/>
      <path fill="white" d="M18.0442 13.7445C18.0442 13.2991 18.4052 12.9381 18.8505 12.9381C19.2959 12.9381 19.6569 13.2991 19.6569 13.7444V16.173H18.0442V13.7445Z"/>
      <path fill="#F63030" d="M21.2698 14.5543C21.2698 14.9996 20.9088 15.3606 20.4634 15.3606C20.0181 15.3606 19.6571 14.9996 19.6571 14.5543V12.147H21.2698V14.5543Z"/>
      <path fill="white" d="M19.6633 12.6754C19.6633 13.1207 20.0243 13.4817 20.4697 13.4817C20.915 13.4817 21.276 13.1207 21.276 12.6754V11.6999H19.6633V12.6754Z"/>
      <path fill="#F63030" d="M8.36206 12.1182C8.36206 11.6729 8.72307 11.3119 9.1684 11.3119C9.61373 11.3119 9.97474 11.6729 9.97474 12.1182V14.5468H8.36206V12.1182Z"/>
      <path fill="white" d="M8.36206 13.7445C8.36206 13.2991 8.72307 12.9381 9.1684 12.9381C9.61373 12.9381 9.97474 13.2991 9.97474 13.7444V16.173H8.36206V13.7445Z"/>
      <path fill="#F63030" d="M11.5874 14.5543C11.5874 14.9996 11.2264 15.3606 10.7811 15.3606C10.3357 15.3606 9.97472 14.9996 9.97472 14.5543V12.147H11.5874V14.5543Z"/>
      <path fill="white" d="M9.98096 12.6754C9.98096 13.1207 10.342 13.4817 10.7873 13.4817C11.2326 13.4817 11.5936 13.1207 11.5936 12.6754V11.6999H9.98096V12.6754Z"/>
      <path fill="#F63030" d="M11.573 4.01374C11.573 3.56841 11.934 3.2074 12.3793 3.2074C12.8247 3.2074 13.1857 3.56841 13.1857 4.01374V6.4423H11.573V4.01374Z"/>
      <path fill="white" d="M11.573 5.64008C11.573 5.19475 11.934 4.83374 12.3793 4.83374C12.8247 4.83374 13.1857 5.19475 13.1857 5.64008V6.87721H11.573V5.64008Z"/>
      <path fill="#F63030" d="M14.7983 6.44989C14.7983 6.89522 14.4373 7.25623 13.992 7.25623C13.5467 7.25623 13.1857 6.89522 13.1857 6.44989V4.04258H14.7983V6.44989Z"/>
      <path fill="white" d="M13.1919 4.57098C13.1919 5.01631 13.5529 5.37732 13.9982 5.37732C14.4436 5.37732 14.8046 5.01631 14.8046 4.57098V3.9338H13.1919V4.57098Z"/>
      <path fill="#F63030" d="M8.34131 4.01374C8.34131 3.56841 8.70232 3.2074 9.14765 3.2074C9.59298 3.2074 9.95399 3.56841 9.95399 4.01374V6.4423H8.34131V4.01374Z"/>
      <path fill="white" d="M8.34131 5.64008C8.34131 5.19475 8.70232 4.83374 9.14765 4.83374C9.59298 4.83374 9.95399 5.19475 9.95399 5.64008V6.87721H8.34131V5.64008Z"/>
      <path fill="#F63030" d="M11.5667 6.44989C11.5667 6.89522 11.2056 7.25623 10.7603 7.25623C10.315 7.25623 9.95397 6.89522 9.95397 6.44989V4.04258H11.5667V6.44989Z"/>
      <path fill="white" d="M9.96021 4.57098C9.96021 5.01631 10.3212 5.37732 10.7665 5.37732C11.2119 5.37732 11.5729 5.01631 11.5729 4.57098V3.91248H9.96021V4.57098Z"/>
      <path fill="#F63030" d="M14.7983 4.01374C14.7983 3.56841 15.1594 3.2074 15.6047 3.2074C16.05 3.2074 16.411 3.56841 16.411 4.01374V6.4423H14.7983V4.01374Z"/>
      <path fill="white" d="M14.7983 5.64008C14.7983 5.19475 15.1594 4.83374 15.6047 4.83374C16.05 4.83374 16.411 5.19475 16.411 5.64008V6.87721H14.7983V5.64008Z"/>
      <path fill="#F63030" d="M18.0237 6.44989C18.0237 6.89522 17.6627 7.25623 17.2173 7.25623C16.772 7.25623 16.411 6.89522 16.411 6.44989V4.04258H18.0237V6.44989Z"/>
      <path fill="white" d="M16.4172 4.57098C16.4172 5.01631 16.7782 5.37732 17.2236 5.37732C17.6689 5.37732 18.0299 5.01631 18.0299 4.57098V2.432H16.4172V4.57098Z"/>
      <path fill="#F63030" d="M18.03 4.01374C18.03 3.56841 18.391 3.2074 18.8364 3.2074C19.2817 3.2074 19.6427 3.56841 19.6427 4.01374V6.4423H18.03V4.01374Z"/>
      <path fill="white" d="M18.03 5.64008C18.03 5.19475 18.391 4.83374 18.8364 4.83374C19.2817 4.83374 19.6427 5.19475 19.6427 5.64008V7.14932H18.03V5.64008Z"/>
      <path fill="#F63030" d="M21.2556 6.44989C21.2556 6.89522 20.8946 7.25623 20.4493 7.25623C20.0039 7.25623 19.6429 6.89522 19.6429 6.44989V4.04258H21.2556V6.44989Z"/>
      <path fill="white" d="M19.6489 4.57098C19.6489 5.01631 20.0099 5.37732 20.4553 5.37732C20.9006 5.37732 21.2616 5.01631 21.2616 4.57098V2.432H19.6489V4.57098Z"/>
      <path fill="#F63030" d="M8.34131 6.44989C8.34131 6.89522 7.9803 7.25623 7.53497 7.25623C7.08964 7.25623 6.72863 6.89522 6.72863 6.44989V4.04258H8.34131V6.44989Z"/>
      <path fill="white" d="M6.73486 4.57098C6.73486 5.01631 7.09587 5.37732 7.5412 5.37732C7.98653 5.37732 8.34754 5.01631 8.34754 4.57098V2.432H6.73486V4.57098Z"/>
    </g>
  </g>
  <defs>
    <clipPath id="clip0_8_410">
      <rect width="28" height="20" fill="white"/>
    </clipPath>
  </defs>
</svg>
