<svg xmlns="http://www.w3.org/2000/svg" fill="none" viewBox="0 0 28 20" aria-hidden="true">
  <g clip-path="url(#clip0_8_329)">
    <rect width="28" height="20" fill="#F63030"/>
    <path fill="#FFDA27" d="M3.0024 3.80975L2.71677 3.96126C2.62124 4.01193 2.50271 3.97556 2.45204 3.88003C2.43179 3.84185 2.42474 3.79806 2.43198 3.75546L2.48726 3.43027C2.49496 3.38496 2.48002 3.33875 2.44726 3.30653L2.21402 3.07715C2.13628 3.0007 2.13524 2.8757 2.21169 2.79797C2.24187 2.76728 2.28124 2.7473 2.32381 2.74106L2.64348 2.6942C2.68935 2.68747 2.72895 2.65855 2.74932 2.61691L2.89251 2.32419C2.93999 2.22714 3.05715 2.18694 3.15421 2.23442C3.19328 2.25353 3.22487 2.28512 3.24398 2.32419L3.38717 2.61691C3.40754 2.65855 3.44714 2.68747 3.49302 2.6942L3.81268 2.74106C3.92056 2.75688 3.99519 2.85715 3.97938 2.96503C3.97313 3.00761 3.95315 3.04698 3.92247 3.07715L3.68924 3.30653C3.65647 3.33875 3.64153 3.38496 3.64923 3.43027L3.70451 3.75546C3.72264 3.86207 3.6509 3.96319 3.54429 3.98131C3.50169 3.98856 3.45789 3.9815 3.41972 3.96126L3.13409 3.80975C3.09291 3.78791 3.04358 3.78791 3.0024 3.80975Z"/>
    <path fill="#FFDA27" d="M5.35665 3.80975L5.07102 3.96126C4.97549 4.01193 4.85696 3.97556 4.80628 3.88003C4.78604 3.84185 4.77898 3.79806 4.78623 3.75546L4.84151 3.43027C4.84921 3.38496 4.83427 3.33875 4.8015 3.30653L4.56827 3.07715C4.49053 3.0007 4.48949 2.8757 4.56594 2.79797C4.59611 2.76728 4.63549 2.7473 4.67806 2.74106L4.99773 2.6942C5.0436 2.68747 5.0832 2.65855 5.10357 2.61691L5.24676 2.32419C5.29423 2.22714 5.4114 2.18694 5.50846 2.23442C5.54753 2.25353 5.57912 2.28512 5.59823 2.32419L5.74142 2.61691C5.76179 2.65855 5.80139 2.68747 5.84726 2.6942L6.16693 2.74106C6.27481 2.75688 6.34944 2.85715 6.33362 2.96503C6.32738 3.00761 6.3074 3.04698 6.27672 3.07715L6.04348 3.30653C6.01072 3.33875 5.99578 3.38496 6.00348 3.43027L6.05876 3.75546C6.07689 3.86207 6.00515 3.96319 5.89854 3.98131C5.85594 3.98856 5.81214 3.9815 5.77397 3.96126L5.48834 3.80975C5.44716 3.78791 5.39783 3.78791 5.35665 3.80975Z"/>
    <path fill="#FFDA27" d="M3.0024 6.12433L2.71677 6.27583C2.62124 6.3265 2.50271 6.29014 2.45204 6.1946C2.43179 6.15643 2.42474 6.11263 2.43198 6.07003L2.48726 5.74484C2.49496 5.69954 2.48002 5.65333 2.44726 5.6211L2.21402 5.39173C2.13628 5.31528 2.13524 5.19028 2.21169 5.11254C2.24187 5.08186 2.28124 5.06188 2.32381 5.05564L2.64348 5.00877C2.68935 5.00205 2.72895 4.97313 2.74932 4.93148L2.89251 4.63877C2.93999 4.54171 3.05715 4.50152 3.15421 4.549C3.19328 4.56811 3.22487 4.5997 3.24398 4.63877L3.38717 4.93148C3.40754 4.97313 3.44714 5.00205 3.49302 5.00877L3.81268 5.05564C3.92056 5.07145 3.99519 5.17173 3.97938 5.27961C3.97313 5.32218 3.95315 5.36155 3.92247 5.39173L3.68924 5.6211C3.65647 5.65333 3.64153 5.69954 3.64923 5.74484L3.70451 6.07003C3.72264 6.17665 3.6509 6.27777 3.54429 6.29589C3.50169 6.30313 3.45789 6.29608 3.41972 6.27583L3.13409 6.12433C3.09291 6.10249 3.04358 6.10249 3.0024 6.12433Z"/>
    <path fill="#FFDA27" d="M5.35665 6.12433L5.07102 6.27583C4.97549 6.3265 4.85696 6.29014 4.80628 6.1946C4.78604 6.15643 4.77898 6.11263 4.78623 6.07003L4.84151 5.74484C4.84921 5.69954 4.83427 5.65333 4.8015 5.6211L4.56827 5.39173C4.49053 5.31528 4.48949 5.19028 4.56594 5.11254C4.59611 5.08186 4.63549 5.06188 4.67806 5.05564L4.99773 5.00877C5.0436 5.00205 5.0832 4.97313 5.10357 4.93148L5.24676 4.63877C5.29423 4.54171 5.4114 4.50152 5.50846 4.549C5.54753 4.56811 5.57912 4.5997 5.59823 4.63877L5.74142 4.93148C5.76179 4.97313 5.80139 5.00205 5.84726 5.00877L6.16693 5.05564C6.27481 5.07145 6.34944 5.17173 6.33362 5.27961C6.32738 5.32218 6.3074 5.36155 6.27672 5.39173L6.04348 5.6211C6.01072 5.65333 5.99578 5.69954 6.00348 5.74484L6.05876 6.07003C6.07689 6.17665 6.00515 6.27777 5.89854 6.29589C5.85594 6.30313 5.81214 6.29608 5.77397 6.27583L5.48834 6.12433C5.44716 6.10249 5.39783 6.10249 5.35665 6.12433Z"/>
    <path fill="#FFDA27" d="M23.6955 18.1594L23.4099 18.3109C23.3144 18.3615 23.1958 18.3252 23.1452 18.2296C23.1249 18.1915 23.1179 18.1477 23.1251 18.1051L23.1804 17.7799C23.1881 17.7346 23.1731 17.6884 23.1404 17.6561L22.9071 17.4268C22.8294 17.3503 22.8284 17.2253 22.9048 17.1476C22.935 17.1169 22.9744 17.0969 23.0169 17.0907L23.3366 17.0438C23.3825 17.0371 23.4221 17.0082 23.4424 16.9665L23.5856 16.6738C23.6331 16.5767 23.7503 16.5366 23.8473 16.584C23.8864 16.6031 23.918 16.6347 23.9371 16.6738L24.0803 16.9665C24.1007 17.0082 24.1403 17.0371 24.1861 17.0438L24.5058 17.0907C24.6137 17.1065 24.6883 17.2068 24.6725 17.3146C24.6662 17.3572 24.6463 17.3966 24.6156 17.4268L24.3824 17.6561C24.3496 17.6884 24.3346 17.7346 24.3423 17.7799L24.3976 18.1051C24.4158 18.2117 24.344 18.3128 24.2374 18.3309C24.1948 18.3382 24.151 18.3311 24.1128 18.3109L23.8272 18.1594C23.786 18.1375 23.7367 18.1375 23.6955 18.1594Z"/>
    <path fill="#FFDA27" d="M23.6955 15.9703L23.4099 16.1218C23.3144 16.1725 23.1958 16.1361 23.1452 16.0405C23.1249 16.0024 23.1179 15.9586 23.1251 15.916L23.1804 15.5908C23.1881 15.5455 23.1731 15.4993 23.1404 15.4671L22.9071 15.2377C22.8294 15.1612 22.8284 15.0362 22.9048 14.9585C22.935 14.9278 22.9744 14.9078 23.0169 14.9016L23.3366 14.8547C23.3825 14.848 23.4221 14.8191 23.4424 14.7774L23.5856 14.4847C23.6331 14.3877 23.7503 14.3475 23.8473 14.3949C23.8864 14.4141 23.918 14.4456 23.9371 14.4847L24.0803 14.7774C24.1007 14.8191 24.1403 14.848 24.1861 14.8547L24.5058 14.9016C24.6137 14.9174 24.6883 15.0177 24.6725 15.1256C24.6662 15.1681 24.6463 15.2075 24.6156 15.2377L24.3824 15.4671C24.3496 15.4993 24.3346 15.5455 24.3423 15.5908L24.3976 15.916C24.4158 16.0226 24.344 16.1237 24.2374 16.1418C24.1948 16.1491 24.151 16.142 24.1128 16.1218L23.8272 15.9703C23.786 15.9484 23.7367 15.9484 23.6955 15.9703Z"/>
    <path fill="#FFDA27" d="M25.5219 16.855L25.2363 17.0065C25.1408 17.0572 25.0222 17.0209 24.9716 16.9253C24.9513 16.8871 24.9443 16.8433 24.9515 16.8007L25.0068 16.4756C25.0145 16.4303 24.9996 16.384 24.9668 16.3518L24.7336 16.1224C24.6558 16.046 24.6548 15.921 24.7312 15.8433C24.7614 15.8126 24.8008 15.7926 24.8433 15.7863L25.163 15.7395C25.2089 15.7328 25.2485 15.7038 25.2689 15.6622L25.412 15.3695C25.4595 15.2724 25.5767 15.2322 25.6737 15.2797C25.7128 15.2988 25.7444 15.3304 25.7635 15.3695L25.9067 15.6622C25.9271 15.7038 25.9667 15.7328 26.0125 15.7395L26.3322 15.7863C26.4401 15.8022 26.5147 15.9024 26.4989 16.0103C26.4927 16.0529 26.4727 16.0923 26.442 16.1224L26.2088 16.3518C26.176 16.384 26.1611 16.4303 26.1688 16.4756L26.224 16.8007C26.2422 16.9074 26.1704 17.0085 26.0638 17.0266C26.0212 17.0338 25.9774 17.0268 25.9393 17.0065L25.6536 16.855C25.6124 16.8332 25.5631 16.8332 25.5219 16.855Z"/>
    <path fill="#FFDA27" d="M21.8691 16.855L21.5835 17.0065C21.4879 17.0572 21.3694 17.0209 21.3187 16.9253C21.2985 16.8871 21.2914 16.8433 21.2987 16.8007L21.354 16.4756C21.3617 16.4303 21.3467 16.384 21.314 16.3518L21.0807 16.1224C21.003 16.046 21.0019 15.921 21.0784 15.8433C21.1086 15.8126 21.1479 15.7926 21.1905 15.7863L21.5102 15.7395C21.556 15.7328 21.5957 15.7038 21.616 15.6622L21.7592 15.3695C21.8067 15.2724 21.9239 15.2322 22.0209 15.2797C22.06 15.2988 22.0916 15.3304 22.1107 15.3695L22.2539 15.6622C22.2742 15.7038 22.3138 15.7328 22.3597 15.7395L22.6794 15.7863C22.7873 15.8022 22.8619 15.9024 22.8461 16.0103C22.8398 16.0529 22.8198 16.0923 22.7892 16.1224L22.5559 16.3518C22.5232 16.384 22.5082 16.4303 22.5159 16.4756L22.5712 16.8007C22.5893 16.9074 22.5176 17.0085 22.411 17.0266C22.3684 17.0338 22.3246 17.0268 22.2864 17.0065L22.0008 16.855C21.9596 16.8332 21.9103 16.8332 21.8691 16.855Z"/>
  </g>
  <defs>
    <clipPath id="clip0_8_329">
      <rect width="28" height="20" fill="white"/>
    </clipPath>
  </defs>
</svg>
