<svg xmlns="http://www.w3.org/2000/svg" fill="none" viewBox="0 0 28 20" stroke="currentColor" aria-hidden="true">
  <g clip-path="url(#clip0_8_329)">
    <rect width="28" height="20" fill="#F63030"/>
    <path fill="#FFDA27" d="M3.00252 3.80975L2.7169 3.96126C2.62136 4.01193 2.50283 3.97556 2.45216 3.88003C2.43191 3.84185 2.42486 3.79806 2.4321 3.75546L2.48738 3.43027C2.49508 3.38496 2.48014 3.33875 2.44738 3.30653L2.21414 3.07715C2.13641 3.0007 2.13536 2.8757 2.21182 2.79797C2.24199 2.76728 2.28136 2.7473 2.32394 2.74106L2.6436 2.6942C2.68947 2.68747 2.72907 2.65855 2.74945 2.61691L2.89263 2.32419C2.94011 2.22714 3.05728 2.18694 3.15433 2.23442C3.1934 2.25353 3.22499 2.28512 3.2441 2.32419L3.38729 2.61691C3.40766 2.65855 3.44727 2.68747 3.49314 2.6942L3.8128 2.74106C3.92068 2.75688 3.99531 2.85715 3.9795 2.96503C3.97326 3.00761 3.95327 3.04698 3.92259 3.07715L3.68936 3.30653C3.65659 3.33875 3.64165 3.38496 3.64936 3.43027L3.70464 3.75546C3.72276 3.86207 3.65103 3.96319 3.54441 3.98131C3.50181 3.98856 3.45801 3.9815 3.41984 3.96126L3.13422 3.80975C3.09303 3.78791 3.0437 3.78791 3.00252 3.80975Z"/>
    <path fill="#FFDA27" d="M5.35665 3.80975L5.07102 3.96126C4.97549 4.01193 4.85696 3.97556 4.80628 3.88003C4.78604 3.84185 4.77898 3.79806 4.78623 3.75546L4.84151 3.43027C4.84921 3.38496 4.83427 3.33875 4.8015 3.30653L4.56827 3.07715C4.49053 3.0007 4.48949 2.8757 4.56594 2.79797C4.59611 2.76728 4.63549 2.7473 4.67806 2.74106L4.99773 2.6942C5.0436 2.68747 5.0832 2.65855 5.10357 2.61691L5.24676 2.32419C5.29423 2.22714 5.4114 2.18694 5.50846 2.23442C5.54753 2.25353 5.57912 2.28512 5.59823 2.32419L5.74142 2.61691C5.76179 2.65855 5.80139 2.68747 5.84726 2.6942L6.16693 2.74106C6.27481 2.75688 6.34944 2.85715 6.33362 2.96503C6.32738 3.00761 6.3074 3.04698 6.27672 3.07715L6.04348 3.30653C6.01072 3.33875 5.99578 3.38496 6.00348 3.43027L6.05876 3.75546C6.07689 3.86207 6.00515 3.96319 5.89854 3.98131C5.85594 3.98856 5.81214 3.9815 5.77397 3.96126L5.48834 3.80975C5.44716 3.78791 5.39783 3.78791 5.35665 3.80975Z"/>
    <path fill="#FFDA27" d="M3.00252 6.12433L2.7169 6.27583C2.62136 6.3265 2.50283 6.29014 2.45216 6.1946C2.43191 6.15643 2.42486 6.11263 2.4321 6.07003L2.48738 5.74484C2.49508 5.69954 2.48014 5.65333 2.44738 5.6211L2.21414 5.39173C2.13641 5.31528 2.13536 5.19028 2.21182 5.11254C2.24199 5.08186 2.28136 5.06188 2.32394 5.05564L2.6436 5.00877C2.68947 5.00205 2.72907 4.97313 2.74945 4.93148L2.89263 4.63877C2.94011 4.54171 3.05728 4.50152 3.15433 4.549C3.1934 4.56811 3.22499 4.5997 3.2441 4.63877L3.38729 4.93148C3.40766 4.97313 3.44727 5.00205 3.49314 5.00877L3.8128 5.05564C3.92068 5.07145 3.99531 5.17173 3.9795 5.27961C3.97326 5.32218 3.95327 5.36155 3.92259 5.39173L3.68936 5.6211C3.65659 5.65333 3.64165 5.69954 3.64936 5.74484L3.70464 6.07003C3.72276 6.17665 3.65103 6.27777 3.54441 6.29589C3.50181 6.30313 3.45801 6.29608 3.41984 6.27583L3.13422 6.12433C3.09303 6.10249 3.0437 6.10249 3.00252 6.12433Z"/>
    <path fill="#FFDA27" d="M5.35665 6.12433L5.07102 6.27583C4.97549 6.3265 4.85696 6.29014 4.80628 6.1946C4.78604 6.15643 4.77898 6.11263 4.78623 6.07003L4.84151 5.74484C4.84921 5.69954 4.83427 5.65333 4.8015 5.6211L4.56827 5.39173C4.49053 5.31528 4.48949 5.19028 4.56594 5.11254C4.59611 5.08186 4.63549 5.06188 4.67806 5.05564L4.99773 5.00877C5.0436 5.00205 5.0832 4.97313 5.10357 4.93148L5.24676 4.63877C5.29423 4.54171 5.4114 4.50152 5.50846 4.549C5.54753 4.56811 5.57912 4.5997 5.59823 4.63877L5.74142 4.93148C5.76179 4.97313 5.80139 5.00205 5.84726 5.00877L6.16693 5.05564C6.27481 5.07145 6.34944 5.17173 6.33362 5.27961C6.32738 5.32218 6.3074 5.36155 6.27672 5.39173L6.04348 5.6211C6.01072 5.65333 5.99578 5.69954 6.00348 5.74484L6.05876 6.07003C6.07689 6.17665 6.00515 6.27777 5.89854 6.29589C5.85594 6.30313 5.81214 6.29608 5.77397 6.27583L5.48834 6.12433C5.44716 6.10249 5.39783 6.10249 5.35665 6.12433Z"/>
    <path fill="#FFDA27" d="M23.6958 18.1594L23.4101 18.3109C23.3146 18.3615 23.1961 18.3252 23.1454 18.2296C23.1251 18.1915 23.1181 18.1477 23.1253 18.1051L23.1806 17.7799C23.1883 17.7346 23.1734 17.6884 23.1406 17.6561L22.9074 17.4268C22.8296 17.3503 22.8286 17.2253 22.9051 17.1476C22.9352 17.1169 22.9746 17.0969 23.0172 17.0907L23.3368 17.0438C23.3827 17.0371 23.4223 17.0082 23.4427 16.9665L23.5859 16.6738C23.6333 16.5767 23.7505 16.5366 23.8476 16.584C23.8866 16.6031 23.9182 16.6347 23.9373 16.6738L24.0805 16.9665C24.1009 17.0082 24.1405 17.0371 24.1864 17.0438L24.506 17.0907C24.6139 17.1065 24.6886 17.2068 24.6727 17.3146C24.6665 17.3572 24.6465 17.3966 24.6158 17.4268L24.3826 17.6561C24.3498 17.6884 24.3349 17.7346 24.3426 17.7799L24.3979 18.1051C24.416 18.2117 24.3443 18.3128 24.2376 18.3309C24.195 18.3382 24.1513 18.3311 24.1131 18.3109L23.8275 18.1594C23.7863 18.1375 23.7369 18.1375 23.6958 18.1594Z"/>
    <path fill="#FFDA27" d="M23.6958 15.9703L23.4101 16.1218C23.3146 16.1725 23.1961 16.1361 23.1454 16.0405C23.1251 16.0024 23.1181 15.9586 23.1253 15.916L23.1806 15.5908C23.1883 15.5455 23.1734 15.4993 23.1406 15.4671L22.9074 15.2377C22.8296 15.1612 22.8286 15.0362 22.9051 14.9585C22.9352 14.9278 22.9746 14.9078 23.0172 14.9016L23.3368 14.8547C23.3827 14.848 23.4223 14.8191 23.4427 14.7774L23.5859 14.4847C23.6333 14.3877 23.7505 14.3475 23.8476 14.3949C23.8866 14.4141 23.9182 14.4456 23.9373 14.4847L24.0805 14.7774C24.1009 14.8191 24.1405 14.848 24.1864 14.8547L24.506 14.9016C24.6139 14.9174 24.6886 15.0177 24.6727 15.1256C24.6665 15.1681 24.6465 15.2075 24.6158 15.2377L24.3826 15.4671C24.3498 15.4993 24.3349 15.5455 24.3426 15.5908L24.3979 15.916C24.416 16.0226 24.3443 16.1237 24.2376 16.1418C24.195 16.1491 24.1513 16.142 24.1131 16.1218L23.8275 15.9703C23.7863 15.9484 23.7369 15.9484 23.6958 15.9703Z"/>
    <path fill="#FFDA27" d="M25.5222 16.855L25.2365 17.0065C25.141 17.0572 25.0225 17.0209 24.9718 16.9253C24.9516 16.8871 24.9445 16.8433 24.9518 16.8007L25.007 16.4756C25.0147 16.4303 24.9998 16.384 24.967 16.3518L24.7338 16.1224C24.6561 16.046 24.655 15.921 24.7315 15.8433C24.7616 15.8126 24.801 15.7926 24.8436 15.7863L25.1633 15.7395C25.2091 15.7328 25.2487 15.7038 25.2691 15.6622L25.4123 15.3695C25.4598 15.2724 25.5769 15.2322 25.674 15.2797C25.7131 15.2988 25.7446 15.3304 25.7638 15.3695L25.9069 15.6622C25.9273 15.7038 25.9669 15.7328 26.0128 15.7395L26.3325 15.7863C26.4403 15.8022 26.515 15.9024 26.4992 16.0103C26.4929 16.0529 26.4729 16.0923 26.4422 16.1224L26.209 16.3518C26.1762 16.384 26.1613 16.4303 26.169 16.4756L26.2243 16.8007C26.2424 16.9074 26.1707 17.0085 26.0641 17.0266C26.0215 17.0338 25.9777 17.0268 25.9395 17.0065L25.6539 16.855C25.6127 16.8332 25.5634 16.8332 25.5222 16.855Z"/>
    <path fill="#FFDA27" d="M21.8693 16.855L21.5837 17.0065C21.4882 17.0572 21.3697 17.0209 21.319 16.9253C21.2987 16.8871 21.2917 16.8433 21.2989 16.8007L21.3542 16.4756C21.3619 16.4303 21.347 16.384 21.3142 16.3518L21.081 16.1224C21.0032 16.046 21.0022 15.921 21.0786 15.8433C21.1088 15.8126 21.1482 15.7926 21.1908 15.7863L21.5104 15.7395C21.5563 15.7328 21.5959 15.7038 21.6163 15.6622L21.7595 15.3695C21.8069 15.2724 21.9241 15.2322 22.0212 15.2797C22.0602 15.2988 22.0918 15.3304 22.1109 15.3695L22.2541 15.6622C22.2745 15.7038 22.3141 15.7328 22.36 15.7395L22.6796 15.7863C22.7875 15.8022 22.8621 15.9024 22.8463 16.0103C22.8401 16.0529 22.8201 16.0923 22.7894 16.1224L22.5562 16.3518C22.5234 16.384 22.5085 16.4303 22.5162 16.4756L22.5715 16.8007C22.5896 16.9074 22.5178 17.0085 22.4112 17.0266C22.3686 17.0338 22.3248 17.0268 22.2867 17.0065L22.001 16.855C21.9599 16.8332 21.9105 16.8332 21.8693 16.855Z"/>
  </g>
  <defs>
    <clipPath id="clip0_8_329">
      <rect width="28" height="20" fill="white"/>
    </clipPath>
  </defs>
</svg>
