<svg xmlns="http://www.w3.org/2000/svg" fill="none" viewBox="0 0 28 20" aria-hidden="true">
  <g clip-path="url(#clip0_8_545)">
    <rect width="28" height="20" fill="#0EA6FB"/>
    <path fill="white" fill-rule="evenodd" d="M23.0474 2.38932C23.4156 2.38932 23.7141 2.09083 23.7141 1.72262C23.7141 1.3544 23.4156 1.05591 23.0474 1.05591C22.6792 1.05591 22.3807 1.3544 22.3807 1.72262C22.3807 2.09083 22.6792 2.38932 23.0474 2.38932ZM23.0473 8.59729C23.4155 8.59729 23.714 8.29879 23.714 7.93058C23.714 7.56237 23.4155 7.26387 23.0473 7.26387C22.6791 7.26387 22.3806 7.56237 22.3806 7.93058C22.3806 8.29879 22.6791 8.59729 23.0473 8.59729ZM23.714 14.1385C23.714 14.5067 23.4155 14.8052 23.0473 14.8052C22.6791 14.8052 22.3806 14.5067 22.3806 14.1385C22.3806 13.7703 22.6791 13.4718 23.0473 13.4718C23.4155 13.4718 23.714 13.7703 23.714 14.1385ZM23.0473 4.45861C23.4155 4.45861 23.714 4.16011 23.714 3.7919C23.714 3.42369 23.4155 3.12519 23.0473 3.12519C22.6791 3.12519 22.3806 3.42369 22.3806 3.7919C22.3806 4.16011 22.6791 4.45861 23.0473 4.45861ZM23.714 9.9998C23.714 10.368 23.4155 10.6665 23.0473 10.6665C22.6791 10.6665 22.3806 10.368 22.3806 9.9998C22.3806 9.63158 22.6791 9.33309 23.0473 9.33309C23.4155 9.33309 23.714 9.63158 23.714 9.9998ZM23.0473 16.8745C23.4155 16.8745 23.714 16.576 23.714 16.2078C23.714 15.8396 23.4155 15.5411 23.0473 15.5411C22.6791 15.5411 22.3806 15.8396 22.3806 16.2078C22.3806 16.576 22.6791 16.8745 23.0473 16.8745ZM23.714 5.86124C23.714 6.22945 23.4155 6.52795 23.0473 6.52795C22.6791 6.52795 22.3806 6.22945 22.3806 5.86124C22.3806 5.49303 22.6791 5.19453 23.0473 5.19453C23.4155 5.19453 23.714 5.49303 23.714 5.86124ZM23.0473 12.7358C23.4155 12.7358 23.714 12.4373 23.714 12.0691C23.714 11.7009 23.4155 11.4024 23.0473 11.4024C22.6791 11.4024 22.3806 11.7009 22.3806 12.0691C22.3806 12.4373 22.6791 12.7358 23.0473 12.7358ZM23.714 18.2774C23.714 18.6456 23.4155 18.9441 23.0473 18.9441C22.6791 18.9441 22.3806 18.6456 22.3806 18.2774C22.3806 17.9092 22.6791 17.6107 23.0473 17.6107C23.4155 17.6107 23.714 17.9092 23.714 18.2774Z" clip-rule="evenodd"/>
  </g>
  <defs>
    <clipPath id="clip0_8_545">
      <rect width="28" height="20" fill="white"/>
    </clipPath>
  </defs>
</svg>
