<svg xmlns="http://www.w3.org/2000/svg" fill="none" viewBox="0 0 28 20" aria-hidden="true">
  <g clip-path="url(#clip0_31_236)">
    <rect width="28" height="20" x="28" y="20" fill="white" transform="rotate(180 28 20)"/>
    <path fill="#0EA6FB" fill-rule="evenodd" d="M25.0243 13.9605H26.8486C26.9402 13.9605 27.0144 14.0348 27.0144 14.1264V15.7848C27.0144 15.8764 26.9402 15.9507 26.8486 15.9507H25.0243V17.775C25.0243 17.8665 24.95 17.9408 24.8584 17.9408H23.2C23.1084 17.9408 23.0342 17.8665 23.0342 17.775V15.9507H21.2099C21.1183 15.9507 21.044 15.8764 21.044 15.7848V14.1264C21.044 14.0348 21.1183 13.9605 21.2099 13.9605H23.0342V12.1363C23.0342 12.0447 23.1084 11.9704 23.2 11.9704H24.8584C24.95 11.9704 25.0243 12.0447 25.0243 12.1363V13.9605Z" clip-rule="evenodd"/>
    <path fill="#0EA6FB" fill-rule="evenodd" d="M15.042 13.9605H16.8663C16.9579 13.9605 17.0321 14.0348 17.0321 14.1264V15.7848C17.0321 15.8764 16.9579 15.9507 16.8663 15.9507H15.042V17.775C15.042 17.8665 14.9677 17.9408 14.8761 17.9408H13.2177C13.1261 17.9408 13.0519 17.8665 13.0519 17.775V15.9507H11.2276C11.136 15.9507 11.0617 15.8764 11.0617 15.7848V14.1264C11.0617 14.0348 11.136 13.9605 11.2276 13.9605H13.0519V12.1363C13.0519 12.0447 13.1261 11.9704 13.2177 11.9704H14.8761C14.9677 11.9704 15.042 12.0447 15.042 12.1363V13.9605Z" clip-rule="evenodd"/>
    <path fill="#0EA6FB" fill-rule="evenodd" d="M5.05968 13.9605H6.88396C6.97555 13.9605 7.0498 14.0348 7.0498 14.1264V15.7848C7.0498 15.8764 6.97555 15.9507 6.88396 15.9507H5.05968V17.775C5.05968 17.8665 4.98543 17.9408 4.89384 17.9408H3.2354C3.14381 17.9408 3.06956 17.8665 3.06956 17.775V15.9507H1.24528C1.15368 15.9507 1.07943 15.8764 1.07943 15.7848V14.1264C1.07943 14.0348 1.15368 13.9605 1.24528 13.9605H3.06956V12.1363C3.06956 12.0447 3.14381 11.9704 3.2354 11.9704H4.89384C4.98543 11.9704 5.05968 12.0447 5.05968 12.1363V13.9605Z" clip-rule="evenodd"/>
    <path fill="#0EA6FB" fill-rule="evenodd" d="M19.9861 20.0198H21.8104C21.9019 20.0198 21.9762 20.094 21.9762 20.1856V21.844C21.9762 21.9356 21.9019 22.0099 21.8104 22.0099H19.9861V23.8342C19.9861 23.9257 19.9118 24 19.8202 24H18.1618C18.0702 24 17.9959 23.9257 17.9959 23.8342V22.0099H16.1717C16.0801 22.0099 16.0058 21.9356 16.0058 21.844V20.1856C16.0058 20.094 16.0801 20.0198 16.1717 20.0198H17.9959V18.1955C17.9959 18.1039 18.0702 18.0296 18.1618 18.0296H19.8202C19.9118 18.0296 19.9861 18.1039 19.9861 18.1955V20.0198Z" clip-rule="evenodd"/>
    <path fill="#0EA6FB" fill-rule="evenodd" d="M10.0039 20.0198H11.8282C11.9198 20.0198 11.994 20.094 11.994 20.1856V21.844C11.994 21.9356 11.9198 22.0099 11.8282 22.0099H10.0039V23.8342C10.0039 23.9257 9.92964 24 9.83805 24H8.17961C8.08802 24 8.01377 23.9257 8.01377 23.8342V22.0099H6.18949C6.0979 22.0099 6.02365 21.9356 6.02365 21.844V20.1856C6.02365 20.094 6.0979 20.0198 6.18949 20.0198H8.01377V18.1955C8.01377 18.1039 8.08802 18.0296 8.17962 18.0296H9.83805C9.92964 18.0296 10.0039 18.1039 10.0039 18.1955V20.0198Z" clip-rule="evenodd"/>
    <path fill="#0EA6FB" fill-rule="evenodd" d="M19.9861 7.99009H21.8104C21.9019 7.99009 21.9762 8.06434 21.9762 8.15593V9.81437C21.9762 9.90596 21.9019 9.98021 21.8104 9.98021H19.9861V11.8045C19.9861 11.8961 19.9118 11.9703 19.8202 11.9703H18.1618C18.0702 11.9703 17.9959 11.8961 17.9959 11.8045V9.98021H16.1717C16.0801 9.98021 16.0058 9.90596 16.0058 9.81437V8.15593C16.0058 8.06434 16.0801 7.99009 16.1717 7.99009H17.9959V6.16581C17.9959 6.07422 18.0702 5.99997 18.1618 5.99997H19.8202C19.9118 5.99997 19.9861 6.07422 19.9861 6.16581V7.99009Z" clip-rule="evenodd"/>
    <path fill="#0EA6FB" fill-rule="evenodd" d="M10.0039 7.99009H11.8282C11.9198 7.99009 11.994 8.06434 11.994 8.15593V9.81437C11.994 9.90596 11.9198 9.98021 11.8282 9.98021H10.0039V11.8045C10.0039 11.8961 9.92964 11.9703 9.83805 11.9703H8.17961C8.08802 11.9703 8.01377 11.8961 8.01377 11.8045V9.98021H6.18949C6.0979 9.98021 6.02365 9.90596 6.02365 9.81437V8.15593C6.02365 8.06434 6.0979 7.99009 6.18949 7.99009H8.01377V6.16581C8.01377 6.07422 8.08802 5.99997 8.17962 5.99997H9.83805C9.92964 5.99997 10.0039 6.07422 10.0039 6.16581V7.99009Z" clip-rule="evenodd"/>
    <path fill="#F63030" fill-rule="evenodd" d="M28 0H0V10H28V0Z" clip-rule="evenodd"/>
  </g>
  <defs>
    <clipPath id="clip0_31_236">
      <rect width="28" height="20" fill="white" transform="matrix(-1 0 0 -1 28 20)"/>
    </clipPath>
  </defs>
</svg>
