<svg xmlns="http://www.w3.org/2000/svg" fill="none" viewBox="0 0 28 20" aria-hidden="true">
  <g clip-path="url(#clip0_5_1878)">
    <rect width="28" height="20" fill="white" rx="2"/>
    <rect width="28" height="20" fill="#0EA6FB"/>
    <path fill="#FFDA27" d="M13.8092 2.12698C13.8675 1.93936 14.133 1.93936 14.1913 2.12698L14.3497 2.63752C14.376 2.72213 14.4548 2.77938 14.5434 2.77821L15.0779 2.77116C15.2743 2.76856 15.3564 3.02112 15.1959 3.13448L14.7594 3.44295C14.687 3.49408 14.6569 3.58671 14.6854 3.6706L14.8573 4.17678C14.9204 4.36279 14.7056 4.51888 14.5482 4.40132L14.1199 4.08144C14.0489 4.02842 13.9515 4.02842 13.8806 4.08144L13.4523 4.40132C13.2949 4.51888 13.08 4.36279 13.1432 4.17678L13.3151 3.6706C13.3436 3.58671 13.3135 3.49408 13.2411 3.44295L12.8046 3.13448C12.6441 3.02112 12.7262 2.76856 12.9226 2.77116L13.4571 2.77821C13.5457 2.77938 13.6245 2.72213 13.6508 2.63752L13.8092 2.12698Z"/>
    <path fill="#FFDA27" d="M13.8092 15.423C13.8675 15.2354 14.133 15.2354 14.1913 15.423L14.3497 15.9335C14.376 16.0181 14.4548 16.0754 14.5434 16.0742L15.0779 16.0672C15.2743 16.0646 15.3564 16.3171 15.1959 16.4305L14.7594 16.739C14.687 16.7901 14.6569 16.8827 14.6854 16.9666L14.8573 17.4728C14.9204 17.6588 14.7056 17.8149 14.5482 17.6973L14.1199 17.3775C14.0489 17.3244 13.9515 17.3244 13.8806 17.3775L13.4523 17.6973C13.2949 17.8149 13.08 17.6588 13.1432 17.4728L13.3151 16.9666C13.3436 16.8827 13.3135 16.7901 13.2411 16.739L12.8046 16.4305C12.6441 16.3171 12.7262 16.0646 12.9226 16.0672L13.4571 16.0742C13.5457 16.0754 13.6245 16.0181 13.6508 15.9335L13.8092 15.423Z"/>
    <path fill="#FFDA27" d="M17.0993 14.5398C17.1575 14.3522 17.4231 14.3522 17.4813 14.5398L17.6398 15.0504C17.666 15.135 17.7448 15.1922 17.8334 15.1911L18.3679 15.184C18.5644 15.1814 18.6464 15.434 18.486 15.5473L18.0494 15.8558C17.977 15.9069 17.9469 15.9996 17.9754 16.0834L18.1473 16.5896C18.2105 16.7756 17.9956 16.9317 17.8383 16.8142L17.41 16.4943C17.339 16.4413 17.2416 16.4413 17.1706 16.4943L16.7423 16.8142C16.5849 16.9317 16.3701 16.7756 16.4333 16.5896L16.6051 16.0834C16.6336 15.9996 16.6035 15.9069 16.5312 15.8558L16.0946 15.5473C15.9342 15.434 16.0162 15.1814 16.2126 15.184L16.7472 15.1911C16.8357 15.1922 16.9145 15.135 16.9408 15.0504L17.0993 14.5398Z"/>
    <path fill="#FFDA27" d="M19.6291 12.1709C19.6873 11.9833 19.9528 11.9833 20.0111 12.1709L20.1695 12.6815C20.1958 12.7661 20.2746 12.8233 20.3632 12.8222L20.8977 12.8151C21.0941 12.8125 21.1762 13.0651 21.0158 13.1784L20.5792 13.4869C20.5068 13.538 20.4767 13.6307 20.5052 13.7145L20.6771 14.2207C20.7403 14.4067 20.5254 14.5628 20.368 14.4453L19.9398 14.1254C19.8688 14.0724 19.7714 14.0724 19.7004 14.1254L19.2721 14.4453C19.1147 14.5628 18.8999 14.4067 18.963 14.2207L19.1349 13.7145C19.1634 13.6307 19.1333 13.538 19.061 13.4869L18.6244 13.1784C18.4639 13.0651 18.546 12.8125 18.7424 12.8151L19.2769 12.8222C19.3655 12.8233 19.4443 12.7661 19.4706 12.6815L19.6291 12.1709Z"/>
    <path fill="#FFDA27" d="M20.5041 8.88321C20.5623 8.69559 20.8278 8.69559 20.8861 8.88321L21.0445 9.39374C21.0708 9.47835 21.1496 9.5356 21.2382 9.53444L21.7727 9.52738C21.9691 9.52479 22.0512 9.77734 21.8908 9.8907L21.4542 10.1992C21.3818 10.2503 21.3517 10.3429 21.3802 10.4268L21.5521 10.933C21.6153 11.119 21.4004 11.2751 21.243 11.1575L20.8148 10.8377C20.7438 10.7846 20.6464 10.7846 20.5754 10.8377L20.1471 11.1575C19.9897 11.2751 19.7749 11.119 19.838 10.933L20.0099 10.4268C20.0384 10.3429 20.0083 10.2503 19.936 10.1992L19.4994 9.8907C19.3389 9.77734 19.421 9.52479 19.6174 9.52738L20.1519 9.53444C20.2405 9.5356 20.3193 9.47835 20.3456 9.39374L20.5041 8.88321Z"/>
    <path fill="#FFDA27" d="M19.6291 5.48904C19.6873 5.30143 19.9528 5.30142 20.0111 5.48904L20.1695 5.99958C20.1958 6.08419 20.2746 6.14144 20.3632 6.14027L20.8977 6.13322C21.0941 6.13062 21.1762 6.38318 21.0158 6.49654L20.5792 6.80501C20.5068 6.85614 20.4767 6.94877 20.5052 7.03266L20.6771 7.53884C20.7403 7.72485 20.5254 7.88094 20.368 7.76338L19.9398 7.4435C19.8688 7.39048 19.7714 7.39048 19.7004 7.4435L19.2721 7.76338C19.1147 7.88094 18.8999 7.72485 18.963 7.53884L19.1349 7.03266C19.1634 6.94877 19.1333 6.85614 19.061 6.80501L18.6244 6.49654C18.4639 6.38318 18.546 6.13062 18.7424 6.13322L19.2769 6.14027C19.3655 6.14144 19.4443 6.08419 19.4706 5.99958L19.6291 5.48904Z"/>
    <path fill="#FFDA27" d="M17.0993 3.07376C17.1575 2.88614 17.4231 2.88614 17.4813 3.07376L17.6398 3.58429C17.666 3.66891 17.7448 3.72616 17.8334 3.72499L18.3679 3.71793C18.5644 3.71534 18.6464 3.9679 18.486 4.08126L18.0494 4.38973C17.977 4.44086 17.9469 4.53349 17.9754 4.61738L18.1473 5.12356C18.2105 5.30957 17.9956 5.46566 17.8383 5.3481L17.41 5.02821C17.339 4.9752 17.2416 4.9752 17.1706 5.02821L16.7423 5.3481C16.5849 5.46566 16.3701 5.30957 16.4333 5.12356L16.6051 4.61738C16.6336 4.53349 16.6035 4.44086 16.5312 4.38973L16.0946 4.08126C15.9342 3.9679 16.0162 3.71534 16.2126 3.71793L16.7472 3.72499C16.8357 3.72616 16.9145 3.66891 16.9408 3.58429L17.0993 3.07376Z"/>
    <path fill="#FFDA27" d="M10.519 3.07376C10.5772 2.88614 10.8427 2.88614 10.901 3.07376L11.0594 3.58429C11.0857 3.66891 11.1645 3.72616 11.2531 3.72499L11.7876 3.71793C11.984 3.71534 12.0661 3.9679 11.9057 4.08126L11.4691 4.38973C11.3967 4.44086 11.3666 4.53349 11.3951 4.61738L11.567 5.12356C11.6302 5.30957 11.4153 5.46566 11.2579 5.3481L10.8296 5.02821C10.7587 4.9752 10.6613 4.9752 10.5903 5.02821L10.162 5.3481C10.0046 5.46566 9.78977 5.30957 9.85293 5.12356L10.0248 4.61738C10.0533 4.53349 10.0232 4.44086 9.95085 4.38973L9.51427 4.08126C9.35383 3.9679 9.43589 3.71534 9.63232 3.71793L10.1668 3.72499C10.2554 3.72616 10.3342 3.66891 10.3605 3.58429L10.519 3.07376Z"/>
    <path fill="#FFDA27" d="M7.98892 5.5209C8.04716 5.33329 8.31271 5.33329 8.37094 5.5209L8.52941 6.03144C8.55567 6.11605 8.63447 6.1733 8.72306 6.17213L9.25757 6.16508C9.454 6.16249 9.53606 6.41504 9.37562 6.5284L8.93905 6.83687C8.86669 6.888 8.83659 6.98063 8.86508 7.06452L9.03696 7.5707C9.10013 7.75671 8.88529 7.9128 8.7279 7.79524L8.29961 7.47536C8.22863 7.42234 8.13123 7.42234 8.06025 7.47536L7.63196 7.79524C7.47457 7.9128 7.25974 7.75671 7.3229 7.5707L7.49478 7.06452C7.52327 6.98063 7.49317 6.888 7.42082 6.83687L6.98424 6.5284C6.8238 6.41504 6.90586 6.16249 7.10229 6.16508L7.63681 6.17213C7.72539 6.1733 7.80419 6.11605 7.83046 6.03144L7.98892 5.5209Z"/>
    <path fill="#FFDA27" d="M7.07901 8.90445C7.13724 8.71683 7.4028 8.71683 7.46103 8.90445L7.6195 9.41498C7.64576 9.49959 7.72456 9.55684 7.81315 9.55568L8.34766 9.54862C8.54409 9.54603 8.62615 9.79858 8.46571 9.91195L8.02913 10.2204C7.95678 10.2715 7.92668 10.3642 7.95517 10.4481L8.12705 10.9542C8.19021 11.1403 7.97538 11.2963 7.81799 11.1788L7.3897 10.8589C7.31872 10.8059 7.22132 10.8059 7.15034 10.8589L6.72205 11.1788C6.56466 11.2963 6.34982 11.1403 6.41299 10.9542L6.58487 10.4481C6.61336 10.3642 6.58326 10.2715 6.51091 10.2204L6.07433 9.91195C5.91389 9.79858 5.99595 9.54603 6.19238 9.54862L6.72689 9.55568C6.81548 9.55684 6.89428 9.49959 6.92054 9.41498L7.07901 8.90445Z"/>
    <path fill="#FFDA27" d="M7.98892 12.1709C8.04716 11.9833 8.31271 11.9833 8.37094 12.1709L8.52941 12.6815C8.55567 12.7661 8.63447 12.8233 8.72306 12.8222L9.25757 12.8151C9.454 12.8125 9.53606 13.0651 9.37562 13.1784L8.93905 13.4869C8.86669 13.538 8.83659 13.6307 8.86508 13.7145L9.03696 14.2207C9.10013 14.4067 8.88529 14.5628 8.7279 14.4453L8.29961 14.1254C8.22863 14.0724 8.13123 14.0724 8.06025 14.1254L7.63196 14.4453C7.47457 14.5628 7.25974 14.4067 7.3229 14.2207L7.49478 13.7145C7.52327 13.6307 7.49317 13.538 7.42082 13.4869L6.98424 13.1784C6.8238 13.0651 6.90586 12.8125 7.10229 12.8151L7.63681 12.8222C7.72539 12.8233 7.80419 12.7661 7.83046 12.6815L7.98892 12.1709Z"/>
    <path fill="#FFDA27" d="M10.519 14.533C10.5772 14.3454 10.8427 14.3454 10.901 14.533L11.0594 15.0435C11.0857 15.1281 11.1645 15.1854 11.2531 15.1842L11.7876 15.1772C11.984 15.1746 12.0661 15.4271 11.9057 15.5405L11.4691 15.849C11.3967 15.9001 11.3666 15.9927 11.3951 16.0766L11.567 16.5828C11.6302 16.7688 11.4153 16.9249 11.2579 16.8073L10.8296 16.4874C10.7587 16.4344 10.6613 16.4344 10.5903 16.4874L10.162 16.8073C10.0046 16.9249 9.78977 16.7688 9.85293 16.5828L10.0248 16.0766C10.0533 15.9927 10.0232 15.9001 9.95085 15.849L9.51427 15.5405C9.35383 15.4271 9.43589 15.1746 9.63232 15.1772L10.1668 15.1842C10.2554 15.1854 10.3342 15.1281 10.3605 15.0435L10.519 14.533Z"/>
  </g>
  <defs>
    <clipPath id="clip0_5_1878">
      <rect width="28" height="20" fill="white"/>
    </clipPath>
  </defs>
</svg>
