<svg xmlns="http://www.w3.org/2000/svg" fill="none" viewBox="0 0 28 20" aria-hidden="true">
  <g clip-path="url(#clip0_5_1878)">
    <rect width="28" height="20" fill="white" rx="2"/>
    <rect width="28" height="20" fill="#0EA6FB"/>
    <path fill="#FFDA27" d="M13.9485 4.1655L13.5126 4.39468C13.3797 4.46452 13.2154 4.41345 13.1456 4.2806C13.1178 4.22771 13.1082 4.16711 13.1183 4.10821L13.2015 3.6228C13.2077 3.58693 13.1958 3.55034 13.1697 3.52494L12.8171 3.18117C12.7096 3.07641 12.7074 2.90436 12.8121 2.79689C12.8539 2.75409 12.9085 2.72624 12.9677 2.71765L13.455 2.64683C13.491 2.6416 13.5222 2.61898 13.5383 2.58635L13.7562 2.14471C13.8227 2.01012 13.9856 1.95487 14.1202 2.02129C14.1738 2.04774 14.2172 2.09111 14.2436 2.14471L14.4616 2.58635C14.4777 2.61898 14.5088 2.6416 14.5448 2.64683L15.0322 2.71765C15.1807 2.73923 15.2836 2.87713 15.2621 3.02565C15.2535 3.08479 15.2256 3.13945 15.1828 3.18117L14.8301 3.52494C14.8041 3.55034 14.7922 3.58693 14.7983 3.6228L14.8816 4.10821C14.907 4.25613 14.8076 4.39662 14.6597 4.42199C14.6008 4.43209 14.5402 4.42249 14.4873 4.39468L14.0514 4.1655C14.0192 4.14857 13.9807 4.14857 13.9485 4.1655Z"/>
    <path fill="#FFDA27" d="M17.2388 5.11057L16.8028 5.33975C16.67 5.40959 16.5057 5.35852 16.4359 5.22567C16.408 5.17277 16.3984 5.11218 16.4085 5.05328L16.4918 4.56787C16.498 4.532 16.4861 4.49541 16.46 4.47001L16.1073 4.12624C15.9999 4.02148 15.9977 3.84943 16.1024 3.74196C16.1441 3.69916 16.1988 3.67131 16.2579 3.66272L16.7453 3.5919C16.7813 3.58666 16.8125 3.56405 16.8286 3.53142L17.0465 3.08978C17.113 2.95519 17.2759 2.89993 17.4105 2.96635C17.4641 2.9928 17.5075 3.03618 17.5339 3.08978L17.7519 3.53142C17.768 3.56405 17.7991 3.58666 17.8351 3.5919L18.3225 3.66272C18.471 3.6843 18.5739 3.8222 18.5523 3.97072C18.5437 4.02986 18.5159 4.08452 18.4731 4.12624L18.1204 4.47001C18.0944 4.49541 18.0825 4.532 18.0886 4.56787L18.1719 5.05328C18.1973 5.2012 18.0979 5.34168 17.95 5.36706C17.8911 5.37716 17.8305 5.36756 17.7776 5.33975L17.3417 5.11057C17.3095 5.09364 17.271 5.09364 17.2388 5.11057Z"/>
    <path fill="#FFDA27" d="M19.7687 7.54331L19.3327 7.77249C19.1999 7.84233 19.0356 7.79126 18.9658 7.65841C18.9379 7.60551 18.9284 7.54492 18.9385 7.48602L19.0217 7.00061C19.0279 6.96474 19.016 6.92815 18.9899 6.90275L18.6372 6.55898C18.5298 6.45422 18.5276 6.28217 18.6323 6.1747C18.674 6.1319 18.7287 6.10405 18.7878 6.09546L19.2752 6.02464C19.3112 6.0194 19.3424 5.99679 19.3585 5.96416L19.5764 5.52251C19.6429 5.38793 19.8058 5.33267 19.9404 5.39909C19.994 5.42554 20.0374 5.46892 20.0638 5.52251L20.2818 5.96416C20.2979 5.99679 20.329 6.0194 20.365 6.02464L20.8524 6.09546C21.0009 6.11704 21.1038 6.25494 21.0822 6.40346C21.0737 6.4626 21.0458 6.51726 21.003 6.55898L20.6503 6.90275C20.6243 6.92815 20.6124 6.96474 20.6185 7.00061L20.7018 7.48602C20.7272 7.63394 20.6278 7.77442 20.4799 7.79979C20.421 7.8099 20.3604 7.8003 20.3075 7.77249L19.8716 7.54331C19.8394 7.52638 19.8009 7.52638 19.7687 7.54331Z"/>
    <path fill="#FFDA27" d="M20.6438 10.9559L20.2079 11.1851C20.075 11.2549 19.9107 11.2039 19.8409 11.071C19.8131 11.0181 19.8035 10.9575 19.8136 10.8986L19.8968 10.4132C19.903 10.3773 19.8911 10.3407 19.865 10.3153L19.5124 9.97158C19.4049 9.86682 19.4027 9.69477 19.5075 9.5873C19.5492 9.5445 19.6038 9.51665 19.663 9.50806L20.1504 9.43723C20.1864 9.432 20.2175 9.40939 20.2336 9.37676L20.4516 8.93511C20.518 8.80053 20.6809 8.74527 20.8155 8.81169C20.8691 8.83814 20.9125 8.88152 20.9389 8.93511L21.1569 9.37676C21.173 9.40939 21.2041 9.432 21.2401 9.43723L21.7275 9.50806C21.876 9.52964 21.9789 9.66753 21.9574 9.81606C21.9488 9.8752 21.9209 9.92986 21.8781 9.97158L21.5255 10.3153C21.4994 10.3407 21.4875 10.3773 21.4937 10.4132L21.5769 10.8986C21.6023 11.0465 21.5029 11.187 21.355 11.2124C21.2961 11.2225 21.2355 11.2129 21.1826 11.1851L20.7467 10.9559C20.7145 10.939 20.676 10.939 20.6438 10.9559Z"/>
    <path fill="#FFDA27" d="M19.7687 14.1761L19.3327 14.4053C19.1999 14.4751 19.0356 14.4241 18.9658 14.2912C18.9379 14.2383 18.9284 14.1777 18.9385 14.1188L19.0217 13.6334C19.0279 13.5976 19.016 13.561 18.9899 13.5356L18.6372 13.1918C18.5298 13.087 18.5276 12.915 18.6323 12.8075C18.674 12.7647 18.7287 12.7369 18.7878 12.7283L19.2752 12.6574C19.3112 12.6522 19.3424 12.6296 19.3585 12.597L19.5764 12.1553C19.6429 12.0207 19.8058 11.9655 19.9404 12.0319C19.994 12.0584 20.0374 12.1017 20.0638 12.1553L20.2818 12.597C20.2979 12.6296 20.329 12.6522 20.365 12.6574L20.8524 12.7283C21.0009 12.7499 21.1038 12.8877 21.0822 13.0363C21.0737 13.0954 21.0458 13.1501 21.003 13.1918L20.6503 13.5356C20.6243 13.561 20.6124 13.5976 20.6185 13.6334L20.7018 14.1188C20.7272 14.2668 20.6278 14.4072 20.4799 14.4326C20.421 14.4427 20.3604 14.4331 20.3075 14.4053L19.8716 14.1761C19.8394 14.1592 19.8009 14.1592 19.7687 14.1761Z"/>
    <path fill="#FFDA27" d="M17.2388 16.6089L16.8028 16.838C16.67 16.9079 16.5057 16.8568 16.4359 16.724C16.408 16.6711 16.3984 16.6105 16.4085 16.5516L16.4918 16.0662C16.498 16.0303 16.4861 15.9937 16.46 15.9683L16.1073 15.6245C15.9999 15.5198 15.9977 15.3477 16.1024 15.2402C16.1441 15.1975 16.1988 15.1696 16.2579 15.161L16.7453 15.0902C16.7813 15.085 16.8125 15.0623 16.8286 15.0297L17.0465 14.5881C17.113 14.4535 17.2759 14.3982 17.4105 14.4646C17.4641 14.4911 17.5075 14.5345 17.5339 14.5881L17.7519 15.0297C17.768 15.0623 17.7991 15.085 17.8351 15.0902L18.3225 15.161C18.471 15.1826 18.5739 15.3205 18.5523 15.469C18.5437 15.5282 18.5159 15.5828 18.4731 15.6245L18.1204 15.9683C18.0944 15.9937 18.0825 16.0303 18.0886 16.0662L18.1719 16.5516C18.1973 16.6995 18.0979 16.84 17.95 16.8653C17.8911 16.8754 17.8305 16.8659 17.7776 16.838L17.3417 16.6089C17.3095 16.5919 17.271 16.5919 17.2388 16.6089Z"/>
    <path fill="#FFDA27" d="M13.9485 17.349L13.5126 17.5782C13.3797 17.648 13.2154 17.5969 13.1456 17.4641C13.1178 17.4112 13.1082 17.3506 13.1183 17.2917L13.2015 16.8063C13.2077 16.7704 13.1958 16.7338 13.1697 16.7084L12.8171 16.3646C12.7096 16.2599 12.7074 16.0878 12.8121 15.9804C12.8539 15.9376 12.9085 15.9097 12.9677 15.9011L13.455 15.8303C13.491 15.8251 13.5222 15.8025 13.5383 15.7698L13.7562 15.3282C13.8227 15.1936 13.9856 15.1383 14.1202 15.2048C14.1738 15.2312 14.2172 15.2746 14.2436 15.3282L14.4616 15.7698C14.4777 15.8025 14.5088 15.8251 14.5448 15.8303L15.0322 15.9011C15.1807 15.9227 15.2836 16.0606 15.2621 16.2091C15.2535 16.2683 15.2256 16.3229 15.1828 16.3646L14.8301 16.7084C14.8041 16.7338 14.7922 16.7704 14.7983 16.8063L14.8816 17.2917C14.907 17.4396 14.8076 17.5801 14.6597 17.6055C14.6008 17.6156 14.5402 17.606 14.4873 17.5782L14.0514 17.349C14.0192 17.332 13.9807 17.332 13.9485 17.349Z"/>
    <path fill="#FFDA27" d="M10.6586 16.6089L10.2226 16.838C10.0898 16.9079 9.92549 16.8568 9.85565 16.724C9.82784 16.6711 9.81824 16.6105 9.82835 16.5516L9.9116 16.0662C9.91775 16.0303 9.90586 15.9937 9.87981 15.9683L9.52713 15.6245C9.41966 15.5198 9.41746 15.3477 9.52222 15.2402C9.56394 15.1975 9.6186 15.1696 9.67774 15.161L10.1651 15.0902C10.2011 15.085 10.2323 15.0623 10.2484 15.0297L10.4663 14.5881C10.5328 14.4535 10.6957 14.3982 10.8303 14.4646C10.8839 14.4911 10.9273 14.5345 10.9537 14.5881L11.1717 15.0297C11.1878 15.0623 11.2189 15.085 11.2549 15.0902L11.7423 15.161C11.8908 15.1826 11.9937 15.3205 11.9721 15.469C11.9635 15.5282 11.9357 15.5828 11.8929 15.6245L11.5402 15.9683C11.5142 15.9937 11.5023 16.0303 11.5084 16.0662L11.5917 16.5516C11.6171 16.6995 11.5177 16.84 11.3698 16.8653C11.3109 16.8754 11.2503 16.8659 11.1974 16.838L10.7615 16.6089C10.7293 16.5919 10.6908 16.5919 10.6586 16.6089Z"/>
    <path fill="#FFDA27" d="M8.12866 14.1761L7.69273 14.4053C7.55989 14.4751 7.39558 14.4241 7.32574 14.2912C7.29793 14.2383 7.28834 14.1777 7.29844 14.1188L7.38169 13.6334C7.38785 13.5976 7.37596 13.561 7.3499 13.5356L6.99723 13.1918C6.88975 13.087 6.88755 12.915 6.99231 12.8075C7.03403 12.7647 7.08869 12.7369 7.14783 12.7283L7.63522 12.6574C7.67122 12.6522 7.70235 12.6296 7.71846 12.597L7.93642 12.1553C8.00284 12.0207 8.16579 11.9655 8.30037 12.0319C8.35397 12.0584 8.39735 12.1017 8.4238 12.1553L8.64176 12.597C8.65786 12.6296 8.68899 12.6522 8.725 12.6574L9.21238 12.7283C9.36091 12.7499 9.46381 12.8877 9.44223 13.0363C9.43364 13.0954 9.40579 13.1501 9.36299 13.1918L9.01032 13.5356C8.98426 13.561 8.97237 13.5976 8.97852 13.6334L9.06178 14.1188C9.08715 14.2668 8.9878 14.4072 8.83988 14.4326C8.78097 14.4427 8.72038 14.4331 8.66748 14.4053L8.23155 14.1761C8.19935 14.1592 8.16087 14.1592 8.12866 14.1761Z"/>
    <path fill="#FFDA27" d="M7.21863 10.9559L6.7827 11.1851C6.64986 11.2549 6.48555 11.2039 6.41571 11.071C6.3879 11.0181 6.3783 10.9575 6.38841 10.8986L6.47166 10.4132C6.47781 10.3773 6.46592 10.3407 6.43987 10.3153L6.08719 9.97158C5.97972 9.86682 5.97752 9.69477 6.08228 9.5873C6.124 9.5445 6.17866 9.51665 6.2378 9.50806L6.72518 9.43723C6.76119 9.432 6.79232 9.40939 6.80842 9.37676L7.02639 8.93511C7.09281 8.80053 7.25576 8.74527 7.39034 8.81169C7.44393 8.83814 7.48731 8.88152 7.51376 8.93511L7.73173 9.37676C7.74783 9.40939 7.77896 9.432 7.81497 9.43723L8.30235 9.50806C8.45087 9.52964 8.55378 9.66753 8.5322 9.81606C8.5236 9.8752 8.49575 9.92986 8.45296 9.97158L8.10028 10.3153C8.07423 10.3407 8.06234 10.3773 8.06849 10.4132L8.15174 10.8986C8.17711 11.0465 8.07776 11.187 7.92984 11.2124C7.87094 11.2225 7.81035 11.2129 7.75745 11.1851L7.32152 10.9559C7.28931 10.939 7.25084 10.939 7.21863 10.9559Z"/>
    <path fill="#FFDA27" d="M8.12866 7.54331L7.69273 7.77249C7.55989 7.84233 7.39558 7.79126 7.32574 7.65841C7.29793 7.60551 7.28834 7.54492 7.29844 7.48602L7.38169 7.00061C7.38785 6.96474 7.37596 6.92815 7.3499 6.90275L6.99723 6.55898C6.88975 6.45422 6.88755 6.28217 6.99231 6.1747C7.03403 6.1319 7.08869 6.10405 7.14783 6.09546L7.63522 6.02464C7.67122 6.0194 7.70235 5.99679 7.71846 5.96416L7.93642 5.52251C8.00284 5.38793 8.16579 5.33267 8.30037 5.39909C8.35397 5.42554 8.39735 5.46892 8.4238 5.52251L8.64176 5.96416C8.65786 5.99679 8.68899 6.0194 8.725 6.02464L9.21238 6.09546C9.36091 6.11704 9.46381 6.25494 9.44223 6.40346C9.43364 6.4626 9.40579 6.51726 9.36299 6.55898L9.01032 6.90275C8.98426 6.92815 8.97237 6.96474 8.97852 7.00061L9.06178 7.48602C9.08715 7.63394 8.9878 7.77442 8.83988 7.79979C8.78097 7.8099 8.72038 7.8003 8.66748 7.77249L8.23155 7.54331C8.19935 7.52638 8.16087 7.52638 8.12866 7.54331Z"/>
    <path fill="#FFDA27" d="M10.6586 5.11057L10.2226 5.33975C10.0898 5.40959 9.92549 5.35852 9.85565 5.22567C9.82784 5.17277 9.81824 5.11218 9.82835 5.05328L9.9116 4.56787C9.91775 4.532 9.90586 4.49541 9.87981 4.47001L9.52713 4.12624C9.41966 4.02148 9.41746 3.84943 9.52222 3.74196C9.56394 3.69916 9.6186 3.67131 9.67774 3.66272L10.1651 3.5919C10.2011 3.58666 10.2323 3.56405 10.2484 3.53142L10.4663 3.08978C10.5328 2.95519 10.6957 2.89993 10.8303 2.96635C10.8839 2.9928 10.9273 3.03618 10.9537 3.08978L11.1717 3.53142C11.1878 3.56405 11.2189 3.58666 11.2549 3.5919L11.7423 3.66272C11.8908 3.6843 11.9937 3.8222 11.9721 3.97072C11.9635 4.02986 11.9357 4.08452 11.8929 4.12624L11.5402 4.47001C11.5142 4.49541 11.5023 4.532 11.5084 4.56787L11.5917 5.05328C11.6171 5.2012 11.5177 5.34168 11.3698 5.36706C11.3109 5.37716 11.2503 5.36756 11.1974 5.33975L10.7615 5.11057C10.7293 5.09364 10.6908 5.09364 10.6586 5.11057Z"/>
  </g>
  <defs>
    <clipPath id="clip0_5_1878">
      <rect width="28" height="20" fill="white"/>
    </clipPath>
  </defs>
</svg>
