<svg xmlns="http://www.w3.org/2000/svg" fill="none" viewBox="0 0 28 20" aria-hidden="true">
  <g clip-path="url(#clip0_5_734)">
    <rect width="28" height="20" fill="white" rx="2"/>
    <path fill="#F63030" fill-rule="evenodd" d="M0 20H28V0H0V20Z" clip-rule="evenodd"/>
    <path fill="white" fill-rule="evenodd" d="M13.984 8.14576C14.9468 7.33988 15.0054 7.15966 15.2361 6.44966C15.3131 6.21267 15.2588 6.01803 15.1946 5.78817C14.976 5.00445 14.5072 4.12787 13.8043 4.53773C13.2379 4.86803 12.7473 5.47986 12.4939 6.25965C12.0388 7.66033 12.5215 9.07251 13.572 9.41384C13.76 9.47494 13.739 9.43076 13.6819 9.31113C13.5817 9.10123 13.3707 8.65907 13.984 8.14576ZM11.9901 9.61766C11.5212 8.45293 11.3679 8.34155 10.7639 7.90274C10.5624 7.75628 10.3605 7.74778 10.122 7.73775C9.30909 7.70355 8.33056 7.87847 8.50316 8.6736C8.64225 9.31438 9.07253 9.97004 9.73586 10.452C10.9274 11.3176 12.4196 11.295 13.0688 10.4014C13.185 10.2414 13.1365 10.2478 13.0051 10.2651C12.7745 10.2955 12.2888 10.3595 11.9901 9.61766ZM18 10.2539C17.2535 10.2539 17.064 10.2539 16 9.58722C15.3223 9.16258 14.967 9.49988 14.7983 9.65999C14.7022 9.75125 14.6667 9.78496 14.6667 9.58722C14.6667 8.48265 15.8606 7.58722 17.3333 7.58722C18.1533 7.58722 18.8868 7.86475 19.3759 8.30139C19.9829 8.84321 19.2941 9.5599 18.6163 10.0101C18.4175 10.1421 18.2492 10.2539 18 10.2539ZM18 9.00004C18 9.18414 17.8508 9.33338 17.6667 9.33338C17.4826 9.33338 17.3333 9.18414 17.3333 9.00004C17.3333 8.81595 17.4826 8.66671 17.6667 8.66671C17.8508 8.66671 18 8.81595 18 9.00004ZM15.2521 11.95C14.9468 13.1679 15.0054 13.3481 15.2361 14.0581C15.3131 14.2951 15.4714 14.4206 15.6584 14.5689C16.296 15.0744 17.1905 15.5081 17.5182 14.7633C17.7823 14.1632 17.8196 13.3798 17.5662 12.6C17.1111 11.1994 15.8906 10.3406 14.8401 10.6819C14.652 10.743 14.695 10.7664 14.8115 10.8296C15.0159 10.9405 15.4465 11.1742 15.2521 11.95ZM16.4286 13.6707C16.2535 13.7275 16.0654 13.6317 16.0085 13.4566C15.9516 13.2816 16.0475 13.0935 16.2225 13.0366C16.3976 12.9797 16.5857 13.0755 16.6426 13.2506C16.6995 13.4257 16.6036 13.6138 16.4286 13.6707ZM12.7738 11.9688C11.5212 12.0548 11.3679 12.1662 10.7639 12.605C10.5624 12.7515 10.4919 12.9409 10.4087 13.1645C10.1249 13.9271 9.9889 14.9118 10.7985 14.9934C11.4509 15.0591 12.2074 14.8525 12.8707 14.3705C14.0622 13.5049 14.5018 12.0787 13.8525 11.1851C13.7363 11.0251 13.7274 11.0732 13.7033 11.2036C13.6609 11.4323 13.5717 11.914 12.7738 11.9688ZM11.5009 13.6194C11.3927 13.4705 11.4257 13.262 11.5747 13.1538C11.7236 13.0456 11.9321 13.0786 12.0403 13.2275C12.1485 13.3765 12.1155 13.5849 11.9665 13.6931C11.8176 13.8014 11.6091 13.7683 11.5009 13.6194ZM10.027 8.91712C10.1352 8.76819 10.3436 8.73517 10.4926 8.84338C10.6415 8.95159 10.6745 9.16004 10.5663 9.30898C10.4581 9.45792 10.2496 9.49093 10.1007 9.38272C9.95176 9.27451 9.91875 9.06606 10.027 8.91712ZM14.0436 6.0622C14.2187 6.11909 14.3145 6.30714 14.2576 6.48223C14.2007 6.65731 14.0127 6.75313 13.8376 6.69624C13.6625 6.63935 13.5667 6.4513 13.6236 6.27621C13.6805 6.10113 13.8685 6.00531 14.0436 6.0622Z" clip-rule="evenodd"/>
  </g>
  <defs>
    <clipPath id="clip0_5_734">
      <rect width="28" height="20" fill="white"/>
    </clipPath>
  </defs>
</svg>
