<svg xmlns="http://www.w3.org/2000/svg" fill="none" viewBox="0 0 28 20" stroke="currentColor" aria-hidden="true">
  <g clip-path="url(#clip0_5_773)">
    <rect width="27.5" height="19.5" x="0.25" y="0.25" fill="white" stroke-width="0.5" rx="1.75"/>
    <path fill="#FF9600" fill-rule="evenodd" d="M0 6.66667H28V0H0V6.66667Z" clip-rule="evenodd"/>
    <path fill="#50B500" fill-rule="evenodd" d="M0 19.9999H28V13.3333H0V19.9999Z" clip-rule="evenodd"/>
    <path fill="white" fill-rule="evenodd" d="M14 12C15.1046 12 16 11.1046 16 10C16 8.89543 15.1046 8 14 8C12.8954 8 12 8.89543 12 10C12 11.1046 12.8954 12 14 12Z" clip-rule="evenodd"/>
    <path fill="#0EA6FB" fill-rule="evenodd" d="M13.9999 10.6666C14.3681 10.6666 14.6666 10.3681 14.6666 9.99992C14.6666 9.63173 14.3681 9.33325 13.9999 9.33325C13.6317 9.33325 13.3333 9.63173 13.3333 9.99992C13.3333 10.3681 13.6317 10.6666 13.9999 10.6666Z" clip-rule="evenodd"/>
  </g>
  <defs>
    <clipPath id="clip0_5_773">
      <rect width="28" height="20" fill="white"/>
    </clipPath>
  </defs>
</svg>
