<svg xmlns="http://www.w3.org/2000/svg" fill="none" viewBox="0 0 28 20" stroke="currentColor" aria-hidden="true">
  <g clip-path="url(#clip0_5_2473)">
    <rect width="27.5" height="19.5" x="0.25" y="0.25" fill="white" stroke-width="0.5" rx="1.75"/>
    <rect width="3.46453" height="49.3333" x="-6.76917" y="-1.9292" fill="#F63030" transform="rotate(-55 -6.76917 -1.9292)"/>
    <rect width="3.52106" height="49.3333" fill="#F63030" transform="matrix(-0.573576 -0.819152 -0.819152 0.573576 36.1196 -1.88281)"/>
    <path fill="#FFDA27" fill-rule="evenodd" d="M15.7407 2.66659H13.5925L13.6798 2.61538L12.693 2.04555L13.9688 2.18801L13.7895 1.33325L14.6666 2.04555L15.5438 1.33325L15.3644 2.18801L16.6402 2.04555L15.6534 2.61538L15.7407 2.66659Z" clip-rule="evenodd"/>
    <path fill="#F63030" fill-rule="evenodd" d="M12.6666 5.1665C12.6666 4.7957 12.6666 4.38212 12.6666 3.99978C12.6666 3.2634 13.2636 2.6665 14 2.6665H15.3333C16.0697 2.6665 16.6666 3.2634 16.6666 3.99978C16.6666 4.38212 16.6666 4.7957 16.6666 5.1665C16.6666 6.95222 14.6666 7.6665 14.6666 7.6665C14.6666 7.6665 12.6666 6.95222 12.6666 5.1665Z" clip-rule="evenodd"/>
    <mask id="mask0_5_2473" width="5" height="6" x="12" y="2" maskUnits="userSpaceOnUse" style="mask-type:luminance">
      <path fill="white" fill-rule="evenodd" d="M12.6666 5.1665C12.6666 4.7957 12.6666 4.38212 12.6666 3.99978C12.6666 3.2634 13.2636 2.6665 14 2.6665H15.3333C16.0697 2.6665 16.6666 3.2634 16.6666 3.99978C16.6666 4.38212 16.6666 4.7957 16.6666 5.1665C16.6666 6.95222 14.6666 7.6665 14.6666 7.6665C14.6666 7.6665 12.6666 6.95222 12.6666 5.1665Z" clip-rule="evenodd"/>
    </mask>
    <g mask="url(#mask0_5_2473)">
      <rect width="0.666667" height="0.666667" x="14.3333" y="6.6665" fill="#FFDA27" rx="0.333333"/>
      <rect width="2.66667" height="0.666667" x="13.3333" y="5.33325" fill="#FFDA27" rx="0.333333"/>
      <rect width="2.66667" height="0.666667" x="13.3333" y="4" fill="#FFDA27" rx="0.333333"/>
    </g>
  </g>
  <defs>
    <clipPath id="clip0_5_2473">
      <rect width="28" height="20" fill="white"/>
    </clipPath>
  </defs>
</svg>
