<svg xmlns="http://www.w3.org/2000/svg" fill="none" viewBox="0 0 28 20" stroke="currentColor" aria-hidden="true">
  <g clip-path="url(#clip0_5_914)">
    <rect width="27.5" height="19.5" x="0.25" y="0.25" fill="white" stroke-width="0.5"/>
    <path fill="#F63030" fill-rule="evenodd" d="M14 14.6666C16.5774 14.6666 18.6667 12.5772 18.6667 9.99992C18.6667 7.42259 16.5774 5.33325 14 5.33325C11.4227 5.33325 9.33337 7.42259 9.33337 9.99992C9.33337 12.5772 11.4227 14.6666 14 14.6666Z" clip-rule="evenodd"/>
    <mask id="mask0_5_914" width="10" height="10" x="9" y="5" maskUnits="userSpaceOnUse" style="mask-type:luminance">
      <path fill="white" fill-rule="evenodd" d="M14 14.6666C16.5774 14.6666 18.6667 12.5772 18.6667 9.99992C18.6667 7.42259 16.5774 5.33325 14 5.33325C11.4227 5.33325 9.33337 7.42259 9.33337 9.99992C9.33337 12.5772 11.4227 14.6666 14 14.6666Z" clip-rule="evenodd"/>
    </mask>
    <g mask="url(#mask0_5_914)">
      <path fill="#0EA6FB" fill-rule="evenodd" d="M9.33332 10.6665C10.6666 11.9165 12.6666 12.6665 14 10.6665C15.3333 8.6665 18 8.6665 18.6666 10.6665C19.3333 12.6665 18.6666 14.6665 18.6666 14.6665H9.33332C9.33332 14.6665 7.99998 9.4165 9.33332 10.6665Z" clip-rule="evenodd"/>
    </g>
    <path fill="#4C4C4C" fill-rule="evenodd" d="M21.0829 3.60127C20.764 3.78537 20.6548 4.19309 20.8389 4.51196L22.1722 6.82136C22.3563 7.14022 22.764 7.24947 23.0829 7.06537C23.4017 6.88128 23.511 6.47355 23.3269 6.15469L21.9936 3.84529C21.8095 3.52643 21.4017 3.41718 21.0829 3.60127ZM19.3508 4.60127C19.032 4.78537 18.9227 5.19309 19.1068 5.51196L20.4401 7.82136C20.6242 8.14022 21.032 8.24947 21.3508 8.06537C21.6697 7.88128 21.7789 7.47355 21.5948 7.15469L20.2615 4.84529C20.0774 4.52643 19.6697 4.41718 19.3508 4.60127ZM4.67305 13.8453C4.48896 13.5264 4.59821 13.1187 4.91707 12.9346C5.23593 12.7505 5.64366 12.8598 5.82775 13.1786L7.16108 15.488C7.34518 15.8069 7.23593 16.2146 6.91707 16.3987C6.59821 16.5828 6.19048 16.4736 6.00638 16.1547L4.67305 13.8453ZM6.64912 11.9346C6.33026 12.1187 6.22101 12.5264 6.4051 12.8453L7.73843 15.1547C7.92253 15.4736 8.33026 15.5828 8.64912 15.3987C8.96798 15.2146 9.07723 14.8069 8.89314 14.488L7.5598 12.1786C7.37571 11.8598 6.96798 11.7505 6.64912 11.9346ZM20.4401 12.1786C20.6242 11.8598 21.032 11.7505 21.3508 11.9346C21.6697 12.1187 21.7789 12.5264 21.5948 12.8453L20.2615 15.1547C20.0774 15.4736 19.6697 15.5828 19.3508 15.3987C19.032 15.2146 18.9227 14.8069 19.1068 14.488L20.4401 12.1786ZM23.0829 12.9346C22.764 12.7505 22.3563 12.8598 22.1722 13.1786L20.8389 15.488C20.6548 15.8069 20.764 16.2146 21.0829 16.3987C21.4017 16.5828 21.8095 16.4736 21.9936 16.1547L23.3269 13.8453C23.511 13.5264 23.4017 13.1187 23.0829 12.9346ZM6.00638 3.84529C6.19048 3.52643 6.59821 3.41718 6.91707 3.60127C7.23593 3.78537 7.34518 4.19309 7.16108 4.51196L5.82775 6.82136C5.64366 7.14022 5.23593 7.24947 4.91707 7.06537C4.59821 6.88128 4.48896 6.47355 4.67305 6.15469L6.00638 3.84529ZM8.64912 4.60127C8.33026 4.41718 7.92253 4.52643 7.73843 4.84529L6.4051 7.15469C6.22101 7.47355 6.33026 7.88128 6.64912 8.06537C6.96798 8.24947 7.37571 8.14022 7.5598 7.82136L8.89314 5.51196C9.07723 5.19309 8.96798 4.78537 8.64912 4.60127Z" clip-rule="evenodd" opacity="0.75"/>
  </g>
  <defs>
    <clipPath id="clip0_5_914">
      <rect width="28" height="20" fill="white"/>
    </clipPath>
  </defs>
</svg>
