<svg xmlns="http://www.w3.org/2000/svg" fill="none" viewBox="0 0 28 20" stroke="currentColor" aria-hidden="true">
  <g clip-path="url(#clip0_5_868)">
    <rect width="28" height="20" fill="white" rx="2"/>
    <rect width="28" height="20" fill="#18BDBD"/>
    <path fill="#FFDA27" fill-rule="evenodd" d="M14 14C16.2091 14 18 12.2091 18 10C18 7.79086 16.2091 6 14 6C11.7909 6 10 7.79086 10 10C10 12.2091 11.7909 14 14 14Z" clip-rule="evenodd"/>
    <path fill="#FFDA27" fill-rule="evenodd" d="M12.3681 17.1495L14 14.7137L15.6318 17.1495L16.0451 14.2469L18.5722 15.7335L17.6852 12.9389L20.6071 13.1819L18.5954 11.0489L21.3333 10.0001L18.5954 8.95118L20.6071 6.81824L17.6852 7.06117L18.5722 4.26663L16.0451 5.75324L15.6318 2.85059L14 5.28644L12.3681 2.85059L11.9548 5.75324L9.4277 4.26663L10.3147 7.06117L7.39285 6.81824L9.40453 8.95118L6.66663 10.0001L9.40453 11.0489L7.39285 13.1819L10.3147 12.9389L9.4277 15.7335L11.9548 14.2469L12.3681 17.1495ZM18.6666 10.0001C18.6666 12.5774 16.5773 14.6667 14 14.6667C11.4226 14.6667 9.33329 12.5774 9.33329 10.0001C9.33329 7.42273 11.4226 5.33339 14 5.33339C16.5773 5.33339 18.6666 7.42273 18.6666 10.0001Z" clip-rule="evenodd"/>
    <path fill="#FFDA27" fill-rule="evenodd" d="M1.33337 1.66659C1.33337 1.48249 1.48261 1.33325 1.66671 1.33325H2.33337C2.51747 1.33325 2.66671 1.48249 2.66671 1.66659V2.33325C2.66671 2.51735 2.51747 2.66659 2.33337 2.66659H1.66671C1.48261 2.66659 1.33337 2.51735 1.33337 2.33325V1.66659ZM1.33337 4.33325C1.33337 4.14916 1.48261 3.99992 1.66671 3.99992H2.33337C2.51747 3.99992 2.66671 4.14916 2.66671 4.33325V4.99992C2.66671 5.18401 2.51747 5.33325 2.33337 5.33325H1.66671C1.48261 5.33325 1.33337 5.18401 1.33337 4.99992V4.33325ZM1.66671 6.66659C1.48261 6.66659 1.33337 6.81582 1.33337 6.99992V7.66659C1.33337 7.85068 1.48261 7.99992 1.66671 7.99992H2.33337C2.51747 7.99992 2.66671 7.85068 2.66671 7.66658V6.99992C2.66671 6.81582 2.51747 6.66659 2.33337 6.66659H1.66671ZM1.33337 9.66659C1.33337 9.48249 1.48261 9.33325 1.66671 9.33325H2.33337C2.51747 9.33325 2.66671 9.48249 2.66671 9.66658V10.3333C2.66671 10.5173 2.51747 10.6666 2.33337 10.6666H1.66671C1.48261 10.6666 1.33337 10.5173 1.33337 10.3333V9.66659ZM1.66671 11.9999C1.48261 11.9999 1.33337 12.1492 1.33337 12.3333V12.9999C1.33337 13.184 1.48261 13.3333 1.66671 13.3333H2.33337C2.51747 13.3333 2.66671 13.184 2.66671 12.9999V12.3333C2.66671 12.1492 2.51747 11.9999 2.33337 11.9999H1.66671ZM1.33337 14.9999C1.33337 14.8158 1.48261 14.6666 1.66671 14.6666H2.33337C2.51747 14.6666 2.66671 14.8158 2.66671 14.9999V15.6666C2.66671 15.8507 2.51747 15.9999 2.33337 15.9999H1.66671C1.48261 15.9999 1.33337 15.8507 1.33337 15.6666V14.9999ZM1.66671 17.3333C1.48261 17.3333 1.33337 17.4825 1.33337 17.6666V18.3333C1.33337 18.5173 1.48261 18.6666 1.66671 18.6666H2.33337C2.51747 18.6666 2.66671 18.5173 2.66671 18.3333V17.6666C2.66671 17.4825 2.51747 17.3333 2.33337 17.3333H1.66671ZM2.66671 16.3333C2.66671 16.1492 2.81595 15.9999 3.00004 15.9999H3.66671C3.8508 15.9999 4.00004 16.1492 4.00004 16.3333V16.9999C4.00004 17.184 3.8508 17.3333 3.66671 17.3333H3.00004C2.81595 17.3333 2.66671 17.184 2.66671 16.9999V16.3333ZM3.00004 13.3333C2.81595 13.3333 2.66671 13.4825 2.66671 13.6666V14.3333C2.66671 14.5173 2.81595 14.6666 3.00004 14.6666H3.66671C3.8508 14.6666 4.00004 14.5173 4.00004 14.3333V13.6666C4.00004 13.4825 3.8508 13.3333 3.66671 13.3333H3.00004ZM2.66671 10.9999C2.66671 10.8158 2.81595 10.6666 3.00004 10.6666H3.66671C3.8508 10.6666 4.00004 10.8158 4.00004 10.9999V11.6666C4.00004 11.8507 3.8508 11.9999 3.66671 11.9999H3.00004C2.81595 11.9999 2.66671 11.8507 2.66671 11.6666V10.9999ZM3.00004 7.99992C2.81595 7.99992 2.66671 8.14916 2.66671 8.33325V8.99992C2.66671 9.18401 2.81595 9.33325 3.00004 9.33325H3.66671C3.8508 9.33325 4.00004 9.18401 4.00004 8.99992V8.33325C4.00004 8.14916 3.8508 7.99992 3.66671 7.99992H3.00004ZM2.66671 5.66659C2.66671 5.48249 2.81595 5.33325 3.00004 5.33325H3.66671C3.8508 5.33325 4.00004 5.48249 4.00004 5.66659V6.33325C4.00004 6.51735 3.8508 6.66659 3.66671 6.66659H3.00004C2.81595 6.66659 2.66671 6.51735 2.66671 6.33325V5.66659ZM3.00004 2.66659C2.81595 2.66659 2.66671 2.81582 2.66671 2.99992V3.66659C2.66671 3.85068 2.81595 3.99992 3.00004 3.99992H3.66671C3.8508 3.99992 4.00004 3.85068 4.00004 3.66658V2.99992C4.00004 2.81582 3.8508 2.66659 3.66671 2.66659H3.00004Z" clip-rule="evenodd"/>
  </g>
  <defs>
    <clipPath id="clip0_5_868">
      <rect width="28" height="20" fill="white"/>
    </clipPath>
  </defs>
</svg>
