<svg xmlns="http://www.w3.org/2000/svg" fill="none" viewBox="0 0 28 20" aria-hidden="true">
  <g clip-path="url(#clip0_5_990)">
    <rect width="28" height="20" fill="white" rx="2"/>
    <g filter="url(#filter0_d_5_990)">
      <path fill="#4C4C4C" fill-rule="evenodd" d="M0 13.3334H28V6.66675H0V13.3334Z" clip-rule="evenodd"/>
    </g>
    <g filter="url(#filter1_d_5_990)">
      <path fill="#50B500" fill-rule="evenodd" d="M0 19.9999H28V13.3333H0V19.9999Z" clip-rule="evenodd"/>
    </g>
    <path fill="#F63030" fill-rule="evenodd" d="M0 6.66667H28V0H0V6.66667Z" clip-rule="evenodd"/>
    <path fill="white" d="M14.6084 8.26192C14.4781 8.22874 14.3633 8.21214 14.264 8.21214C13.2766 8.21214 12.4762 9.01257 12.4762 9.99994C12.4762 10.9873 13.2766 11.7877 14.264 11.7877C14.3633 11.7877 14.4781 11.7711 14.6084 11.738C14.6881 11.7176 14.7692 11.7658 14.7895 11.8456C14.8048 11.9055 14.7815 11.9686 14.7309 12.0042C14.3713 12.2572 13.9177 12.3837 13.3701 12.3837C12.0536 12.3837 10.9863 11.3164 10.9863 9.99994C10.9863 8.68344 12.0536 7.61621 13.3701 7.61621C13.9177 7.61621 14.3714 7.74271 14.7309 7.99571C14.7982 8.04306 14.8144 8.13599 14.767 8.20328C14.7314 8.25385 14.6683 8.27718 14.6084 8.26192Z"/>
    <path fill="white" d="M15.0259 10.4714L14.6469 10.3536C14.5314 10.3176 14.4669 10.1949 14.5028 10.0794C14.5171 10.0334 14.5461 9.99343 14.5854 9.96563L14.9095 9.73646C14.9334 9.71953 14.9475 9.6919 14.9471 9.66258L14.9421 9.26572C14.9405 9.14479 15.0373 9.04549 15.1582 9.04395C15.2064 9.04333 15.2534 9.05861 15.292 9.08741L15.6101 9.32479C15.6336 9.34232 15.6642 9.34717 15.692 9.33776L16.0679 9.2103C16.1824 9.17146 16.3067 9.23282 16.3456 9.34736C16.3611 9.39297 16.3611 9.44241 16.3456 9.48802L16.2181 9.86389C16.2087 9.89166 16.2136 9.92228 16.2311 9.94578L16.4685 10.2639C16.5408 10.3608 16.5209 10.498 16.4239 10.5704C16.3853 10.5992 16.3383 10.6144 16.2902 10.6138L15.8933 10.6087C15.864 10.6084 15.8363 10.6224 15.8194 10.6464L15.5903 10.9704C15.5204 11.0692 15.3838 11.0926 15.285 11.0228C15.2457 10.995 15.2166 10.955 15.2023 10.909L15.0845 10.53C15.0758 10.502 15.0539 10.4801 15.0259 10.4714Z"/>
  </g>
  <defs>
    <filter id="filter0_d_5_990" width="28" height="6.66675" x="0" y="6.66675" color-interpolation-filters="sRGB" filterUnits="userSpaceOnUse">
      <feFlood flood-opacity="0" result="BackgroundImageFix"/>
      <feColorMatrix in="SourceAlpha" result="hardAlpha" type="matrix" values="0 0 0 0 0 0 0 0 0 0 0 0 0 0 0 0 0 0 127 0"/>
      <feOffset/>
      <feColorMatrix type="matrix" values="0 0 0 0 0 0 0 0 0 0 0 0 0 0 0 0 0 0 0.06 0"/>
      <feBlend in2="BackgroundImageFix" mode="normal" result="effect1_dropShadow_5_990"/>
      <feBlend in="SourceGraphic" in2="effect1_dropShadow_5_990" mode="normal" result="shape"/>
    </filter>
    <filter id="filter1_d_5_990" width="28" height="6.66675" x="0" y="13.3333" color-interpolation-filters="sRGB" filterUnits="userSpaceOnUse">
      <feFlood flood-opacity="0" result="BackgroundImageFix"/>
      <feColorMatrix in="SourceAlpha" result="hardAlpha" type="matrix" values="0 0 0 0 0 0 0 0 0 0 0 0 0 0 0 0 0 0 127 0"/>
      <feOffset/>
      <feColorMatrix type="matrix" values="0 0 0 0 0 0 0 0 0 0 0 0 0 0 0 0 0 0 0.06 0"/>
      <feBlend in2="BackgroundImageFix" mode="normal" result="effect1_dropShadow_5_990"/>
      <feBlend in="SourceGraphic" in2="effect1_dropShadow_5_990" mode="normal" result="shape"/>
    </filter>
    <clipPath id="clip0_5_990">
      <rect width="28" height="20" fill="white"/>
    </clipPath>
  </defs>
</svg>
