<svg xmlns="http://www.w3.org/2000/svg" fill="none" viewBox="0 0 28 20" stroke="currentColor" aria-hidden="true">
  <g clip-path="url(#clip0_5_990)">
    <rect width="28" height="20" fill="white" rx="2"/>
    <g filter="url(#filter0_d_5_990)">
      <path fill="#4C4C4C" fill-rule="evenodd" d="M0 13.3334H28V6.66675H0V13.3334Z" clip-rule="evenodd"/>
    </g>
    <g filter="url(#filter1_d_5_990)">
      <path fill="#50B500" fill-rule="evenodd" d="M0 19.9999H28V13.3333H0V19.9999Z" clip-rule="evenodd"/>
    </g>
    <path fill="#F63030" fill-rule="evenodd" d="M0 6.66667H28V0H0V6.66667Z" clip-rule="evenodd"/>
    <path fill="white" d="M14.6083 8.26192C14.478 8.22874 14.3632 8.21214 14.2638 8.21214C13.2765 8.21214 12.476 9.01257 12.476 9.99994C12.476 10.9873 13.2765 11.7877 14.2638 11.7877C14.3632 11.7877 14.478 11.7711 14.6083 11.738C14.688 11.7176 14.7691 11.7658 14.7894 11.8456C14.8047 11.9055 14.7813 11.9686 14.7308 12.0042C14.3712 12.2572 13.9176 12.3837 13.3699 12.3837C12.0534 12.3837 10.9862 11.3164 10.9862 9.99994C10.9862 8.68344 12.0534 7.61621 13.3699 7.61621C13.9176 7.61621 14.3712 7.74271 14.7308 7.99571C14.7981 8.04306 14.8142 8.13599 14.7669 8.20328C14.7313 8.25385 14.6682 8.27718 14.6083 8.26192Z"/>
    <path fill="white" d="M15.0258 10.4714L14.6468 10.3536C14.5313 10.3176 14.4667 10.1949 14.5026 10.0794C14.5169 10.0334 14.546 9.99343 14.5853 9.96563L14.9094 9.73646C14.9333 9.71953 14.9474 9.6919 14.947 9.66258L14.9419 9.26572C14.9404 9.14479 15.0372 9.04549 15.1581 9.04395C15.2063 9.04333 15.2533 9.05861 15.2919 9.08741L15.61 9.32479C15.6335 9.34232 15.6641 9.34717 15.6919 9.33776L16.0677 9.2103C16.1823 9.17146 16.3066 9.23282 16.3455 9.34736C16.3609 9.39297 16.3609 9.44241 16.3455 9.48802L16.218 9.86389C16.2086 9.89166 16.2134 9.92228 16.231 9.94578L16.4683 10.2639C16.5407 10.3608 16.5207 10.498 16.4238 10.5704C16.3852 10.5992 16.3382 10.6144 16.29 10.6138L15.8932 10.6087C15.8639 10.6084 15.8362 10.6224 15.8193 10.6464L15.5901 10.9704C15.5203 11.0692 15.3836 11.0926 15.2849 11.0228C15.2456 10.995 15.2165 10.955 15.2022 10.909L15.0844 10.53C15.0757 10.502 15.0538 10.4801 15.0258 10.4714Z"/>
  </g>
  <defs>
    <filter id="filter0_d_5_990" width="28" height="6.66675" x="0" y="6.66675" color-interpolation-filters="sRGB" filterUnits="userSpaceOnUse">
      <feFlood flood-opacity="0" result="BackgroundImageFix"/>
      <feColorMatrix in="SourceAlpha" result="hardAlpha" type="matrix" values="0 0 0 0 0 0 0 0 0 0 0 0 0 0 0 0 0 0 127 0"/>
      <feOffset/>
      <feColorMatrix type="matrix" values="0 0 0 0 0 0 0 0 0 0 0 0 0 0 0 0 0 0 0.06 0"/>
      <feBlend in2="BackgroundImageFix" mode="normal" result="effect1_dropShadow_5_990"/>
      <feBlend in="SourceGraphic" in2="effect1_dropShadow_5_990" mode="normal" result="shape"/>
    </filter>
    <filter id="filter1_d_5_990" width="28" height="6.66675" x="0" y="13.3333" color-interpolation-filters="sRGB" filterUnits="userSpaceOnUse">
      <feFlood flood-opacity="0" result="BackgroundImageFix"/>
      <feColorMatrix in="SourceAlpha" result="hardAlpha" type="matrix" values="0 0 0 0 0 0 0 0 0 0 0 0 0 0 0 0 0 0 127 0"/>
      <feOffset/>
      <feColorMatrix type="matrix" values="0 0 0 0 0 0 0 0 0 0 0 0 0 0 0 0 0 0 0.06 0"/>
      <feBlend in2="BackgroundImageFix" mode="normal" result="effect1_dropShadow_5_990"/>
      <feBlend in="SourceGraphic" in2="effect1_dropShadow_5_990" mode="normal" result="shape"/>
    </filter>
    <clipPath id="clip0_5_990">
      <rect width="28" height="20" fill="white"/>
    </clipPath>
  </defs>
</svg>
