<svg xmlns="http://www.w3.org/2000/svg" fill="none" viewBox="0 0 28 20" aria-hidden="true">
  <g clip-path="url(#clip0_5_1102)">
    <rect width="28" height="20" fill="white" rx="2"/>
    <path fill="#F63030" fill-rule="evenodd" d="M28 0H13.3333V1.33333H28V0ZM28 2.66667H13.3333V4H28V2.66667ZM13.3333 5.33333H28V6.66667H13.3333V5.33333ZM28 8H13.3333V9.33333H28V8ZM0 10.6667H28V12H0V10.6667ZM28 13.3333H0V14.6667H28V13.3333ZM0 16H28V17.3333H0V16ZM28 18.6667H0V20H28V18.6667Z" clip-rule="evenodd"/>
    <rect width="16" height="10.6667" fill="#0EA6FB"/>
    <path fill="#FFDA27" d="M9.09818 2.32174C8.8724 2.26424 8.67346 2.23549 8.50135 2.23549C6.79047 2.23549 5.40353 3.62243 5.40353 5.3333C5.40353 7.04418 6.79047 8.43112 8.50135 8.43112C8.67346 8.43112 8.87239 8.40237 9.09815 8.34487C9.23632 8.30968 9.37685 8.39314 9.41205 8.53131C9.43849 8.63514 9.39806 8.74451 9.31043 8.80616C8.68744 9.24454 7.90145 9.46372 6.95244 9.46372C4.67127 9.46372 2.82202 7.61447 2.82202 5.3333C2.82202 3.05213 4.67127 1.20288 6.95244 1.20288C7.90146 1.20288 8.68746 1.42207 9.31045 1.86045C9.42705 1.9425 9.45507 2.10354 9.37302 2.22014C9.31136 2.30776 9.202 2.34819 9.09818 2.32174Z"/>
    <path fill="#FFDA27" d="M9.82157 6.15026L9.16485 5.94612C8.96472 5.88391 8.85292 5.67125 8.91513 5.47112C8.9399 5.39143 8.99025 5.32213 9.05839 5.27394L9.61988 4.87686C9.66137 4.84752 9.68576 4.79965 9.68511 4.74884L9.67632 4.06118C9.67364 3.85163 9.84135 3.67958 10.0509 3.6769C10.1343 3.67583 10.2158 3.7023 10.2827 3.75221L10.8339 4.16352C10.8746 4.19391 10.9277 4.20232 10.9758 4.186L11.6271 3.96514C11.8255 3.89784 12.041 4.00417 12.1083 4.20264C12.1351 4.28167 12.1351 4.36733 12.1083 4.44637L11.8874 5.09765C11.8711 5.14577 11.8795 5.19884 11.9099 5.23956L12.3212 5.79072C12.4466 5.95868 12.412 6.19645 12.244 6.32179C12.1772 6.3717 12.0957 6.39817 12.0122 6.39711L11.3246 6.38832C11.2738 6.38767 11.2259 6.41206 11.1966 6.45354L10.7995 7.01504C10.6785 7.18615 10.4417 7.22676 10.2706 7.10576C10.2024 7.05757 10.1521 6.98827 10.1273 6.90858L9.92316 6.25186C9.90808 6.20334 9.87009 6.16534 9.82157 6.15026Z"/>
  </g>
  <defs>
    <clipPath id="clip0_5_1102">
      <rect width="28" height="20" fill="white"/>
    </clipPath>
  </defs>
</svg>
