<svg xmlns="http://www.w3.org/2000/svg" fill="none" viewBox="0 0 28 20" stroke="currentColor" aria-hidden="true">
  <g clip-path="url(#clip0_5_1267)">
    <rect width="28" height="20" fill="white" rx="2"/>
    <rect width="28" height="20" fill="#0EA6FB"/>
    <path fill="white" d="M19.9924 17.5316L19.5656 17.756C19.4315 17.8264 19.2658 17.7749 19.1953 17.6409C19.1673 17.5875 19.1576 17.5264 19.1678 17.467L19.2493 16.9917C19.2571 16.9465 19.2421 16.9003 19.2092 16.8683L18.8639 16.5317C18.7555 16.4261 18.7533 16.2525 18.859 16.1441C18.901 16.1009 18.9562 16.0728 19.0159 16.0641L19.493 15.9948C19.5384 15.9882 19.5777 15.9597 19.598 15.9185L19.8114 15.4861C19.8784 15.3504 20.0428 15.2946 20.1786 15.3616C20.2326 15.3883 20.2764 15.4321 20.3031 15.4861L20.5165 15.9185C20.5368 15.9597 20.576 15.9882 20.6214 15.9948L21.0986 16.0641C21.2484 16.0859 21.3523 16.225 21.3305 16.3748C21.3218 16.4345 21.2937 16.4897 21.2505 16.5317L20.9053 16.8683C20.8724 16.9003 20.8574 16.9465 20.8652 16.9917L20.9467 17.467C20.9723 17.6162 20.872 17.7579 20.7228 17.7835C20.6634 17.7937 20.6023 17.784 20.5489 17.756L20.1221 17.5316C20.0815 17.5102 20.033 17.5102 19.9924 17.5316Z"/>
    <path fill="white" d="M19.9924 4.58064L19.5656 4.80503C19.4315 4.87548 19.2658 4.82396 19.1953 4.68994C19.1673 4.63658 19.1576 4.57545 19.1678 4.51603L19.2493 4.04078C19.2571 3.99556 19.2421 3.94941 19.2092 3.91738L18.8639 3.58081C18.7555 3.47513 18.7533 3.30156 18.859 3.19314C18.901 3.14997 18.9562 3.12187 19.0159 3.1132L19.493 3.04386C19.5384 3.03726 19.5777 3.00874 19.598 2.9676L19.8114 2.5352C19.8784 2.39943 20.0428 2.34369 20.1786 2.41069C20.2326 2.43738 20.2764 2.48114 20.3031 2.5352L20.5165 2.9676C20.5368 3.00874 20.576 3.03726 20.6214 3.04386L21.0986 3.1132C21.2484 3.13497 21.3523 3.27409 21.3305 3.42392C21.3218 3.48358 21.2937 3.53873 21.2505 3.58081L20.9053 3.91738C20.8724 3.94941 20.8574 3.99556 20.8652 4.04078L20.9467 4.51603C20.9723 4.66526 20.872 4.80698 20.7228 4.83257C20.6634 4.84276 20.6023 4.83308 20.5489 4.80503L20.1221 4.58064C20.0815 4.55929 20.033 4.55929 19.9924 4.58064Z"/>
    <path fill="white" d="M16.9 10.1983L16.4732 10.4227C16.3391 10.4932 16.1734 10.4416 16.1029 10.3076C16.0749 10.2543 16.0652 10.1931 16.0754 10.1337L16.1569 9.65846C16.1646 9.61323 16.1497 9.56709 16.1168 9.53506L15.7715 9.19848C15.6631 9.0928 15.6609 8.91924 15.7666 8.81082C15.8086 8.76764 15.8638 8.73955 15.9234 8.73088L16.4006 8.66154C16.446 8.65494 16.4853 8.62642 16.5056 8.58527L16.719 8.15288C16.786 8.01711 16.9504 7.96136 17.0862 8.02837C17.1402 8.05505 17.184 8.09881 17.2107 8.15288L17.4241 8.58527C17.4444 8.62642 17.4836 8.65494 17.529 8.66154L18.0062 8.73088C18.156 8.75265 18.2599 8.89176 18.2381 9.04159C18.2294 9.10126 18.2013 9.1564 18.1581 9.19848L17.8129 9.53506C17.78 9.56709 17.765 9.61323 17.7728 9.65846L17.8543 10.1337C17.8799 10.2829 17.7796 10.4247 17.6304 10.4502C17.571 10.4604 17.5099 10.4508 17.4565 10.4227L17.0297 10.1983C16.9891 10.177 16.9406 10.177 16.9 10.1983Z"/>
    <path fill="white" d="M23.9385 9.07747L23.5117 9.30185C23.3777 9.37231 23.212 9.32078 23.1415 9.18677C23.1134 9.1334 23.1038 9.07228 23.114 9.01285L23.1955 8.53761C23.2032 8.49238 23.1882 8.44624 23.1554 8.41421L22.8101 8.07764C22.7017 7.97195 22.6994 7.79839 22.8051 7.68997C22.8472 7.64679 22.9024 7.6187 22.962 7.61003L23.4392 7.54069C23.4846 7.53409 23.5239 7.50557 23.5442 7.46442L23.7576 7.03203C23.8246 6.89626 23.989 6.84051 24.1247 6.90752C24.1788 6.9342 24.2226 6.97796 24.2492 7.03203L24.4626 7.46442C24.4829 7.50557 24.5222 7.53409 24.5676 7.54069L25.0448 7.61003C25.1946 7.6318 25.2984 7.77091 25.2767 7.92074C25.268 7.98041 25.2399 8.03555 25.1967 8.07764L24.8514 8.41421C24.8186 8.44624 24.8036 8.49238 24.8113 8.53761L24.8928 9.01285C24.9184 9.16208 24.8182 9.3038 24.669 9.3294C24.6096 9.33959 24.5484 9.32991 24.4951 9.30185L24.0683 9.07747C24.0277 9.05612 23.9791 9.05612 23.9385 9.07747Z"/>
    <path fill="#F63030" stroke-width="0.666667" d="M0 -0.333333H-0.901086L-0.21693 0.253086L4.33333 4.15331V5.16179L-0.193746 8.39542L-0.333333 8.49513V8.66667V9.33333V9.93475L0.176666 9.616L5.42893 6.33333H6.55984L11.0821 9.56351C11.176 9.6306 11.2886 9.66667 11.404 9.66667C11.9182 9.66667 12.1548 9.02698 11.7644 8.69237L7.66667 5.18002V4.17154L12.0542 1.03762C12.2294 0.912475 12.3333 0.710428 12.3333 0.495127V0V-0.601416L11.8233 -0.282666L6.57107 3H5.44016L0.860413 -0.271244L0.773488 -0.333333H0.666667H0Z"/>
    <path fill="white" fill-rule="evenodd" d="M0 3.33333V6H4.66667V9.33333C4.66667 9.70152 4.96514 10 5.33333 10H6.66667C7.03486 10 7.33333 9.70152 7.33333 9.33333V6H12C12.3682 6 12.6667 5.70152 12.6667 5.33333V4C12.6667 3.63181 12.3682 3.33333 12 3.33333H7.33333V0H4.66667V3.33333H0Z" clip-rule="evenodd"/>
    <path fill="#F63030" fill-rule="evenodd" d="M0 4H5.33333V3.33333V0H6.66667V3.33333V4H12V5.33333H6.66667V6V9.33333H5.33333V6V5.33333H0V4Z" clip-rule="evenodd"/>
  </g>
  <defs>
    <clipPath id="clip0_5_1267">
      <rect width="28" height="20" fill="white"/>
    </clipPath>
  </defs>
</svg>
