<svg xmlns="http://www.w3.org/2000/svg" fill="none" viewBox="0 0 28 20" aria-hidden="true">
  <g clip-path="url(#clip0_5_1305)">
    <rect width="27.5" height="19.5" x="0.25" y="0.25" fill="white" stroke="white" stroke-width="0.5"/>
    <path fill="#F63030" fill-rule="evenodd" d="M14 10H28V0H14V10Z" clip-rule="evenodd"/>
    <path fill="#0EA6FB" fill-rule="evenodd" d="M0 20H14V10H0V20Z" clip-rule="evenodd"/>
    <path fill="#0EA6FB" d="M6.56321 6.58817L5.68698 7.04883C5.41996 7.18921 5.08969 7.08655 4.94931 6.81953C4.89341 6.7132 4.87412 6.59141 4.89443 6.47301L5.06178 5.49731C5.07414 5.42522 5.05024 5.35167 4.99786 5.30061L4.28898 4.60962C4.07295 4.39905 4.06853 4.05323 4.2791 3.8372C4.36296 3.75118 4.47282 3.6952 4.5917 3.67793L5.57136 3.53557C5.64374 3.52506 5.70631 3.4796 5.73868 3.41401L6.1768 2.52629C6.31031 2.25577 6.63784 2.1447 6.90836 2.27821C7.01608 2.33137 7.10328 2.41856 7.15644 2.52629L7.59456 3.41401C7.62693 3.4796 7.6895 3.52506 7.76188 3.53557L8.74153 3.67793C9.04007 3.72131 9.24692 3.99848 9.20354 4.29702C9.18626 4.4159 9.13028 4.52577 9.04426 4.60962L8.33537 5.30061C8.283 5.35167 8.2591 5.42522 8.27146 5.49731L8.43881 6.47301C8.4898 6.77034 8.29011 7.05272 7.99278 7.10371C7.87438 7.12402 7.75259 7.10473 7.64626 7.04883L6.77003 6.58817C6.70529 6.55413 6.62795 6.55413 6.56321 6.58817Z"/>
    <path fill="#F63030" d="M20.5632 16.5882L19.687 17.0488C19.42 17.1892 19.0897 17.0865 18.9493 16.8195C18.8934 16.7132 18.8741 16.5914 18.8944 16.473L19.0618 15.4973C19.0741 15.4252 19.0502 15.3517 18.9979 15.3006L18.289 14.6096C18.073 14.399 18.0685 14.0532 18.2791 13.8372C18.363 13.7512 18.4728 13.6952 18.5917 13.6779L19.5714 13.5356C19.6437 13.5251 19.7063 13.4796 19.7387 13.414L20.1768 12.5263C20.3103 12.2558 20.6378 12.1447 20.9084 12.2782C21.0161 12.3314 21.1033 12.4186 21.1564 12.5263L21.5946 13.414C21.6269 13.4796 21.6895 13.5251 21.7619 13.5356L22.7415 13.6779C23.0401 13.7213 23.2469 13.9985 23.2035 14.297C23.1863 14.4159 23.1303 14.5258 23.0443 14.6096L22.3354 15.3006C22.283 15.3517 22.2591 15.4252 22.2715 15.4973L22.4388 16.473C22.4898 16.7703 22.2901 17.0527 21.9928 17.1037C21.8744 17.124 21.7526 17.1047 21.6463 17.0488L20.77 16.5882C20.7053 16.5541 20.6279 16.5541 20.5632 16.5882Z"/>
  </g>
  <defs>
    <clipPath id="clip0_5_1305">
      <rect width="28" height="20" fill="white"/>
    </clipPath>
  </defs>
</svg>
