<svg xmlns="http://www.w3.org/2000/svg" fill="none" viewBox="0 0 28 20" aria-hidden="true">
  <g clip-path="url(#clip0_5_1436)">
    <rect width="28" height="20" fill="white" rx="2"/>
    <path fill="#50B500" fill-rule="evenodd" d="M0 19.9999H28V13.3333H0V19.9999Z" clip-rule="evenodd"/>
    <path fill="#50B500" fill-rule="evenodd" d="M0 6.66667H28V0H0V6.66667Z" clip-rule="evenodd"/>
    <path fill="#FFDA27" fill-rule="evenodd" d="M0 13.3334H28V6.66675H0V13.3334Z" clip-rule="evenodd"/>
    <path fill="#F63030" fill-rule="evenodd" d="M0 0L10.6667 10L0 20V0Z" clip-rule="evenodd"/>
    <path fill="#4C4C4C" d="M20.4119 11.5085L19.7241 11.8701C19.5145 11.9803 19.2553 11.8997 19.1451 11.6901C19.1012 11.6066 19.0861 11.511 19.102 11.4181L19.2334 10.6522C19.2431 10.5956 19.2243 10.5379 19.1832 10.4978L18.6268 9.95545C18.4572 9.79016 18.4538 9.51871 18.619 9.34915C18.6849 9.28162 18.7711 9.23768 18.8644 9.22412L19.6334 9.11238C19.6902 9.10413 19.7393 9.06844 19.7647 9.01696L20.1086 8.32015C20.2134 8.10781 20.4705 8.02063 20.6829 8.12543C20.7674 8.16716 20.8359 8.2356 20.8776 8.32015L21.2215 9.01696C21.2469 9.06844 21.296 9.10413 21.3528 9.11238L22.1218 9.22412C22.3561 9.25817 22.5185 9.47574 22.4844 9.71008C22.4709 9.80339 22.4269 9.88963 22.3594 9.95545L21.803 10.4978C21.7619 10.5379 21.7431 10.5956 21.7528 10.6522L21.8842 11.4181C21.9242 11.6515 21.7674 11.8731 21.5341 11.9132C21.4411 11.9291 21.3455 11.914 21.2621 11.8701L20.5743 11.5085C20.5235 11.4818 20.4627 11.4818 20.4119 11.5085Z"/>
    <path fill="#4C4C4C" d="M14.9477 11.5085L14.2599 11.8701C14.0503 11.9803 13.7911 11.8997 13.6809 11.6901C13.637 11.6066 13.6219 11.511 13.6378 11.4181L13.7692 10.6522C13.7789 10.5956 13.7601 10.5379 13.719 10.4978L13.1626 9.95545C12.993 9.79016 12.9895 9.51871 13.1548 9.34915C13.2206 9.28162 13.3069 9.23768 13.4002 9.22412L14.1692 9.11238C14.226 9.10413 14.2751 9.06844 14.3005 9.01696L14.6444 8.32015C14.7492 8.10781 15.0063 8.02063 15.2186 8.12543C15.3032 8.16716 15.3716 8.2356 15.4134 8.32015L15.7572 9.01696C15.7827 9.06844 15.8318 9.10413 15.8886 9.11238L16.6576 9.22412C16.8919 9.25817 17.0543 9.47574 17.0202 9.71008C17.0066 9.80339 16.9627 9.88963 16.8952 9.95545L16.3387 10.4978C16.2976 10.5379 16.2789 10.5956 16.2886 10.6522L16.4199 11.4181C16.46 11.6515 16.3032 11.8731 16.0698 11.9132C15.9769 11.9291 15.8813 11.914 15.7978 11.8701L15.11 11.5085C15.0592 11.4818 14.9985 11.4818 14.9477 11.5085Z"/>
  </g>
  <defs>
    <clipPath id="clip0_5_1436">
      <rect width="28" height="20" fill="white"/>
    </clipPath>
  </defs>
</svg>
