<svg xmlns="http://www.w3.org/2000/svg" fill="none" viewBox="0 0 28 20" aria-hidden="true">
  <g clip-path="url(#clip0_5_1614)">
    <rect width="28" height="20" fill="white" rx="2"/>
    <rect width="28" height="20" fill="#F63030"/>
    <path fill="white" fill-rule="evenodd" d="M13.7891 15.9695C17.1028 15.9695 19.7891 13.2832 19.7891 9.96948C19.7891 6.65577 17.1028 3.96948 13.7891 3.96948C10.4754 3.96948 7.78906 6.65577 7.78906 9.96948C7.78906 13.2832 10.4754 15.9695 13.7891 15.9695Z" clip-rule="evenodd"/>
    <path fill="#F63030" d="M16.0548 6.69012C15.8067 6.62692 15.5881 6.59532 15.3989 6.59532C13.5186 6.59532 11.9943 8.11962 11.9943 9.99994C11.9943 11.8803 13.5186 13.4046 15.3989 13.4046C15.5881 13.4046 15.8067 13.373 16.0548 13.3098C16.2067 13.2711 16.3611 13.3628 16.3998 13.5147C16.4289 13.6288 16.3844 13.749 16.2881 13.8168C15.6034 14.2985 14.7396 14.5394 13.6966 14.5394C11.1895 14.5394 9.1571 12.507 9.1571 9.99994C9.1571 7.49285 11.1895 5.46045 13.6966 5.46045C14.7396 5.46045 15.6034 5.70135 16.2881 6.18315C16.4163 6.27332 16.4471 6.4503 16.3569 6.57845C16.2891 6.67475 16.1689 6.71918 16.0548 6.69012Z"/>
    <path fill="#F63030" d="M16.1129 11.3895L15.635 11.8342C15.4752 11.983 15.225 11.974 15.0763 11.8142C15.0168 11.7503 14.9802 11.6686 14.9721 11.5817L14.9099 10.9186C14.9013 10.8262 14.848 10.7439 14.7673 10.6982L14.1926 10.3728C14.001 10.2643 13.9336 10.0211 14.0421 9.8295C14.0849 9.7539 14.1513 9.69436 14.231 9.65994L14.83 9.4015C14.9159 9.36442 14.978 9.28732 14.996 9.19546L15.1223 8.54978C15.1642 8.33569 15.3717 8.19608 15.5857 8.23796C15.6719 8.25481 15.75 8.29991 15.8077 8.36612L16.2399 8.86215C16.3014 8.93272 16.3938 8.96843 16.4867 8.95757L17.1346 8.88192C17.3533 8.85639 17.5512 9.01295 17.5768 9.2316C17.5868 9.3179 17.5684 9.40512 17.5244 9.48L17.1894 10.0492C17.1423 10.1292 17.1373 10.2271 17.176 10.3114L17.4538 10.9167C17.5448 11.1152 17.4578 11.3499 17.2593 11.4409C17.18 11.4773 17.0909 11.4864 17.0059 11.4669L16.3697 11.3207C16.278 11.2996 16.1818 11.3254 16.1129 11.3895Z"/>
  </g>
  <defs>
    <clipPath id="clip0_5_1614">
      <rect width="28" height="20" fill="white"/>
    </clipPath>
  </defs>
</svg>
