<svg xmlns="http://www.w3.org/2000/svg" fill="none" viewBox="0 0 28 20" stroke="currentColor" aria-hidden="true">
  <g clip-path="url(#clip0_5_1783)">
    <rect width="28" height="20" fill="white" rx="2"/>
    <rect width="28" height="20" fill="#F63030"/>
    <path fill="#0EA6FB" fill-rule="evenodd" d="M-1.33337 10.6666H14.6666V-1.33337H-1.33337V10.6666Z" clip-rule="evenodd"/>
    <path fill="white" d="M9.71075 5.89456L9.25884 6.13214C9.12113 6.20454 8.9508 6.15159 8.87839 6.01388C8.84956 5.95904 8.83962 5.89623 8.85009 5.83517L8.9364 5.33196C8.94277 5.29478 8.93045 5.25684 8.90344 5.23051L8.53783 4.87414C8.42642 4.76554 8.42414 4.58718 8.53274 4.47577C8.57599 4.43141 8.63265 4.40253 8.69396 4.39362L9.19921 4.32021C9.23654 4.31478 9.26881 4.29134 9.2855 4.25751L9.51146 3.79968C9.58032 3.66016 9.74924 3.60287 9.88876 3.67173C9.94431 3.69915 9.98928 3.74412 10.0167 3.79968L10.2427 4.25751C10.2594 4.29134 10.2916 4.31478 10.329 4.32021L10.8342 4.39362C10.9882 4.416 11.0948 4.55895 11.0725 4.71292C11.0636 4.77423 11.0347 4.83089 10.9903 4.87414L10.6247 5.23051C10.5977 5.25684 10.5854 5.29478 10.5918 5.33196L10.6781 5.83517C10.7044 5.98851 10.6014 6.13414 10.448 6.16045C10.387 6.17092 10.3242 6.16097 10.2693 6.13214L9.81741 5.89456C9.78402 5.877 9.74414 5.877 9.71075 5.89456Z"/>
    <path fill="white" d="M3.60186 5.89456L3.14995 6.13214C3.01224 6.20454 2.84191 6.15159 2.76951 6.01388C2.74068 5.95904 2.73073 5.89623 2.7412 5.83517L2.82751 5.33196C2.83389 5.29478 2.82156 5.25684 2.79455 5.23051L2.42895 4.87414C2.31753 4.76554 2.31525 4.58718 2.42385 4.47577C2.4671 4.43141 2.52376 4.40253 2.58507 4.39362L3.09032 4.32021C3.12765 4.31478 3.15992 4.29134 3.17662 4.25751L3.40257 3.79968C3.47143 3.66016 3.64035 3.60287 3.77987 3.67173C3.83543 3.69915 3.8804 3.74412 3.90781 3.79968L4.13377 4.25751C4.15046 4.29134 4.18273 4.31478 4.22006 4.32021L4.72531 4.39362C4.87928 4.416 4.98596 4.55895 4.96359 4.71292C4.95468 4.77423 4.92581 4.83089 4.88144 4.87414L4.51584 5.23051C4.48883 5.25684 4.4765 5.29478 4.48288 5.33196L4.56919 5.83517C4.59549 5.98851 4.4925 6.13414 4.33915 6.16045C4.27809 6.17092 4.21527 6.16097 4.16044 6.13214L3.70853 5.89456C3.67514 5.877 3.63525 5.877 3.60186 5.89456Z"/>
    <path fill="white" d="M6.61321 3.37258L6.1613 3.61017C6.02359 3.68257 5.85326 3.62962 5.78086 3.49191C5.75203 3.43707 5.74208 3.37426 5.75256 3.31319L5.83886 2.80998C5.84524 2.77281 5.83291 2.73487 5.8059 2.70854L5.4403 2.35217C5.32889 2.24357 5.32661 2.06521 5.43521 1.9538C5.47845 1.90943 5.53512 1.88056 5.59643 1.87165L6.10168 1.79823C6.13901 1.79281 6.17128 1.76936 6.18797 1.73554L6.41393 1.2777C6.48278 1.13819 6.6517 1.0809 6.79122 1.14976C6.84678 1.17718 6.89175 1.22215 6.91917 1.2777L7.14512 1.73554C7.16182 1.76936 7.19409 1.79281 7.23142 1.79823L7.73667 1.87165C7.89063 1.89402 7.99731 2.03698 7.97494 2.19095C7.96603 2.25226 7.93716 2.30892 7.89279 2.35217L7.52719 2.70854C7.50018 2.73487 7.48785 2.77281 7.49423 2.80998L7.58054 3.31319C7.60684 3.46654 7.50385 3.61217 7.3505 3.63847C7.28944 3.64895 7.22663 3.639 7.17179 3.61017L6.71988 3.37258C6.68649 3.35503 6.6466 3.35503 6.61321 3.37258Z"/>
    <path fill="white" d="M6.61321 8.7471L6.1613 8.98468C6.02359 9.05708 5.85326 9.00413 5.78086 8.86642C5.75203 8.81158 5.74208 8.74877 5.75256 8.6877L5.83886 8.1845C5.84524 8.14732 5.83291 8.10938 5.8059 8.08305L5.4403 7.72668C5.32889 7.61808 5.32661 7.43972 5.43521 7.32831C5.47845 7.28394 5.53512 7.25507 5.59643 7.24616L6.10168 7.17275C6.13901 7.16732 6.17128 7.14388 6.18797 7.11005L6.41393 6.65222C6.48278 6.5127 6.6517 6.45541 6.79122 6.52427C6.84678 6.55169 6.89175 6.59666 6.91917 6.65222L7.14512 7.11005C7.16182 7.14388 7.19409 7.16732 7.23142 7.17275L7.73667 7.24616C7.89063 7.26854 7.99731 7.41149 7.97494 7.56546C7.96603 7.62677 7.93716 7.68343 7.89279 7.72668L7.52719 8.08305C7.50018 8.10938 7.48785 8.14732 7.49423 8.1845L7.58054 8.6877C7.60684 8.84105 7.50385 8.98668 7.3505 9.01298C7.28944 9.02346 7.22663 9.01351 7.17179 8.98468L6.71988 8.7471C6.68649 8.72954 6.6466 8.72954 6.61321 8.7471Z"/>
  </g>
  <defs>
    <clipPath id="clip0_5_1783">
      <rect width="28" height="20" fill="white"/>
    </clipPath>
  </defs>
</svg>
